<svg width="121" height="107" viewBox="0 0 121 107" fill="none" xmlns="http://www.w3.org/2000/svg">
<path d="M120.486 102.562L103.739 63.0491C103.237 61.9205 102.109 61.167 100.854 61.167H72.8767V74.9653C72.8767 81.8662 67.2942 87.5089 60.3306 87.5089C53.3671 87.5089 47.7846 81.8628 47.7846 74.9653V61.167H19.869C18.6141 61.167 17.4853 61.9205 16.984 63.0491L0.236622 102.562C-0.138497 103.503 -0.0771174 104.632 0.488971 105.511C1.11644 106.391 2.05764 106.892 3.12161 106.892H117.608C118.614 106.892 119.616 106.391 120.183 105.511C120.81 104.635 120.871 103.503 120.496 102.562H120.486Z" fill="#CCA626"/>
<path d="M31.9889 43.5122H55.6418V74.9412C55.6418 77.5392 57.7493 79.6463 60.3479 79.6463C62.9464 79.6463 65.0539 77.5392 65.0539 74.9412V43.5122H88.7102C90.4426 43.5122 91.8476 42.1109 91.8476 40.3755V3.13676C91.8476 1.40472 90.4426 0 88.7102 0H31.9889C30.2565 0 28.8516 1.40132 28.8516 3.13676V40.3755C28.8516 42.1075 30.2565 43.5122 31.9889 43.5122ZM44.5008 11.5344H76.1915C77.9239 11.5344 79.3288 12.9357 79.3288 14.6711C79.3288 16.4066 77.9239 17.8079 76.1915 17.8079H44.5008C42.7684 17.8079 41.3635 16.4066 41.3635 14.6711C41.3635 12.9357 42.7684 11.5344 44.5008 11.5344ZM44.5008 25.7009H76.1915C77.9239 25.7009 79.3288 27.1023 79.3288 28.8377C79.3288 30.5731 77.9239 31.9744 76.1915 31.9744H44.5008C42.7684 31.9744 41.3635 30.5731 41.3635 28.8377C41.3635 27.1023 42.7684 25.7009 44.5008 25.7009Z" fill="#F3C733"/>
</svg>
