<svg width="136" height="120" viewBox="0 0 136 120" fill="none" xmlns="http://www.w3.org/2000/svg">
<path d="M45.6288 40.0827L84.139 12.771L122.649 40.0827C125.108 41.8258 128.527 41.3938 130.456 39.0965C132.572 36.5775 132.078 32.8238 129.383 30.9164L114.442 20.3204V6.71614C114.442 5.25594 113.24 4.0786 111.754 4.0786H105.615C104.133 4.0786 102.927 5.25976 102.927 6.71614V12.1555L87.1304 0.951802C85.341 -0.317267 82.9292 -0.317267 81.1398 0.951802L38.8914 30.9164C36.1957 32.8276 35.7055 36.5775 37.8217 39.0965C39.7511 41.3977 43.1664 41.8296 45.6288 40.0827Z" fill="#F3C733"/>
<path d="M115.45 80.563C116.92 80.563 118.138 79.4009 118.138 77.9599V44.4824L84.1396 20.3701L50.1455 44.4824V77.9599C50.1455 79.4048 51.3281 80.563 52.8335 80.563H74.8038V53.3927C74.8038 51.9325 76.0058 50.7513 77.4917 50.7513H90.8186C92.3046 50.7513 93.5065 51.9325 93.5065 53.3927V80.563H115.457H115.45Z" fill="#F3C733"/>
<path d="M131.001 87.9794H28.6419V18.7616C28.6419 10.6999 22.4919 3.97997 14.3308 3.1352L5.52408 2.22164C2.80113 1.96171 0.319404 3.8959 0.0276595 6.59458C-0.260195 9.29327 1.73142 11.7129 4.47771 11.9958L13.2845 12.9093C16.342 13.2228 18.6448 15.7418 18.6448 18.7616V92.8951C18.6448 95.6091 20.8815 97.8109 23.6434 97.8109H31.6994C30.8864 99.7145 30.4313 101.798 30.4313 103.988C30.4313 112.814 37.7365 120 46.7184 120C55.7002 120 63.0094 112.814 63.0094 103.988C63.0094 101.798 62.5543 99.7145 61.7413 97.8109H91.8066C90.9936 99.7145 90.5385 101.798 90.5385 103.988C90.5385 112.814 97.8476 120 106.829 120C115.811 120 123.121 112.814 123.121 103.988C123.121 101.798 122.665 99.7145 121.852 97.8109H131.001C133.763 97.8109 136 95.6091 136 92.8951C136 90.1811 133.763 87.9794 131.001 87.9794ZM53.0085 103.988C53.0085 107.394 50.1882 110.169 46.7184 110.169C43.2486 110.169 40.4323 107.398 40.4323 103.988C40.4323 100.578 43.2525 97.8109 46.7184 97.8109C50.1843 97.8109 53.0085 100.582 53.0085 103.988ZM113.12 103.988C113.12 107.394 110.299 110.169 106.829 110.169C103.36 110.169 100.539 107.398 100.539 103.988C100.539 100.578 103.36 97.8109 106.829 97.8109C110.299 97.8109 113.12 100.582 113.12 103.988Z" fill="#CCA626"/>
</svg>
