<svg width="145" height="121" viewBox="0 0 145 121" fill="none" xmlns="http://www.w3.org/2000/svg">
<path d="M143.926 65.5625C143.292 63.5406 141.796 61.9208 139.828 61.1283C137.875 60.3164 135.675 60.4401 133.811 61.426L104.787 76.8744C105.035 78.4749 105 80.1643 104.629 81.8537C103.187 88.5225 96.9729 93.0457 90.1636 92.3576L63.9395 89.7364C61.5267 89.489 59.748 87.3434 59.9955 84.9156C60.2391 82.5032 62.389 80.7287 64.8173 80.9916L91.0413 83.6127C93.3459 83.8408 95.5306 82.2751 96.041 79.971C96.5321 77.7365 95.3372 75.502 93.1912 74.6746L65.8072 63.9388C60.5987 61.9169 54.6826 62.0754 49.5979 64.3796L34.7266 71.1721V113.667L76.0153 119.017C84.5336 120.107 93.052 117.432 99.405 111.66L141.947 72.9659C143.988 71.1025 144.781 68.1953 143.934 65.5587L143.926 65.5625Z" fill="#F3C733"/>
<path d="M6.55408 64.2363H19.3645C22.9837 64.2363 25.9185 67.1745 25.9185 70.7891V113.74C25.9185 117.359 22.9798 120.293 19.3645 120.293H6.55408C2.93484 120.293 0 117.355 0 113.74V70.7891C0 67.1706 2.9387 64.2363 6.55408 64.2363Z" fill="#F3C733"/>
<path d="M39.4826 12.0691L44.1072 14.1335C44.5209 14.3307 44.9926 14.3346 45.4025 14.176L50.7656 12.1194C51.6472 11.7907 52.6333 12.2237 52.9774 13.1052L55.0229 18.4673C55.1814 18.8771 55.5101 19.2289 55.9238 19.4106L56.9949 19.8938C57.4086 20.0755 57.8804 20.0987 58.3057 19.9247L63.6688 17.8835C64.5388 17.5394 65.5364 17.9879 65.8651 18.8693L67.9261 24.2198C68.0846 24.6451 68.4133 24.9814 68.827 25.1786L73.9504 27.4595C74.7779 27.8345 75.4159 28.5652 75.5938 29.4659C75.6595 29.7675 75.7252 30.0652 75.7871 30.3667C80.2609 26.1257 85.7245 23.899 90.8789 24.3049C91.5555 24.359 92.2322 24.3977 92.8934 24.4518C97.7152 24.7611 103.183 25.1167 106.91 29.4002C107.208 29.7327 107.475 30.0961 107.726 30.4711C112.413 17.3384 105.12 15.5949 97.5257 12.216C92.673 10.0433 86.8691 11.5085 82.434 14.1258C81.6606 14.582 80.7094 14.6245 79.8974 14.2495L49.5979 0.730212C48.4108 0.208307 47.0729 0.146451 45.8588 0.583306L39.8692 2.68253C38.5468 3.13871 37.4796 4.12067 36.9189 5.40417C35.7744 7.94411 36.9228 10.9441 39.4787 12.0768L39.4826 12.0691Z" fill="#CCA626"/>
<path d="M40.8213 48.386C41.2737 48.4208 41.7145 48.2778 42.0625 47.9801L46.4203 44.2611C47.1472 43.6541 48.2222 43.7392 48.8447 44.4505L52.5645 48.8074C52.8622 49.1554 53.276 49.3641 53.7284 49.4028L54.9038 49.4956C55.3601 49.5304 55.797 49.3873 56.1489 49.0896L60.5067 45.3706C61.2336 44.7636 62.3086 44.8487 62.9311 45.56L66.6509 49.917C66.9486 50.2649 67.3585 50.4737 67.8148 50.5123L73.4524 50.9569C74.3456 51.0265 75.1654 51.5213 75.6217 52.2791C78.2588 56.6979 82.6629 60.7687 87.9642 61.1901C92.4883 61.5458 96.6991 62.2919 99.9471 60.6605C94.5879 57.9891 90.3809 53.2842 88.3779 47.3964C88.0763 46.5458 87.9681 45.6489 88.0415 44.7559C88.2503 42.1 90.0097 39.8461 92.5153 38.9956C95.976 37.8204 99.7461 39.6838 100.922 43.1477C101.772 45.6528 103.566 47.6554 105.84 48.7958C105.948 48.0072 106.029 47.1721 106.099 46.2907C107.514 28.4067 99.5141 29.4157 90.5394 28.7044C85.2382 28.2869 80.2463 31.6155 76.948 35.5626C76.3757 36.243 75.4902 36.5987 74.597 36.5291L41.5289 33.9157C40.2374 33.8152 38.9653 34.2018 37.9522 35.0214L32.9989 39.0033C31.924 39.8771 31.2473 41.1528 31.139 42.5484C30.9186 45.3242 33.0028 47.7636 35.7791 47.984L40.829 48.3822L40.8213 48.386Z" fill="#CCA626"/>
<path d="M109.146 54.2156C103.45 53.7671 98.578 49.9669 96.7413 44.5622C96.3469 43.4102 95.0941 42.7916 93.9379 43.1898C93.0718 43.4759 92.5111 44.2452 92.4415 45.1112C92.4183 45.3896 92.4531 45.6872 92.5498 45.9926C94.9587 53.0674 101.335 58.0351 108.794 58.6228C119.072 59.4346 128.089 51.7259 128.905 41.4501C129.67 31.7736 122.9 23.2182 113.527 21.5752C113.643 22.5572 113.662 23.6087 113.569 24.753C113.534 25.1783 113.488 25.619 113.422 26.0559C120.232 27.5829 125.065 33.9502 124.497 41.0983C123.874 48.954 116.995 54.838 109.142 54.2156H109.146Z" fill="#CCA626"/>
</svg>
