<svg width="143" height="120" viewBox="0 0 143 120" fill="none" xmlns="http://www.w3.org/2000/svg">
<path d="M140.681 48.3286C138.611 50.0687 135.65 50.2089 133.49 48.6585L84.0877 12.9833L41.5016 43.7229C41.3118 43.533 41.2666 43.3929 41.2214 43.3477C39.2914 39.4923 35.4857 37.0018 31.1602 36.8617L80.7023 1.09155C82.7227 -0.363849 85.4482 -0.363849 87.4686 1.09155L107.351 15.4285V8.09733C107.351 6.54702 108.622 5.27694 110.172 5.27694H118.823C120.373 5.27694 121.593 6.54702 121.593 8.09733V25.7248L140.301 39.2166C143.357 41.4268 143.497 45.8924 140.676 48.3376L140.681 48.3286Z" fill="#CCA626"/>
<path d="M126.203 52.184V92.6549C126.203 96.7905 122.818 100.176 118.682 100.176H63.5941C66.5547 94.7701 68.4801 88.5192 68.4801 81.5631V61.6351C68.4801 56.2745 64.2043 51.7185 58.7488 51.2936C53.673 50.9185 50.0074 49.7433 47.3271 48.3783L84.1324 21.7744L126.203 52.1885V52.184Z" fill="#CCA626"/>
<path d="M61.1899 61.6493C61.1899 59.9859 59.861 58.6661 58.2022 58.5351C40.2719 57.1249 35.0153 47.1947 34.7577 46.6885C33.9938 45.1111 32.3938 44.1212 30.6356 44.0986C28.8819 44.0986 27.2231 45.093 26.4276 46.6795C26.2197 47.0953 21.0038 57.1158 2.9831 58.5351C1.32431 58.6661 0 59.9859 0 61.6493V81.5592C0 104.597 27.318 118.893 28.4841 119.49C29.1486 119.829 29.8718 120.001 30.5995 120.001C31.3272 120.001 32.0503 119.829 32.7147 119.49C33.8764 118.893 61.1989 104.597 61.1989 81.5592V61.6493H61.1899ZM45.4833 78.3863L30.0525 93.8171C29.1892 94.6849 28.0502 95.1188 26.9158 95.1188C25.7813 95.1188 24.6423 94.6849 23.779 93.8171L15.711 85.7491C13.9754 84.018 13.9754 81.2022 15.711 79.4711C17.4467 77.7354 20.2535 77.7354 21.9891 79.4711L26.9203 84.3977L39.2143 72.1082C40.9499 70.3726 43.7567 70.3726 45.4924 72.1082C47.228 73.8393 47.228 76.6552 45.4924 78.3863H45.4833Z" fill="#F3C733"/>
</svg>
