<svg width="143" height="120" viewBox="0 0 143 120" fill="none" xmlns="http://www.w3.org/2000/svg">
<path d="M129.788 3.66797H70.8549C67.7551 3.66797 65.2422 6.18041 65.2422 9.2796V108.284H86.2899V92.055C86.2899 91.0206 87.1288 90.1857 88.1595 90.1857H97.978V108.284H102.662V90.1857H112.48C113.515 90.1857 114.35 91.0244 114.35 92.055V108.284H135.397V9.2796C135.397 6.18041 132.884 3.66797 129.785 3.66797H129.788ZM86.2861 78.9586C86.2861 79.993 85.451 80.8279 84.4164 80.8279H78.8037C77.7692 80.8279 76.9341 79.9892 76.9341 78.9586V73.347C76.9341 72.3127 77.7692 71.4777 78.8037 71.4777H84.4164C85.451 71.4777 86.2861 72.3165 86.2861 73.347V78.9586ZM86.2861 60.2545C86.2861 61.2888 85.451 62.1237 84.4164 62.1237H78.8037C77.7692 62.1237 76.9341 61.285 76.9341 60.2545V54.6428C76.9341 53.6085 77.7692 52.7735 78.8037 52.7735H84.4164C85.451 52.7735 86.2861 53.6123 86.2861 54.6428V60.2545ZM86.2861 41.5465C86.2861 42.5808 85.451 43.4158 84.4164 43.4158H78.8037C77.7692 43.4158 76.9341 42.577 76.9341 41.5465V35.9349C76.9341 34.9005 77.7692 34.0656 78.8037 34.0656H84.4164C85.451 34.0656 86.2861 34.9043 86.2861 35.9349V41.5465ZM86.2861 22.8423C86.2861 23.8766 85.451 24.7116 84.4164 24.7116H78.8037C77.7692 24.7116 76.9341 23.8729 76.9341 22.8423V17.2307C76.9341 16.1964 77.7692 15.3614 78.8037 15.3614H84.4164C85.451 15.3614 86.2861 16.2001 86.2861 17.2307V22.8423ZM104.998 78.9586C104.998 79.993 104.159 80.8279 103.128 80.8279H97.5153C96.4808 80.8279 95.6456 79.9892 95.6456 78.9586V73.347C95.6456 72.3127 96.4845 71.4777 97.5153 71.4777H103.128C104.159 71.4777 104.998 72.3165 104.998 73.347V78.9586ZM104.998 60.2545C104.998 61.2888 104.159 62.1237 103.128 62.1237H97.5153C96.4808 62.1237 95.6456 61.285 95.6456 60.2545V54.6428C95.6456 53.6085 96.4845 52.7735 97.5153 52.7735H103.128C104.159 52.7735 104.998 53.6123 104.998 54.6428V60.2545ZM104.998 41.5465C104.998 42.5808 104.159 43.4158 103.128 43.4158H97.5153C96.4808 43.4158 95.6456 42.577 95.6456 41.5465V35.9349C95.6456 34.9005 96.4845 34.0656 97.5153 34.0656H103.128C104.159 34.0656 104.998 34.9043 104.998 35.9349V41.5465ZM104.998 22.8423C104.998 23.8766 104.159 24.7116 103.128 24.7116H97.5153C96.4808 24.7116 95.6456 23.8729 95.6456 22.8423V17.2307C95.6456 16.1964 96.4845 15.3614 97.5153 15.3614H103.128C104.159 15.3614 104.998 16.2001 104.998 17.2307V22.8423ZM123.705 78.9586C123.705 79.993 122.867 80.8279 121.832 80.8279H116.219C115.185 80.8279 114.35 79.9892 114.35 78.9586V73.347C114.35 72.3127 115.185 71.4777 116.219 71.4777H121.832C122.867 71.4777 123.705 72.3165 123.705 73.347V78.9586ZM123.705 60.2545C123.705 61.2888 122.867 62.1237 121.832 62.1237H116.219C115.185 62.1237 114.35 61.285 114.35 60.2545V54.6428C114.35 53.6085 115.185 52.7735 116.219 52.7735H121.832C122.867 52.7735 123.705 53.6123 123.705 54.6428V60.2545ZM123.705 41.5465C123.705 42.5808 122.867 43.4158 121.832 43.4158H116.219C115.185 43.4158 114.35 42.577 114.35 41.5465V35.9349C114.35 34.9005 115.185 34.0656 116.219 34.0656H121.832C122.867 34.0656 123.705 34.9043 123.705 35.9349V41.5465ZM123.705 22.8423C123.705 23.8766 122.867 24.7116 121.832 24.7116H116.219C115.185 24.7116 114.35 23.8729 114.35 22.8423V17.2307C114.35 16.1964 115.185 15.3614 116.219 15.3614H121.832C122.867 15.3614 123.705 16.2001 123.705 17.2307V22.8423Z" fill="#CCA626"/>
<path d="M52.4816 0.188608L10.3863 12.4311C8.38871 13.0104 7.01562 14.842 7.01562 16.922V108.284H58.4667V4.67942C58.4667 1.56143 55.4761 -0.680217 52.4854 0.188608H52.4816ZM46.7711 96.2446C46.7711 96.7599 46.3535 97.1811 45.8344 97.1811H19.6442C19.1288 97.1811 18.7075 96.7636 18.7075 96.2446V91.0993C18.7075 90.584 19.1251 90.1628 19.6442 90.1628H45.8381C46.3535 90.1628 46.7748 90.5803 46.7748 91.0993V96.2446H46.7711ZM46.7711 79.8761C46.7711 80.3913 46.3535 80.8126 45.8344 80.8126H19.6442C19.1288 80.8126 18.7075 80.3951 18.7075 79.8761V74.7308C18.7075 74.2155 19.1251 73.7943 19.6442 73.7943H45.8381C46.3535 73.7943 46.7748 74.2118 46.7748 74.7308V79.8761H46.7711ZM46.7711 63.4812C46.7711 63.9965 46.3535 64.4177 45.8344 64.4177H19.6442C19.1288 64.4177 18.7075 64.0002 18.7075 63.4812V58.336C18.7075 57.8207 19.1251 57.3994 19.6442 57.3994H45.8381C46.3535 57.3994 46.7748 57.8169 46.7748 58.336V63.4812H46.7711ZM46.7711 47.1127C46.7711 47.628 46.3535 48.0492 45.8344 48.0492H19.6442C19.1288 48.0492 18.7075 47.6317 18.7075 47.1127V41.9675C18.7075 41.4522 19.1251 41.0309 19.6442 41.0309H45.8381C46.3535 41.0309 46.7748 41.4484 46.7748 41.9675V47.1127H46.7711ZM46.7711 30.7442C46.7711 31.2595 46.3535 31.6807 45.8344 31.6807H19.6442C19.1288 31.6807 18.7075 31.2632 18.7075 30.7442V25.5989C18.7075 25.0837 19.1251 24.6624 19.6442 24.6624H45.8381C46.3535 24.6624 46.7748 25.0799 46.7748 25.5989V30.7442H46.7711Z" fill="#CCA626"/>
<path d="M140.544 113.162H1.86965C0.835135 113.162 0 114.001 0 115.031V118.131C0 119.165 0.835135 120 1.86965 120H140.544C141.578 120 142.413 119.161 142.413 118.131V115.031C142.413 113.997 141.578 113.162 140.544 113.162Z" fill="#F3C733"/>
</svg>
