<svg width="84" height="121" viewBox="0 0 84 121" fill="none" xmlns="http://www.w3.org/2000/svg">
<path d="M79.3697 23.2455C74.3604 13.2786 65.7041 5.83686 55.0541 2.28626C44.3543 -1.21459 33.0232 -0.388171 23.0046 4.62016C13.0817 9.62849 5.64237 18.3328 2.14084 29.1262C-1.36069 39.7741 -0.53411 51.3978 4.37951 61.0242L31.1289 113.541C33.1725 117.627 37.3054 120.152 41.8784 120.152C46.4515 120.152 50.5347 117.623 52.4787 113.637C52.6241 113.346 74.414 70.9452 79.3735 60.9744C85.5002 48.7692 85.4543 35.3971 79.3735 23.2417L79.3697 23.2455ZM41.9703 73.3786C24.7534 73.3786 10.7473 59.4249 10.7473 42.1616C10.7473 24.8984 24.7534 10.9944 41.9703 10.9944C59.1871 10.9944 73.1932 24.9481 73.1932 42.1616C73.1932 59.3751 59.1871 73.3786 41.9703 73.3786Z" fill="#CCA626"/>
<path d="M43.9261 21.0568C42.8048 20.0735 41.1287 20.0735 40.0036 21.0568L20.705 37.9107C19.4536 39.0049 20.2266 41.0634 21.8875 41.0634H25.4502V56.448C25.4502 57.2783 26.1237 57.9478 26.9503 57.9478H36.3413C36.9498 57.9478 37.4396 57.4581 37.4396 56.8497V46.6609C37.4396 46.0564 37.9333 45.5628 38.5379 45.5628H45.3841C45.9887 45.5628 46.4824 46.0526 46.4824 46.6609V56.8497C46.4824 57.4543 46.9761 57.9478 47.5807 57.9478H56.9716C57.8021 57.9478 58.4756 57.2744 58.4756 56.448V41.0634H62.0383C63.6992 41.0634 64.4722 39.0049 63.2209 37.9107L43.9222 21.0568H43.9261Z" fill="#F3C733"/>
</svg>
