<svg width="202" height="106" viewBox="0 0 202 106" fill="none" xmlns="http://www.w3.org/2000/svg">
<path d="M8.02637 72.8449C12.5094 70.8137 23.1497 66.4684 29.8467 65.3373C36.5438 64.2062 66.9004 64.5968 81.2413 64.9334C82.6593 65.1243 87.1664 66.058 93.8499 68.2663C100.533 70.4749 106.561 74.0457 108.74 75.555L101.158 73.6866L106.269 76.6998C104.972 76.4586 101.84 76.0095 99.6995 76.1444C97.5585 76.2789 96.4058 76.5707 96.097 76.6998C97.3035 77.2722 99.9361 78.7602 100.815 80.1336C101.693 81.5073 102.347 82.2547 102.564 82.4568L81.6187 82.8943L64.2241 84.9312L58.649 87.0017L14.6994 83.4331L10.3079 83.9379C12.7553 82.7877 18.0754 80.1303 19.7771 78.7028C21.4788 77.2755 23.2652 75.1905 23.9457 74.3263C21.8928 74.5284 17.499 74.8716 16.3462 74.6293C14.9053 74.3263 13.5501 74.2254 12.7438 74.4272L12.2464 74.6293L19.7771 70.6568C17.507 70.9256 12.5174 71.5814 10.7196 72.0537C8.92182 72.5263 8.17505 72.7781 8.02637 72.8449Z" fill="#3E6B94"/>
<path d="M65.7344 88.1123C67.9074 87.3044 74.1262 85.7926 81.6193 86.2102C89.1124 86.6276 94.2334 87.6523 95.8574 88.1123C93.7474 87.8765 87.8705 87.661 81.2419 88.6847C74.6134 89.708 71.5954 90.5588 70.9151 90.8561L65.7344 88.1123Z" fill="#3E6B94"/>
<path d="M11.9717 90.0146C15.8657 89.723 26.649 89.5972 38.6297 91.4287C50.6103 93.2602 63.0174 97.2978 67.7235 99.0877C65.4019 96.0015 57.2422 89.5466 43.1755 88.4155C25.5923 87.0016 25.3006 87.5401 20.8233 88.1125C17.2415 88.5703 13.4298 89.5715 11.9717 90.0146Z" fill="#3E6B94"/>
<path d="M61.4287 7.17871C68.6849 8.05403 85.6815 13.2252 95.6174 26.9071C103.027 37.1109 105.715 45.4459 104.658 58.0483C104.254 62.8585 102.851 67.3403 101.947 70.1177C99.9461 69.0572 94.9415 66.6467 90.9341 65.4886C86.927 64.3304 85.1932 63.8614 84.8273 63.7717V51.5171C85.5935 51.6574 87.2941 52.0053 87.9666 52.2747C88.8071 52.6113 89.3559 53.0825 90.2653 52.5607C91.1744 52.0389 95.5658 48.1 96.012 47.5949C96.4579 47.0901 98.0189 46.0126 96.3378 43.8411C94.9928 42.104 72.5047 18.6757 61.4287 7.17871Z" fill="#F3C733"/>
<path d="M10.6169 69.9662C13.8419 68.5914 21.1497 65.6401 24.5806 64.8322C28.0114 64.0241 29.9556 63.6089 30.4988 63.5023V52.5271H23.2597C22.7793 52.5271 21.8358 52.1398 20.7723 50.7259C19.7087 49.3121 16.7582 45.5583 16.7582 45.0026C16.7582 44.4472 16.6209 44.1105 18.5422 42.2085C20.0792 40.6866 41.7236 18.2212 52.3534 7.17871C47.5846 7.521 35.3534 10.3602 24.5806 18.9787C11.1144 29.7518 7.44332 45.6929 8.14664 57.8295C8.51725 63.5392 9.94789 68.2996 10.6169 69.9662Z" fill="#F3C733"/>
<path d="M30.4986 52.5271V63.5023L84.8268 63.7717V51.5172C85.593 51.6575 87.2936 52.0053 87.9661 52.2747C88.8066 52.6114 89.3554 53.0826 90.2648 52.5608C91.1739 52.039 95.5653 48.1001 96.0115 47.595C96.4574 47.0901 98.0184 46.0126 96.3373 43.8412C94.9923 42.1041 72.5042 18.6758 61.4282 7.17876C61.4282 7.17876 58.6867 6.89325 56.9239 6.89161C55.1352 6.88997 52.3533 7.17876 52.3533 7.17876C41.7235 18.2213 20.0791 40.6866 18.5421 42.2085C16.6207 44.1106 16.758 44.4472 16.758 45.0027C16.758 45.5584 19.7085 49.3121 20.7721 50.726C21.8357 52.1399 22.7792 52.5271 23.2595 52.5271H30.4986Z" fill="#F3C733"/>
<path d="M57.6995 71.8866L57.3506 75.7542L62.7699 77.4664L87.0949 72.8334L83.8104 70.4161L78.9248 68.3415L78.186 67.7574L78.5965 66.6495C78.6512 66.1392 78.7607 65.0702 78.7607 64.8769C78.7607 64.6351 77.8987 62.3792 77.8987 62.0368C77.8987 61.7628 78.3638 59.0622 78.5965 57.7462L78.186 52.0053V46.6876L78.7607 44.7541L78.186 42.8203L70.7345 41.5713L60.635 40.9268L60.1011 42.4175L59.7318 44.4519L60.368 46.6876L60.5528 52.1262L60.1011 55.0672L59.7318 57.2627L60.1011 58.693V60.2439V66.428V70.799L57.6995 71.8866Z" fill="white"/>
<path d="M25.6764 43.8681L50.6583 41.5717L71.5553 24.289L68.5788 23.584L41.031 30.0903L25.0811 42.2365L25.6764 43.8681Z" fill="white"/>
<path d="M51.7666 45.4597V73.7001L56.5496 73.4384L58.4997 71.0815H60.3471L59.8134 68.1405L60.3471 65.4213V59.6403C60.1693 59.1232 59.8134 58.0448 59.8134 57.8676V54.6649C60.1624 54.3895 60.8605 53.7868 60.8605 53.5773V47.5745L60.0392 43.9085L60.8605 41.6725L61.5787 40.7662L77.9803 42.2769L78.555 43.5259V44.9559V47.3127L77.9803 50.4752L78.2883 55.088L78.555 57.6461L78.2883 60.1438V64.0717L78.555 65.8039L77.9803 67.7579L80.0945 68.7047L83.7895 69.4702V40.7662L71.3911 25.8604L51.7666 42.5187V45.4597Z" fill="#F3687B"/>
<path d="M27.4004 43.7066L50.8223 41.7124L72.1708 25.7188L84.5079 41.7124L83.8101 47.8359L70.5081 31.5601L51.8075 47.4331L51.2328 74.5858L27.4004 67.0926V43.7066Z" fill="#ED0827"/>
<path d="M45.7314 40.2418H46.4499L55.0305 30.9961L45.7314 40.2418Z" fill="#061E5E"/>
<path d="M39.4291 40.7863L38.0947 40.9676L48.5228 32.2051L39.4291 40.7863Z" fill="#061E5E"/>
<path d="M30.9932 41.7127L32.1425 41.5918L38.3831 36.1934L30.9932 41.7127Z" fill="#061E5E"/>
<path d="M40.5586 34.5015L46.2036 29.7881H45.4235L40.5586 34.5015Z" fill="#061E5E"/>
<path d="M50.166 32.2049L53.861 27.9146L54.764 27.6729L50.166 32.2049Z" fill="#061E5E"/>
<path d="M56.5703 29.5664L60.1215 26.4844L61.2917 26.1621L56.5703 29.5664Z" fill="#061E5E"/>
<path d="M46.6963 43.0023L46.8604 72.1088H47.2506C47.4215 68.1743 47.7308 59.3141 47.5995 55.3498C47.468 51.3857 47.0522 45.2246 46.8604 42.6396L46.6963 43.0023Z" fill="#061E5E"/>
<path d="M42.9189 70.8398V60.1438V42.8408H43.3501V60.1438V71.2628L42.9189 70.8398Z" fill="#061E5E"/>
<path d="M39.2451 69.9941V60.144V43.4454L39.4299 43.2441L39.8198 70.84L39.2451 69.9941Z" fill="#061E5E"/>
<path d="M36.5554 69.1479L36.0833 43.4453L35.8369 43.6266L36.0833 69.1479H36.5554Z" fill="#061E5E"/>
<path d="M33.5385 68.1001L33.3331 43.8076H33.0254V68.3419L33.5385 68.1001Z" fill="#061E5E"/>
<path d="M30.9933 67.6572L30.5211 44.0293H29.8643L30.2335 67.6572H30.9933Z" fill="#061E5E"/>
<path d="M56.2617 39.5581V71.2632H56.6929V52.8322C56.6929 49.9962 56.9119 42.1698 57.0212 38.6113L56.2617 39.5581Z" fill="#061E5E"/>
<path d="M61.4961 35.2064V40.5846H62.071L61.7834 34.7432L61.4961 35.2064Z" fill="#061E5E"/>
<path d="M64.2266 32.5474C64.2745 33.9842 64.3787 37.1278 64.4113 38.2075C64.4442 39.2872 64.425 40.4971 64.4113 40.9672H65.253C65.1641 40.1881 64.9576 38.143 64.8425 36.1931C64.7277 34.2432 64.699 32.8561 64.699 32.4062L64.2266 32.5474Z" fill="#061E5E"/>
<path d="M67.4082 29.7881V40.9676H68.0241L67.634 29.7881H67.4082Z" fill="#061E5E"/>
<path d="M70.2207 27.6731V41.33H70.7748V27.3105L70.2207 27.6731Z" fill="#061E5E"/>
<path d="M73.1152 41.3301L73.4026 28.7607L73.9775 29.1838L73.4026 41.5316L73.1152 41.3301Z" fill="#061E5E"/>
<path d="M75.9688 41.5315L76.6256 32.2051L76.8514 32.7693C76.7761 34.112 76.6256 37.0314 76.6256 37.9662C76.6256 38.9006 76.4751 40.9339 76.3999 41.8337L75.9688 41.5315Z" fill="#061E5E"/>
<path d="M80.0742 37.3213C80.1564 40.2218 80.3206 46.4661 80.3206 48.2388C80.3206 50.3667 80.5101 55.096 80.5976 57.2874L80.6079 57.545C80.6737 59.1886 80.6352 65.5888 80.6079 68.5834L81.08 68.946V56.1552C81.08 52.8515 80.9159 42.4914 80.8337 37.7241L80.0742 37.3213Z" fill="#061E5E"/>
<path d="M67.0801 68.9466V60.4863L67.3878 68.9466H67.0801Z" fill="#061E5E"/>
<path d="M64.8223 62.1172V69.2681L65.2534 68.9459L64.8223 62.1172Z" fill="#061E5E"/>
<path d="M67.1622 43.123H67.4085L66.957 50.5556L67.1622 43.123Z" fill="#061E5E"/>
<path d="M67.6348 57.5449V59.7606L67.7989 57.5449H67.6348Z" fill="#061E5E"/>
<path d="M63.0569 58.915L62.9337 62.4199L62.8105 58.915H63.0569Z" fill="#061E5E"/>
<path d="M66.0332 60.8486V63.2859L65.8896 60.8486H66.0332Z" fill="#061E5E"/>
<path d="M64.4113 46.4863H64.6577L64.1855 52.4085L64.4113 46.4863Z" fill="#061E5E"/>
<path d="M66.0337 48.7227L65.6025 55.0072L65.8902 54.8863L66.0337 48.7227Z" fill="#061E5E"/>
<path d="M75.6816 64.2923V59.6191L75.8458 64.2923H75.6816Z" fill="#061E5E"/>
<path d="M73.4235 61.252L72.7666 68.0804H73.0539L73.4235 61.252Z" fill="#061E5E"/>
<path d="M75.558 46.2246H75.8044L75.1885 52.5493L75.558 46.2246Z" fill="#061E5E"/>
<path d="M76.3789 52.1865V54.4025L76.5433 52.1865H76.3789Z" fill="#061E5E"/>
<path d="M71.6575 58.0488L71.5343 64.1321L71.4111 58.0488H71.6575Z" fill="#061E5E"/>
<path d="M74.6344 59.9824L74.2852 64.6758L74.4906 59.9824H74.6344Z" fill="#061E5E"/>
<path d="M72.4992 44.3916H72.7455L72.2734 50.3138L72.4992 44.3916Z" fill="#061E5E"/>
<path d="M73.7922 49.8105L73.5049 54.5239L73.7922 54.4033V49.8105Z" fill="#061E5E"/>
<path d="M33.9074 48.1383C33.9893 48.1383 39.7851 47.6548 42.6724 47.4131L42.426 59.4989L33.7842 58.7334L33.9074 48.1383Z" fill="#F3C733"/>
<path d="M42.0986 48.6628L39.1837 48.9045V57.3443L40.395 54.5242L42.0986 58.7544V59.8622L38.2805 59.0566L38.0957 48.2599L40.949 47.6758L42.345 47.9777L42.0986 48.6628Z" fill="#CEA210"/>
<path d="M37.2791 49.3379L34.7496 49.5477V56.8714L35.6941 54.484L37.2791 58.095V59.0565L33.9659 58.3572L33.8057 48.9881L36.2816 48.4814L37.747 48.3203L37.2791 49.3379Z" fill="#CEA210"/>
<path d="M41.6675 49.3262L40.21 49.4875V50.2125L41.7701 51.2599L41.6675 49.3262Z" fill="white"/>
<path d="M36.9364 50.0977L36.0019 50.1318L35.9668 50.5929L36.9074 51.3319L36.9364 50.0977Z" fill="white"/>
<path fill-rule="evenodd" clip-rule="evenodd" d="M41.0921 29.5662L72.0066 21.8916C72.0066 21.8916 84.7952 37.8047 89.1674 43.1225C89.5565 43.5953 89.2906 44.5118 88.5927 44.5728C86.7452 44.7338 84.3434 44.8345 84.3434 44.8345V69.1472C84.3434 69.1472 85.0209 69.5098 85.0209 70.0133V70.5171C85.0209 70.5171 86.8684 70.8996 87.7307 71.1414C88.2159 71.2776 88.1822 71.8062 88.1822 72.3299V73.0951C88.1822 73.5327 87.9247 73.915 87.4843 73.9815C78.6984 75.3111 72.0885 76.5598 63.9185 78.0303C63.2697 78.1471 62.8614 78.094 62.2355 77.8892C60.2648 77.2446 56.9803 76.1972 56.9803 76.1972C56.9803 76.1972 56.0977 75.8146 55.0713 76.0361C54.2343 76.2169 53.7781 76.2981 52.9158 76.4389C52.2386 76.5497 50.4204 75.6319 49.5288 75.2909C40.579 71.8667 26.7638 67.6567 26.7638 67.6567V44.774C26.7638 44.774 25.8811 44.8547 25.368 44.8547C25.0667 44.8547 24.889 44.7355 24.67 44.5323C24.3005 44.1899 24.1363 44.0086 23.7668 43.5655C23.4897 43.2333 23.5858 42.7416 23.931 42.4779C28.5702 38.9326 41.0921 29.5662 41.0921 29.5662ZM68.4142 24.5706L41.6874 30.8753L25.9633 43.0016L50.1447 40.8059L68.4142 24.5706ZM50.9248 42.659L28.1187 44.5323V66.2869L50.9248 72.9141V42.659ZM71.5961 27.2899L52.4437 43.1627L52.5259 72.9141L55.8923 72.4306V72.0075C55.8923 71.4234 56.2148 70.9202 56.7956 70.819C57.5703 70.6841 58.6166 70.5228 59.8336 70.3459C60.3958 70.2641 60.9944 70.1793 61.6195 70.0921C63.9843 69.7625 66.7292 69.4018 69.3174 69.0698C69.8102 69.0066 70.2971 68.9443 70.7748 68.8836C73.5367 68.5327 75.9853 68.2302 77.4053 68.056C78.2221 67.9559 78.6984 67.8982 78.6984 67.8982L78.76 67.91L83.0503 68.7241V41.3498L71.5961 27.2899ZM78.5343 69.1472L58.5199 72.1081L62.8924 73.5587L83.235 70.2149L78.5343 69.1472ZM62.5638 74.8881L58.5199 73.3169L58.3967 74.8881L62.5638 76.1972V74.8881ZM83.7072 71.4838L64.1445 74.8881V76.1972L86.3963 72.1888L83.7072 71.4838Z" fill="#061E5E"/>
<path fill-rule="evenodd" clip-rule="evenodd" d="M32.3271 47.2725L43.8432 46.084V47.5744L43.3504 47.7156V59.0963L43.8432 59.3179V60.9697L32.1836 59.6001L32.3271 58.21H32.7376V48.8839L32.3271 48.4003V47.2725ZM38.5265 58.4115L38.629 48.4003L42.0776 48.0377V58.8144L38.5265 58.4115ZM37.1511 48.5614V58.21L34.4619 58.0489V48.8032L37.1511 48.5614Z" fill="#061E5E"/>
<path fill-rule="evenodd" clip-rule="evenodd" d="M69.3176 42.2363V69.07C69.8103 69.0068 70.2972 68.9444 70.7749 68.8837V42.2363L77.4054 42.9211V43.7672C77.4054 43.7672 75.5169 43.7672 74.4083 44.0894C73.8779 44.2436 73.8776 45.3266 74.4083 45.4792C75.5988 45.8216 77.4054 46.3051 77.4054 46.3051V54.9667C77.4054 54.9667 74.1825 55.0471 72.9097 55.4097C72.1544 55.625 72.257 57.1682 73.0125 57.3837C74.1415 57.7061 77.4054 58.1492 77.4054 58.1492V64.3735C77.4054 64.3735 76.0506 64.5748 75.4347 64.8368C74.9124 65.0589 74.8753 66.1632 75.4347 66.2668C76.1941 66.4079 77.4054 66.7101 77.4054 66.7101V68.0562C78.2222 67.9561 78.6985 67.8984 78.6985 67.8984L78.7601 67.9101V67.274C78.7601 67.274 79.2528 67.0003 79.2528 66.7101V64.0511C79.2528 63.7721 78.6985 63.5878 78.6985 63.5878L78.7601 58.532C78.7601 58.532 79.3348 58.3387 79.3348 58.0485V55.148C79.3348 54.7952 78.7601 54.443 78.7601 54.443V46.9699C78.7601 46.9699 79.2322 46.6215 79.2322 46.3051V43.6866C79.2322 43.4251 78.7601 43.2031 78.7601 43.2031V42.3572C78.7601 41.8939 78.3056 41.644 77.8365 41.5917C71.514 40.8867 64.7193 40.2019 60.737 40.1212C60.2997 40.1125 59.9979 40.5178 59.9979 40.9471V41.6721C59.9979 41.6721 59.3207 41.9844 59.3207 42.3572V45.5599C59.3207 45.916 59.9979 46.1842 59.9979 46.1842V54.0804C59.9979 54.0804 59.1562 54.4936 59.1562 54.9667V58.5722C59.1562 58.9622 59.8338 59.3175 59.8338 59.3175V65.6827C59.8338 65.6827 59.1562 66.0237 59.1562 66.4079V69.1473C59.1562 69.4982 59.8338 69.7517 59.8338 69.7517V70.346C60.3959 70.2642 60.9945 70.1795 61.6197 70.0922V69.4495C61.6197 69.4495 62.5775 68.9958 63.2001 68.7243C64.6784 68.0797 64.3704 66.5086 63.2001 66.1662C62.6377 66.0015 61.6197 65.8035 61.6197 65.8035L61.7019 58.3305C61.7019 58.3305 64.714 57.7988 66.6284 57.3837C68.3937 57.0011 68.0038 55.5708 66.6284 55.4097C65.097 55.2303 61.8044 54.9667 61.8044 54.9667V45.4792C61.8044 45.4792 64.1034 45.1973 65.3762 45.0561C65.918 44.9963 65.8921 43.8591 65.3762 43.6866C63.5697 43.0822 61.8044 42.6591 61.8044 42.6591V41.511L69.3176 42.2363ZM60.4497 68.6034L60.4907 66.6095L60.9834 66.6294C60.9834 66.6294 61.0653 67.0727 61.3529 67.0727C61.7944 67.0727 61.907 67.0727 62.4819 67.1332C62.7322 67.1594 63.0566 67.6367 62.3791 67.7575C61.941 67.8357 61.2707 68.0193 61.2707 68.0193L60.9628 68.6034H60.4497ZM60.3265 58.1292V55.3493L60.9834 55.2689L61.1475 55.9739C61.1475 55.9739 64.2678 56.0141 65.9099 56.1954C66.1819 56.2255 66.2416 56.8376 65.9715 56.8802C64.6987 57.0818 61.0653 57.4441 61.0653 57.4441L60.9834 58.0887L60.3265 58.1292ZM60.5729 45.0561V42.7398H61.1885L61.6403 43.3239C61.6403 43.3239 63.9393 43.7268 64.7193 44.0692C64.9022 44.1496 64.9183 44.5494 64.7193 44.5729C63.6929 44.6938 61.6403 44.472 61.6403 44.472L61.1885 45.1368L60.5729 45.0561ZM78.4728 45.882V43.9685H77.7749L77.5489 44.472C77.5489 44.472 75.7014 44.2505 75.1474 44.472C74.9227 44.562 74.8271 45.0307 75.0651 45.0764C76.0094 45.2577 77.5489 45.3583 77.5489 45.3583L77.7749 45.8418L78.4728 45.882ZM78.1648 57.6859V55.2689H77.6927L77.4054 55.9537C77.4054 55.9537 74.9216 55.9537 73.7104 56.1954C73.4905 56.2392 73.4941 56.7006 73.7104 56.7593C74.6752 57.0213 77.5489 57.0615 77.5489 57.0615L77.6927 57.6859H78.1648ZM78.1854 66.126V64.7361H77.7133L77.4054 65.0181C77.4054 65.0181 76.5431 65.0785 76.0094 65.2599C75.7878 65.3351 75.8586 65.8153 76.0916 65.844C76.5843 65.9044 77.3644 65.844 77.3644 65.844L77.7133 66.2266L78.1854 66.126Z" fill="#061E5E"/>
<path d="M124.062 58.8455C122.17 58.8455 120.406 58.5474 118.771 57.9515C117.159 57.3326 115.758 56.4616 114.566 55.3384C113.375 54.2152 112.441 52.8971 111.763 51.3842C111.109 49.8716 110.782 48.2096 110.782 46.3987C110.782 44.588 111.109 42.926 111.763 41.4132C112.441 39.9003 113.375 38.5824 114.566 37.4592C115.781 36.3361 117.195 35.4765 118.806 34.8806C120.418 34.2617 122.182 33.9521 124.097 33.9521C126.223 33.9521 128.138 34.3189 129.843 35.0523C131.572 35.7628 133.02 36.8174 134.188 38.2157L130.544 41.5163C129.703 40.5766 128.769 39.8776 127.741 39.419C126.713 38.9376 125.592 38.697 124.377 38.697C123.233 38.697 122.182 38.8805 121.224 39.2472C120.266 39.614 119.437 40.1409 118.736 40.8287C118.035 41.5163 117.486 42.3301 117.089 43.2698C116.715 44.2098 116.529 45.2528 116.529 46.3987C116.529 47.5448 116.715 48.5879 117.089 49.5275C117.486 50.4675 118.035 51.2811 118.736 51.9689C119.437 52.6564 120.266 53.1837 121.224 53.5504C122.182 53.9171 123.233 54.1006 124.377 54.1006C125.592 54.1006 126.713 53.8715 127.741 53.4128C128.769 52.9315 129.703 52.2095 130.544 51.2469L134.188 54.5475C133.02 55.9458 131.572 57.0115 129.843 57.7453C128.138 58.4787 126.211 58.8455 124.062 58.8455Z" fill="black"/>
<path d="M137.888 58.4332V34.3652H142.583L153.025 51.3504H150.537L160.803 34.3652H165.499L165.534 58.4332H160.208L160.173 42.3765H161.189L152.955 55.8888H150.432L142.022 42.3765H143.214V58.4332H137.888Z" fill="black"/>
<path d="M187.499 58.4332L179.861 46.8462L184.451 44.13L193.947 58.4332H187.499ZM171.557 58.4332V34.3652H177.198V58.4332H171.557ZM175.551 48.7373V44.0956H184.101V48.7373H175.551ZM184.976 47.018L179.756 46.3991L187.71 34.3652H193.701L184.976 47.018Z" fill="black"/>
<path d="M149.844 67.015L147.791 64.2778L148.445 63.8809L150.766 67.015H149.844ZM146.036 67.015V61.4609H146.828V67.015H146.036ZM146.586 64.5712V63.873H148.421V64.5712H146.586ZM148.518 64.3253L147.774 64.214L149.804 61.4609H150.669L148.518 64.3253Z" fill="black"/>
<path d="M154.126 67.0774C153.695 67.0774 153.294 67.0061 152.922 66.8633C152.555 66.7203 152.237 66.522 151.968 66.2682C151.698 66.009 151.488 65.7073 151.337 65.3636C151.186 65.0198 151.11 64.6443 151.11 64.2368C151.11 63.8296 151.186 63.4541 151.337 63.1104C151.488 62.7663 151.698 62.4677 151.968 62.2136C152.237 61.9546 152.555 61.7536 152.922 61.6106C153.288 61.4679 153.69 61.3965 154.126 61.3965C154.558 61.3965 154.954 61.4679 155.315 61.6106C155.682 61.7482 156 61.9467 156.269 62.2057C156.544 62.4598 156.754 62.7584 156.9 63.1024C157.051 63.4462 157.126 63.8244 157.126 64.2368C157.126 64.6495 157.051 65.0277 156.9 65.3715C156.754 65.7152 156.544 66.0169 156.269 66.2761C156 66.5299 155.682 66.7282 155.315 66.8712C154.954 67.0088 154.558 67.0774 154.126 67.0774ZM154.126 66.3713C154.439 66.3713 154.728 66.3183 154.992 66.2127C155.261 66.1069 155.493 65.9586 155.687 65.7683C155.886 65.5725 156.04 65.3452 156.148 65.086C156.261 64.8267 156.318 64.5437 156.318 64.2368C156.318 63.9303 156.261 63.6472 156.148 63.388C156.04 63.1287 155.886 62.9039 155.687 62.7136C155.493 62.5177 155.261 62.3671 154.992 62.2612C154.728 62.1557 154.439 62.1026 154.126 62.1026C153.808 62.1026 153.515 62.1557 153.245 62.2612C152.981 62.3671 152.749 62.5177 152.55 62.7136C152.35 62.9039 152.194 63.1287 152.081 63.388C151.973 63.6472 151.919 63.9303 151.919 64.2368C151.919 64.5437 151.973 64.8267 152.081 65.086C152.194 65.3452 152.35 65.5725 152.55 65.7683C152.749 65.9586 152.981 66.1069 153.245 66.2127C153.515 66.3183 153.808 66.3713 154.126 66.3713Z" fill="black"/>
<path d="M158.434 67.015V61.4609H159.097L161.636 65.6583H161.28L163.786 61.4609H164.449L164.457 67.015H163.681L163.673 62.659H163.859L161.627 66.3406H161.255L159.008 62.659H159.21V67.015H158.434Z" fill="black"/>
<path d="M166.219 67.015V61.4609H171.094V67.015H170.302V61.945L170.496 62.1512H166.817L167.019 61.945V67.015H166.219Z" fill="black"/>
<path d="M172.521 67.0784C172.44 67.0784 172.36 67.0732 172.278 67.0626C172.198 67.0519 172.109 67.0361 172.012 67.015L172.068 66.3089C172.155 66.3299 172.241 66.3406 172.327 66.3406C172.564 66.3406 172.753 66.2479 172.893 66.0627C173.033 65.8776 173.136 65.5973 173.2 65.2218C173.27 64.8463 173.316 64.3729 173.338 63.8016L173.427 61.4609H177.413V67.015H176.621V61.945L176.815 62.1512H173.944L174.122 61.9371L174.057 63.7778C174.041 64.3278 174.004 64.8091 173.944 65.2218C173.885 65.6345 173.796 65.9782 173.677 66.2534C173.559 66.5282 173.405 66.7347 173.217 66.8722C173.033 67.0098 172.802 67.0784 172.521 67.0784Z" fill="black"/>
<path d="M179.913 63.8571H182.824V64.5315H179.913V63.8571ZM179.986 66.3247H183.284V67.015H179.177V61.4609H183.171V62.1512H179.986V66.3247Z" fill="black"/>
<path d="M188.362 67.015L186.308 64.2778L186.963 63.8809L189.284 67.015H188.362ZM184.554 67.015V61.4609H185.346V67.015H184.554ZM185.104 64.5712V63.873H186.939V64.5712H185.104ZM187.036 64.3253L186.292 64.214L188.322 61.4609H189.187L187.036 64.3253Z" fill="black"/>
<path d="M191.214 67.015V61.945L191.416 62.1512H189.281V61.4609H193.947V62.1512H191.812L192.006 61.945V67.015H191.214Z" fill="black"/>
</svg>
