<svg width="164" height="120" viewBox="0 0 164 120" fill="none" xmlns="http://www.w3.org/2000/svg">
<path d="M96.5632 65.9894C96.5632 54.6216 103.564 44.8562 113.533 40.7941L62.725 1.22795C60.6411 -0.409318 57.7075 -0.409318 55.5887 1.22795L33.6326 18.3301V11.3309C33.6326 9.5889 32.1968 8.15726 30.4583 8.15726H24.5522C22.7749 8.15726 21.3779 9.5889 21.3779 11.3309V27.9209L2.63101 42.4973C0.958504 43.7931 0 45.8067 0 47.8902V50.4858C0 52.771 1.84325 54.6488 4.16381 54.6488H14.1019V99.5418C14.1019 101.796 15.9451 103.639 18.1997 103.639H85.3951C85.496 92.7483 90.4824 83.8403 99.4271 78.137C97.6188 74.4823 96.5594 70.3542 96.5594 65.9855L96.5632 65.9894ZM57.1603 51.0018H61.1534C69.4499 51.0018 76.0741 58.1367 75.2553 66.5675C74.6421 72.9536 69.6207 77.7995 63.5089 79.0294V84.6978C63.5089 85.3457 62.9966 85.8578 62.3486 85.8578H55.9612C55.3481 85.8578 54.8009 85.3457 54.8009 84.6978V79.0992C48.5183 78.04 43.6017 72.8528 43.0545 66.4007C42.9847 65.7528 43.5668 65.1708 44.2498 65.1708H50.6681C51.1804 65.1708 51.6926 65.5122 51.7935 66.0593C52.2048 68.6548 54.4556 70.6335 57.1564 70.6335H60.8429C63.5748 70.6335 66.101 68.7906 66.5434 66.0942C67.0906 62.68 64.4596 59.743 61.1495 59.743H57.8044C50.3965 59.743 43.8074 54.35 43.0895 46.9746C42.3405 39.3624 47.6646 32.8056 54.8009 31.6106V26.047C54.8009 25.399 55.3481 24.8869 55.9612 24.8869H62.3486C62.9966 24.8869 63.5089 25.399 63.5089 26.047V31.6106C69.8264 32.6698 74.7081 37.892 75.2902 44.3091C75.3251 44.992 74.7779 45.574 74.0949 45.574H67.6766C67.1294 45.574 66.6521 45.1976 66.5512 44.6855C66.1399 42.0899 63.8891 40.1112 61.1572 40.1112H57.5056C54.7737 40.1112 52.2475 41.9541 51.8013 44.6195C51.2192 48.0337 53.8502 51.0018 57.1642 51.0018H57.1603Z" fill="#CCA626"/>
<rect x="36" y="22" width="42" height="76" fill="#CCA626"/>
<path d="M42.1549 56.6H47.1249V37H60.8449C63.2249 37 65.3949 37.28 67.3549 37.84C69.3616 38.4 71.0649 39.24 72.4649 40.36C73.8649 41.48 74.9382 42.9033 75.6849 44.63C76.4782 46.3567 76.8749 48.3867 76.8749 50.72C76.8749 53.0533 76.4782 55.1067 75.6849 56.88C74.9382 58.6067 73.8416 60.0767 72.3949 61.29C70.9949 62.4567 69.3149 63.3433 67.3549 63.95C65.3949 64.5567 63.2249 64.86 60.8449 64.86H56.2249V69.06H70.7849V76.97H56.2249V86H47.1249V76.97H42.1549V69.06H47.1249V64.86H42.1549V56.6ZM56.2249 45.82V56.6H59.7249C62.0582 56.6 63.8316 56.1567 65.0449 55.27C66.2582 54.3367 66.8649 52.89 66.8649 50.93C66.8649 49.1567 66.3049 47.8733 65.1849 47.08C64.0649 46.24 62.1749 45.82 59.5149 45.82H56.2249Z" fill="#FFF5F5"/>
<path d="M106.796 65.9937C106.796 75.3672 114.394 82.9639 123.769 82.9639C133.145 82.9639 140.739 75.3672 140.739 65.9937C140.739 56.6201 133.141 49.0273 123.769 49.0273C114.398 49.0273 106.796 56.624 106.796 65.9937Z" fill="#F3C733"/>
<path d="M156.782 41.6981C152.719 41.4886 149.358 44.7166 149.358 48.7322V53.0582C149.618 68.1855 146.343 79.0062 139.893 84.3642C139.055 85.0626 138.205 85.7144 137.363 86.3274C133.471 88.9385 128.795 90.4787 123.762 90.4787C117.895 90.4787 112.505 88.3992 108.286 84.9462C101.243 88.1586 95.6592 94.0792 95.6592 104V116.454C95.6592 118.413 97.2463 120 99.2021 120H148.326C150.285 120 151.869 118.413 151.869 116.454V104C151.869 103.379 151.845 102.774 151.803 102.184C151.438 97.1597 152.536 92.1703 155.338 87.9763C160.973 79.5416 163.697 67.7936 163.444 52.9418V49.1318C163.444 45.318 160.588 41.9038 156.782 41.702V41.6981Z" fill="#F3C733"/>
</svg>
