<svg width="98" height="157" viewBox="0 0 98 157" fill="none" xmlns="http://www.w3.org/2000/svg">
<path opacity="0.1" d="M84.7788 3.1452C95.1512 29.7602 102.415 50.4098 85.0256 75.3028C76.7252 87.1845 63.5181 92.0715 49.4139 87.2544C23.7478 78.4886 54.5372 47.6737 69.051 63.6767C95.6582 93.0138 59.7202 129.808 31.8148 139.638C23.6826 142.503 14.3787 145.61 6.05909 147.552C-1.1573 149.237 7.83393 149.599 10.6522 150.041C15.8733 150.86 20.3265 153.013 25.4301 153.813C34.3606 155.214 26.0123 153 21.8918 152.584C10.072 151.389 -0.416022 153.044 8.38671 139.689C10.1582 137.001 18.1096 122.547 18.7911 124.795C20.7232 131.17 26.3174 137.645 27.7655 143.672C29.7478 151.923 33.4413 155.998 25.8772 145.872C23.4091 142.568 21.5822 139.208 19.3194 135.872C15.5903 130.375 19.2133 138.487 19.8927 139.08C21.8663 140.804 23.6125 146.187 20.2869 141.285C19.4308 140.023 16.7831 134.447 17.1085 136.268C18.136 142.015 25.2429 148.549 20.9242 147.171C17.295 146.013 16.3755 143.834 15.9447 140.199C15.798 138.962 18.5476 133.876 18.9174 135.944" stroke="#1C1C1C" stroke-width="5" stroke-linecap="round"/>
</svg>
