<svg width="140" height="48" viewBox="0 0 140 48" fill="none" xmlns="http://www.w3.org/2000/svg">
<path d="M42.2505 9.32957C42.4628 9.47069 42.6716 9.62266 42.8803 9.7674L43.7404 9.12693C44.3055 8.7289 44.8741 8.33449 45.4464 7.95094C44.9057 7.64744 44.3905 7.30013 43.906 6.91244L43.8016 6.81836C43.0493 7.54714 42.2419 8.21615 41.3867 8.81937C41.6818 8.98582 41.9662 9.15588 42.2505 9.32957Z" fill="url(#paint0_linear_471_1561)"/>
<path d="M50.9915 1.19887C50.1638 0.363011 49.426 -0.0241638 48.7494 0.00116543C47.4465 0.0518238 46.3453 1.44855 45.5571 2.35316C44.1679 3.92719 42.955 5.5555 41.0188 6.48182C40.1272 6.89338 39.2085 7.24278 38.2692 7.52756C38.9428 7.69029 39.5978 7.92312 40.2234 8.2223C41.3106 7.60752 42.4485 7.08816 43.6244 6.66998C43.2202 6.33517 42.8577 5.95246 42.5447 5.53017C43.7831 5.77381 44.9734 6.21997 46.0681 6.8509L46.6368 7.1838C46.8419 7.05354 47.0435 6.91604 47.2522 6.78577C48.4439 6.03086 49.6793 5.34817 50.9519 4.74134C49.9592 5.75573 48.9076 6.71026 47.8028 7.59993L47.5617 7.78809L47.6337 7.83513C48.1618 8.19732 48.6503 8.61455 49.0913 9.07987C48.4418 9.05918 47.7996 8.93711 47.1874 8.71803C47.0075 8.66013 46.8275 8.58415 46.6548 8.51178C45.935 9.07626 45.2032 9.62747 44.4594 10.1654C44.2759 10.2993 44.0995 10.4259 43.898 10.5562C43.9411 10.5924 43.9915 10.625 44.0347 10.6648C44.6208 11.1516 45.1422 11.7122 45.5859 12.3329C44.6743 12.0471 43.794 11.6688 42.9586 11.2039C42.0193 11.8408 41.0584 12.445 40.0794 13.0131C40.6112 13.5796 41.0674 14.2134 41.4363 14.8984C40.7401 14.5763 40.072 14.1962 39.4388 13.7622C39.3345 13.6934 39.2373 13.6174 39.1365 13.5487C38.5175 13.9105 37.8913 14.2181 37.2471 14.5293C37.6969 14.0661 38.1612 13.6247 38.6327 13.1941C38.2944 12.9444 37.9633 12.6911 37.6321 12.4269C37.301 12.1628 36.9951 11.8806 36.682 11.5983C35.9113 11.9775 35.1123 12.2957 34.2923 12.55C34.8323 11.9851 35.4133 11.4613 36.0306 10.9832C35.4583 10.4228 34.9379 9.81115 34.4758 9.15586C35.2085 9.40113 35.9103 9.73143 36.5669 10.1401C36.6712 10.2016 36.7648 10.274 36.8692 10.3391C37.5242 9.85423 38.1972 9.40192 38.881 8.9677L39.3561 8.6927C38.9446 8.33024 38.5597 7.93843 38.2044 7.52032C36.8332 7.96177 35.4404 8.34895 34.1124 8.87C32.5856 9.50414 31.1365 10.3128 29.7936 11.2799C25.8323 14.0758 23.6082 18.7436 23.1211 25.2833C23.5203 24.0477 24.1145 22.8846 24.881 21.8386C25.6168 20.8337 26.5059 19.9519 27.5154 19.226C28.7152 18.3804 30.056 17.7578 31.4743 17.3879C34.4974 16.5628 37.6825 16.3855 40.6373 15.3507C43.4121 14.3773 45.9062 12.7526 48.1735 10.8963C50.4409 9.04007 51.8553 6.60123 51.9704 4.28542C52.0244 3.0081 51.6753 1.87553 50.9915 1.19887Z" fill="url(#paint1_linear_471_1561)"/>
<path d="M37.8535 11.0342C38.0479 11.1789 38.2458 11.3237 38.4329 11.472C38.7928 11.7868 39.1527 12.1125 39.5126 12.4526C40.2732 11.7989 41.0482 11.1669 41.8376 10.5565L41.5713 10.3937C41.161 10.1223 40.7579 9.83285 40.362 9.53613C40.0921 9.71706 39.8258 9.89798 39.5522 10.068C38.9932 10.4058 38.427 10.7278 37.8535 11.0342Z" fill="url(#paint2_linear_471_1561)"/>
<path d="M11.8082 30.2803H3.8329L5.82674 29.3613V25.4027H20.0031V20.127H0V47.4572H11.8082C17.1635 47.4572 22.2165 45.6479 22.2165 38.8633C22.2165 32.0787 17.1635 30.2803 11.8082 30.2803ZM11.8442 42.3009H3.8329L5.03856 41.7545C6.62931 39.9452 6.62931 37.7742 5.03856 35.9649L3.8401 35.4186H11.8442C14.1332 35.4186 16.2745 35.9215 16.2745 38.8489C16.2745 41.7762 14.1332 42.3009 11.8442 42.3009Z" fill="#363131"/>
<path d="M39.1377 19.5811C29.5104 19.5811 24.6914 26.3801 24.6914 33.7907C24.6914 41.2013 29.5104 48.0004 39.1377 48.0004C48.7649 48.0004 53.584 41.2013 53.584 33.7907C53.584 26.3801 48.7685 19.5811 39.1377 19.5811ZM40.0194 42.5402L39.1449 44.476L38.2739 42.5402C33.1706 42.1458 30.6297 38.3572 30.6297 33.7907C30.6297 29.2242 33.1706 25.4393 38.2523 25.0413L39.1233 23.1091L39.9978 25.0413C45.0364 25.4393 47.5773 29.2496 47.5773 33.7907C47.5773 38.3319 45.058 42.1458 40.0194 42.5402Z" fill="#363131"/>
<path d="M69.6864 30.2803H61.5635L63.7013 29.3106V25.4027H77.8813V20.127H57.8926V47.4572H69.6864C75.0489 47.4572 80.0946 45.6479 80.0946 38.8633C80.0946 32.0787 75.0489 30.2803 69.6864 30.2803ZM69.7296 42.3009H61.5635L63.0211 41.6351C64.4607 39.8946 64.4607 37.8321 63.0211 36.0916L61.5635 35.433H69.7296C72.0257 35.433 74.1599 35.936 74.1599 38.8633C74.1599 41.7907 72.0257 42.3009 69.7296 42.3009Z" fill="#363131"/>
<path d="M94.3394 20.127H84.0859V47.4572H89.9199V39.4423L87.7605 38.4581H94.3286C100.9 38.4581 106.058 36.3485 106.058 29.2889C106.058 22.2293 100.911 20.127 94.3394 20.127ZM94.6093 33.3271H87.7713L89.1677 32.6794C90.7584 30.5083 90.7584 28.0839 89.1677 25.931L87.7713 25.2833H94.6093C97.6109 25.2833 100.13 26.0648 100.13 29.2997C100.13 32.5346 97.6109 33.3271 94.6093 33.3271Z" fill="#363131"/>
<path d="M120.238 29.1152L113.67 29.0935L115.829 28.1057V20.127H109.984V47.4572H120.238C126.799 47.4572 131.963 45.3476 131.963 38.2808C131.963 31.2139 126.799 29.1441 120.238 29.1152ZM120.504 42.3009H113.666L115.063 41.6495C116.653 39.5002 116.653 37.065 115.063 34.9047L113.666 34.2534H120.504C123.499 34.2534 126.025 35.082 126.025 38.2808C126.025 41.4795 123.499 42.3009 120.504 42.3009Z" fill="#363131"/>
<path d="M139.999 20.127H134.176V47.4535H139.999V20.127Z" fill="#363131"/>
<defs>
<linearGradient id="paint0_linear_471_1561" x1="41.3867" y1="6.81836" x2="45.4464" y2="6.81836" gradientUnits="userSpaceOnUse">
<stop stop-color="#FF9C45"/>
<stop offset="1" stop-color="#FF5D18"/>
</linearGradient>
<linearGradient id="paint1_linear_471_1561" x1="23.1211" y1="0" x2="51.9759" y2="0" gradientUnits="userSpaceOnUse">
<stop stop-color="#FF9C45"/>
<stop offset="1" stop-color="#FF5D18"/>
</linearGradient>
<linearGradient id="paint2_linear_471_1561" x1="37.8535" y1="9.53613" x2="41.8376" y2="9.53613" gradientUnits="userSpaceOnUse">
<stop stop-color="#FF9C45"/>
<stop offset="1" stop-color="#FF5D18"/>
</linearGradient>
</defs>
</svg>
