<svg width="18" height="12" viewBox="0 0 18 12" fill="none" xmlns="http://www.w3.org/2000/svg">
<path fill-rule="evenodd" clip-rule="evenodd" d="M0.843585 6.03683C0.843585 5.77321 1.05448 5.55176 1.3181 5.55176H16.6714C16.935 5.55176 17.1564 5.77321 17.1564 6.03683V10.2231C17.1564 10.4867 16.935 10.6976 16.6714 10.6976H15.775V9.46389C15.775 9.2319 15.5852 9.0421 15.3533 9.0421C15.1213 9.0421 14.9315 9.2319 14.9315 9.46389V10.6976H13.6555V8.47268C13.6555 8.23015 13.4657 8.05089 13.2337 8.05089C13.0018 8.05089 12.812 8.23015 12.812 8.47268V10.6976H11.536V9.46389C11.536 9.2319 11.3462 9.0421 11.1142 9.0421C10.8822 9.0421 10.6924 9.2319 10.6924 9.46389V10.6976H9.41652V8.47268C9.41652 8.23015 9.22671 8.05089 8.99473 8.05089C8.76274 8.05089 8.57293 8.23015 8.57293 8.47268V10.6976H7.29701V9.46389C7.29701 9.2319 7.11775 9.0421 6.87522 9.0421C6.64323 9.0421 6.45343 9.2319 6.45343 9.46389V10.6976H5.18805V8.47268C5.18805 8.23015 4.99824 8.05089 4.76626 8.05089C4.52373 8.05089 4.34446 8.23015 4.34446 8.47268V10.6976H3.06854V9.46389C3.06854 9.2319 2.87873 9.0421 2.64675 9.0421C2.41476 9.0421 2.22496 9.2319 2.22496 9.46389V10.6976H1.3181C1.05448 10.6976 0.843585 10.4762 0.843585 10.2231V6.03683ZM3.57469 3.79078C3.77504 3.91732 4.02812 3.86459 4.15466 3.66424C4.28119 3.47444 4.22847 3.21081 4.02812 3.08428L3.2478 2.57813H14.7522L13.9613 3.08428C13.7715 3.21081 13.7188 3.47444 13.8348 3.66424C13.9613 3.86459 14.225 3.91732 14.4253 3.79078L16.3866 2.5254C16.5343 2.45159 16.6081 2.30396 16.6081 2.14579C16.5975 1.99816 16.5237 1.86108 16.3866 1.78726L14.4253 0.521887C14.225 0.395349 13.9613 0.458618 13.8348 0.648425C13.7188 0.848776 13.7715 1.10185 13.9613 1.22839L14.7522 1.73454H3.2478L4.02812 1.22839C4.22847 1.10185 4.28119 0.848776 4.15466 0.648425C4.02812 0.458618 3.77504 0.395349 3.57469 0.521887L1.61336 1.78726C1.47627 1.86108 1.40246 1.99816 1.39192 2.14579C1.39192 2.30396 1.46573 2.44104 1.60281 2.5254L3.57469 3.79078ZM18 10.2231V6.03683C18 5.30923 17.3989 4.70818 16.6714 4.70818H1.3181C0.59051 4.70818 0 5.30923 0 6.03683V10.2231C0 10.9507 0.59051 11.5412 1.3181 11.5412H16.6714C17.3989 11.5412 18 10.9402 18 10.2231Z" fill="black"/>
<rect x="0.0820312" y="5.09961" width="17.1" height="6.3" rx="0.818182" fill="black"/>
</svg>
