<svg width="12" height="18" viewBox="0 0 12 18" fill="none" xmlns="http://www.w3.org/2000/svg">
<path fill-rule="evenodd" clip-rule="evenodd" d="M5.58077 17.1545C5.31715 17.1545 5.09571 16.9436 5.09571 16.6799L5.09571 1.32669C5.09571 1.06307 5.31715 0.841633 5.58077 0.841633L9.76706 0.841632C10.0307 0.841632 10.2416 1.06307 10.2416 1.32669L10.2416 2.223L9.00784 2.223C8.77585 2.223 8.58604 2.41281 8.58604 2.6448C8.58604 2.87678 8.77585 3.06659 9.00784 3.06659L10.2416 3.06659L10.2416 4.34251L8.01662 4.34251C7.77409 4.34251 7.59483 4.53232 7.59483 4.7643C7.59483 4.99629 7.77409 5.1861 8.01662 5.1861L10.2416 5.1861L10.2416 6.46202L9.00784 6.46202C8.77585 6.46202 8.58604 6.65183 8.58604 6.88381C8.58604 7.1158 8.77585 7.3056 9.00784 7.3056L10.2416 7.3056L10.2416 8.58153L8.01662 8.58153C7.77409 8.58153 7.59483 8.77133 7.59483 9.00332C7.59483 9.23531 7.77409 9.42511 8.01662 9.42511L10.2416 9.42511L10.2416 10.701L9.00784 10.701C8.77585 10.701 8.58604 10.8803 8.58604 11.1228C8.58604 11.3548 8.77585 11.5446 9.00784 11.5446L10.2416 11.5446L10.2416 12.81L8.01662 12.81C7.77409 12.81 7.59483 12.9998 7.59483 13.2318C7.59483 13.4743 7.77409 13.6536 8.01662 13.6536L10.2416 13.6536L10.2416 14.9295L9.00784 14.9295C8.77585 14.9295 8.58604 15.1193 8.58604 15.3513C8.58604 15.5833 8.77585 15.7731 9.00784 15.7731L10.2416 15.7731L10.2416 16.6799C10.2416 16.9436 10.0201 17.1545 9.76706 17.1545L5.58077 17.1545ZM3.33472 14.4234C3.46126 14.223 3.40854 13.9699 3.20819 13.8434C3.01838 13.7169 2.75476 13.7696 2.62822 13.9699L2.12207 14.7502L2.12207 3.24585L2.62822 4.03671C2.75476 4.22652 3.01838 4.27924 3.20819 4.16325C3.40854 4.03671 3.46126 3.77309 3.33472 3.57274L2.06935 1.6114C1.99553 1.46378 1.84791 1.38996 1.68973 1.38996C1.54211 1.40051 1.40502 1.47432 1.33121 1.6114L0.0658318 3.57274C-0.060706 3.77309 0.00256294 4.03671 0.19237 4.16325C0.392721 4.27924 0.645797 4.22652 0.772335 4.03671L1.27849 3.24585L1.27849 14.7502L0.772335 13.9699C0.645797 13.7696 0.392722 13.7169 0.19237 13.8434C0.00256337 13.9699 -0.0607055 14.223 0.0658323 14.4234L1.33121 16.3847C1.40502 16.5218 1.54211 16.5956 1.68973 16.6061C1.84791 16.6061 1.98499 16.5323 2.06935 16.3952L3.33472 14.4234ZM9.76706 -0.00195355L5.58077 -0.00195337C4.85318 -0.00195334 4.25212 0.599102 4.25212 1.32669L4.25212 16.6799C4.25212 17.4075 4.85318 17.998 5.58077 17.998L9.76706 17.998C10.4947 17.998 11.0852 17.4075 11.0852 16.6799L11.0852 1.32669C11.0852 0.599102 10.4841 -0.00195358 9.76706 -0.00195355Z" fill="black"/>
<rect x="4.64453" y="17.916" width="17.1" height="6.3" rx="0.818182" transform="rotate(-90 4.64453 17.916)" fill="black"/>
</svg>
