<svg width="12" height="12" viewBox="0 0 12 12" fill="none" xmlns="http://www.w3.org/2000/svg">
<g clip-path="url(#clip0_471_674)">
<path d="M11.1215 3.90999L7.66855 0.661377C7.21818 0.236644 6.62209 0 6.00257 0C5.38301 0 4.78692 0.236644 4.33654 0.661377L0.883649 3.90999C0.605095 4.17208 0.383045 4.48818 0.231107 4.83897C0.0791684 5.18972 0.000516797 5.56775 0 5.94991V9.93456C0.000442969 10.4819 0.21831 11.0068 0.605784 11.3939C0.993259 11.7812 1.51874 11.9991 2.06697 12H9.93815C10.4856 11.9982 11.01 11.7798 11.3965 11.3927C11.783 11.0055 12 10.4812 12 9.93456V5.94991C11.9992 5.56826 11.921 5.19071 11.77 4.8401C11.619 4.48949 11.3984 4.17306 11.1215 3.90999ZM8.94041 7.10419C8.94066 7.25155 8.91174 7.39758 8.85534 7.53379C8.79893 7.67005 8.71615 7.79377 8.6118 7.89806C8.50741 8.00228 8.38345 8.08489 8.247 8.14118C8.11056 8.19751 7.96433 8.22637 7.81668 8.22613H6.90067C6.75306 8.22637 6.60685 8.19751 6.4704 8.14118C6.33396 8.08489 6.21 8.00228 6.10559 7.89806C6.00119 7.79379 5.91846 7.67005 5.86205 7.53379C5.80565 7.3976 5.77673 7.25155 5.77698 7.10419V6.1896C5.7774 5.89217 5.89596 5.60707 6.10655 5.39676C6.3172 5.18645 6.60275 5.0681 6.90064 5.06766H7.81665C8.11455 5.0681 8.40009 5.18645 8.61075 5.39676C8.8214 5.60707 8.9399 5.8922 8.94039 6.1896V7.10419H8.94041Z" fill="white"/>
</g>
<defs>
<clipPath id="clip0_471_674">
<rect width="12" height="12" fill="white"/>
</clipPath>
</defs>
</svg>
