<svg width="179" height="95" viewBox="0 0 179 95" fill="none" xmlns="http://www.w3.org/2000/svg">
<path d="M7.11328 65.0211C11.0859 63.2082 20.5146 59.3296 26.4491 58.32C32.3837 57.3104 59.2838 57.659 71.9919 57.9595C73.2485 58.1298 77.2424 58.9632 83.1648 60.9343C89.087 62.9057 94.4289 66.093 96.3594 67.4402L89.6405 65.7725L94.1703 68.462C93.0202 68.2467 90.2456 67.8459 88.3484 67.9662C86.4512 68.0863 85.4297 68.3468 85.1561 68.462C86.2252 68.9729 88.558 70.3011 89.3365 71.5269C90.1147 72.7531 90.6943 73.4202 90.8869 73.6006L72.3263 73.9912L56.9122 75.8092L51.9719 77.6573L13.0265 74.472L9.13503 74.9227C11.3037 73.896 16.0181 71.524 17.5261 70.2498C19.034 68.9758 20.617 67.1148 21.22 66.3434C19.4009 66.5238 15.5074 66.8302 14.4858 66.6139C13.209 66.3434 12.008 66.2533 11.2936 66.4335L10.8528 66.6139L17.5261 63.068C15.5145 63.308 11.0929 63.8934 9.49987 64.3149C7.90678 64.7367 7.24504 64.9616 7.11328 65.0211Z" fill="#3E6B94"/>
<path d="M58.249 78.6483C60.1746 77.9272 65.6854 76.5779 72.3253 76.9506C78.9652 77.3231 83.5031 78.2377 84.9422 78.6483C83.0724 78.4379 77.8647 78.2456 71.9909 79.1592C66.1171 80.0727 63.4427 80.8321 62.8398 81.0974L58.249 78.6483Z" fill="#3E6B94"/>
<path d="M10.6094 80.3459C14.06 80.0856 23.6155 79.9733 34.232 81.6081C44.8486 83.2429 55.8429 86.8468 60.0132 88.4445C57.956 85.6898 50.7253 79.9282 38.2603 78.9186C22.6791 77.6566 22.4207 78.1372 18.4532 78.6481C15.2792 79.0567 11.9015 79.9504 10.6094 80.3459Z" fill="#3E6B94"/>
<path d="M54.4336 6.4082C60.8636 7.1895 75.925 11.8052 84.7295 24.0175C91.2958 33.1253 93.6775 40.565 92.7405 51.8138C92.3829 56.1073 91.1392 60.1077 90.3388 62.5868C88.5653 61.6401 84.1306 59.4886 80.5795 58.4548C77.0286 57.4211 75.4923 57.0024 75.168 56.9224V45.9841C75.8469 46.1093 77.3539 46.4198 77.9498 46.6603C78.6947 46.9608 79.1809 47.3814 79.9868 46.9156C80.7924 46.4499 84.6838 42.9341 85.0792 42.4832C85.4743 42.0326 86.8576 41.0708 85.3679 39.1326C84.176 37.5821 64.2485 16.6703 54.4336 6.4082Z" fill="#F3C733"/>
<path d="M9.40828 62.4515C12.2661 61.2244 18.7418 58.5901 21.7821 57.869C24.8223 57.1477 26.5451 56.7771 27.0264 56.6819V46.8856H20.6116C20.1859 46.8856 19.3498 46.5399 18.4074 45.2779C17.4649 44.0159 14.8503 40.6654 14.8503 40.1693C14.8503 39.6736 14.7287 39.3731 16.4312 37.6753C17.7933 36.3169 36.9732 16.2646 46.3927 6.4082C42.1668 6.71372 31.3283 9.24795 21.7821 16.9408C9.84912 26.5567 6.59607 40.7855 7.21931 51.6185C7.54773 56.7149 8.81547 60.964 9.40828 62.4515Z" fill="#F3C733"/>
<path d="M27.0257 46.886V56.6824L75.168 56.9228V45.9846C75.8469 46.1098 77.3539 46.4203 77.9498 46.6607C78.6946 46.9612 79.1809 47.3818 79.9867 46.9161C80.7923 46.4503 84.6838 42.9345 85.0792 42.4837C85.4743 42.033 86.8575 41.0713 85.3679 39.1331C84.176 37.5826 64.2484 16.6707 54.4336 6.40866C54.4336 6.40866 52.0042 6.15381 50.4421 6.15235C48.8571 6.15089 46.3919 6.40866 46.3919 6.40866C36.9724 16.2651 17.7925 36.3174 16.4305 37.6758C14.7279 39.3735 14.8496 39.674 14.8496 40.1698C14.8496 40.6658 17.4641 44.0164 18.4066 45.2784C19.3491 46.5404 20.1852 46.886 20.6108 46.886H27.0257Z" fill="#F3C733"/>
<path d="M51.1295 64.1647L50.8203 67.6168L55.6225 69.1451L77.1779 65.0098L74.2674 62.8521L69.9381 61.0004L69.2834 60.479L69.6472 59.4901C69.6956 59.0346 69.7926 58.0804 69.7926 57.9078C69.7926 57.692 69.0288 55.6784 69.0288 55.3728C69.0288 55.1282 69.441 52.7177 69.6472 51.5431L69.2834 46.4189V41.6723L69.7926 39.9465L69.2834 38.2204L62.6803 37.1056L53.7308 36.5303L53.2576 37.8609L52.9304 39.6768L53.4942 41.6723L53.6579 46.5268L53.2576 49.1519L52.9304 51.1115L53.2576 52.3882V53.7725V59.2924V63.1939L51.1295 64.1647Z" fill="white"/>
<path d="M22.7521 39.1552L44.8896 37.1054L63.4073 21.6791L60.7697 21.0498L36.3584 26.8573L22.2246 37.6988L22.7521 39.1552Z" fill="white"/>
<path d="M45.8721 40.5771V65.7841L50.1105 65.5505L51.8385 63.4469H53.4756L53.0027 60.8218L53.4756 58.3947V53.2346C53.3181 52.773 53.0027 51.8105 53.0027 51.6523V48.7936C53.3119 48.5478 53.9305 48.0098 53.9305 47.8228V42.4648L53.2027 39.1926L53.9305 37.1968L54.567 36.3878L69.1011 37.7362L69.6103 38.8511V40.1275V42.2311L69.1011 45.054L69.374 49.1712L69.6103 51.4546L69.374 53.684V57.19L69.6103 58.7362L69.1011 60.4803L70.9745 61.3254L74.2488 62.0086V36.3878L63.2621 23.083L45.8721 37.952V40.5771Z" fill="#F3687B"/>
<path d="M24.2803 39.0128L45.0353 37.2328L63.9531 22.957L74.8855 37.2328L74.2671 42.6985L62.4797 28.171L45.9084 42.3389L45.3991 66.5752L24.2803 59.8868V39.0128Z" fill="#ED0827"/>
<path d="M40.5254 35.9196H41.1621L48.7656 27.667L40.5254 35.9196Z" fill="#061E5E"/>
<path d="M34.9403 36.4046L33.7578 36.5664L42.9985 28.7451L34.9403 36.4046Z" fill="#061E5E"/>
<path d="M27.4639 37.2331L28.4823 37.1252L34.0124 32.3066L27.4639 37.2331Z" fill="#061E5E"/>
<path d="M35.9404 30.796L40.9427 26.5889H40.2514L35.9404 30.796Z" fill="#061E5E"/>
<path d="M44.4531 28.7464L47.7274 24.917L48.5275 24.7012L44.4531 28.7464Z" fill="#061E5E"/>
<path d="M50.1289 26.3912L53.2757 23.6402L54.3127 23.3525L50.1289 26.3912Z" fill="#061E5E"/>
<path d="M41.3789 38.3823L41.5244 64.3624H41.8701C42.0215 60.8505 42.2956 52.942 42.1793 49.4035C42.0628 45.8652 41.6943 40.3659 41.5244 38.0586L41.3789 38.3823Z" fill="#061E5E"/>
<path d="M38.0332 63.2298V53.6827V38.2383H38.4153V53.6827V63.6074L38.0332 63.2298Z" fill="#061E5E"/>
<path d="M34.7764 62.4763V53.6842V38.7793L34.9401 38.5996L35.2856 63.2313L34.7764 62.4763Z" fill="#061E5E"/>
<path d="M32.3925 61.7201L31.9742 38.7783L31.7559 38.9402L31.9742 61.7201H32.3925Z" fill="#061E5E"/>
<path d="M29.7193 60.7857L29.5373 39.1025H29.2646V61.0015L29.7193 60.7857Z" fill="#061E5E"/>
<path d="M27.4643 60.3898L27.046 39.2998H26.4639L26.7911 60.3898H27.4643Z" fill="#061E5E"/>
<path d="M49.8564 35.309V63.6085H50.2385V47.1572C50.2385 44.6259 50.4326 37.6401 50.5294 34.4639L49.8564 35.309Z" fill="#061E5E"/>
<path d="M54.4951 31.4252V36.2258H55.0046L54.7497 31.0117L54.4951 31.4252Z" fill="#061E5E"/>
<path d="M56.9141 29.0508C56.9565 30.3333 57.0489 33.1392 57.0778 34.103C57.1069 35.0667 57.0899 36.1466 57.0778 36.5662H57.8236C57.7449 35.8708 57.5618 34.0454 57.4599 32.3049C57.3581 30.5644 57.3327 29.3264 57.3327 28.9248L56.9141 29.0508Z" fill="#061E5E"/>
<path d="M59.7334 26.5889V36.5676H60.2792L59.9334 26.5889H59.7334Z" fill="#061E5E"/>
<path d="M62.2256 24.7006V36.8906H62.7165V24.377L62.2256 24.7006Z" fill="#061E5E"/>
<path d="M64.79 36.8901L65.0447 25.6709L65.5541 26.0485L65.0447 37.07L64.79 36.8901Z" fill="#061E5E"/>
<path d="M67.3184 37.0698L67.9005 28.7451L68.1005 29.2487C68.0338 30.4472 67.9005 33.053 67.9005 33.8874C67.9005 34.7215 67.7671 36.5364 67.7004 37.3395L67.3184 37.0698Z" fill="#061E5E"/>
<path d="M70.957 33.3125C71.0299 35.9015 71.1754 41.4751 71.1754 43.0573C71.1754 44.9567 71.3433 49.178 71.4208 51.134L71.43 51.3639C71.4883 52.831 71.4542 58.5437 71.43 61.2166L71.8483 61.5403V50.1234C71.8483 47.1746 71.7029 37.9273 71.63 33.6721L70.957 33.3125Z" fill="#061E5E"/>
<path d="M59.4424 61.5399V53.9883L59.715 61.5399H59.4424Z" fill="#061E5E"/>
<path d="M57.4414 55.4453V61.8281L57.8235 61.5406L57.4414 55.4453Z" fill="#061E5E"/>
<path d="M59.5148 38.4912H59.7331L59.333 45.1254L59.5148 38.4912Z" fill="#061E5E"/>
<path d="M59.9336 51.3643V53.342L60.0791 51.3643H59.9336Z" fill="#061E5E"/>
<path d="M55.8765 52.5859L55.7674 55.7144L55.6582 52.5859H55.8765Z" fill="#061E5E"/>
<path d="M58.5139 54.3135V56.4889L58.3867 54.3135H58.5139Z" fill="#061E5E"/>
<path d="M57.078 41.4932H57.2963L56.8779 46.7792L57.078 41.4932Z" fill="#061E5E"/>
<path d="M58.5149 43.4893L58.1328 49.0987L58.3877 48.9908L58.5149 43.4893Z" fill="#061E5E"/>
<path d="M67.0645 57.387V53.2158L67.2099 57.387H67.0645Z" fill="#061E5E"/>
<path d="M65.0635 54.6729L64.4814 60.7679H64.7361L65.0635 54.6729Z" fill="#061E5E"/>
<path d="M66.9544 41.2598H67.1727L66.627 46.9051L66.9544 41.2598Z" fill="#061E5E"/>
<path d="M67.6826 46.582V48.56L67.8283 46.582H67.6826Z" fill="#061E5E"/>
<path d="M63.4986 51.8135L63.3894 57.2433L63.2803 51.8135H63.4986Z" fill="#061E5E"/>
<path d="M66.1366 53.54L65.8271 57.7293L66.0092 53.54H66.1366Z" fill="#061E5E"/>
<path d="M64.244 39.623H64.4623L64.0439 44.9091L64.244 39.623Z" fill="#061E5E"/>
<path d="M65.3904 44.46L65.1357 48.6671L65.3904 48.5594V44.46Z" fill="#061E5E"/>
<path d="M30.0467 42.9677C30.1193 42.9677 35.2551 42.5361 37.8137 42.3203L37.5954 53.108L29.9375 52.4247L30.0467 42.9677Z" fill="#F3C733"/>
<path d="M37.305 43.4347L34.722 43.6505V51.1837L35.7953 48.6665L37.305 52.4423V53.4312L33.9216 52.7121L33.7578 43.0751L36.2862 42.5537L37.5233 42.8232L37.305 43.4347Z" fill="#CEA210"/>
<path d="M33.034 44.0372L30.7925 44.2244V50.7615L31.6295 48.6305L33.034 51.8536V52.7119L30.0981 52.0877L29.9561 43.725L32.1501 43.2727L33.4486 43.1289L33.034 44.0372Z" fill="#CEA210"/>
<path d="M36.9235 44.0283L35.6318 44.1723V44.8195L37.0143 45.7544L36.9235 44.0283Z" fill="white"/>
<path d="M32.7303 44.7158L31.9022 44.7463L31.8711 45.1579L32.7046 45.8175L32.7303 44.7158Z" fill="white"/>
<path fill-rule="evenodd" clip-rule="evenodd" d="M36.4135 26.3913L63.8081 19.541C63.8081 19.541 75.1405 33.7449 79.0149 38.4915C79.3597 38.9135 79.1241 39.7315 78.5057 39.7859C76.8686 39.9297 74.7402 40.0195 74.7402 40.0195V61.7208C74.7402 61.7208 75.3406 62.0445 75.3406 62.4939V62.9435C75.3406 62.9435 76.9777 63.285 77.7418 63.5008C78.1718 63.6223 78.1419 64.0942 78.1419 64.5616V65.2446C78.1419 65.6352 77.9137 65.9765 77.5235 66.0358C69.7379 67.2226 63.8807 68.3372 56.6409 69.6497C56.066 69.754 55.7042 69.7066 55.1495 69.5238C53.4032 68.9484 50.4927 68.0135 50.4927 68.0135C50.4927 68.0135 49.7106 67.672 48.801 67.8697C48.0594 68.0311 47.6551 68.1036 46.891 68.2293C46.2909 68.3282 44.6797 67.5089 43.8896 67.2045C35.9589 64.1481 23.7167 60.3904 23.7167 60.3904V39.9656C23.7167 39.9656 22.9345 40.0376 22.4798 40.0376C22.2129 40.0376 22.0554 39.9312 21.8613 39.7498C21.5339 39.4442 21.3884 39.2823 21.061 38.8869C20.8154 38.5903 20.9005 38.1514 21.2065 37.9161C25.3174 34.7516 36.4135 26.3913 36.4135 26.3913ZM60.6247 21.9323L36.941 27.5598L23.0073 38.3836L44.4354 36.4237L60.6247 21.9323ZM45.1267 38.0777L24.9173 39.7498V59.1677L45.1267 65.083V38.0777ZM63.4443 24.3595L46.4726 38.5273L46.5455 65.083L49.5286 64.6515V64.2738C49.5286 63.7524 49.8143 63.3033 50.329 63.213C51.0156 63.0926 51.9427 62.9486 53.0212 62.7907C53.5193 62.7177 54.0498 62.642 54.6037 62.5641C56.6992 62.27 59.1316 61.948 61.4251 61.6517C61.8618 61.5953 62.2932 61.5396 62.7165 61.4855C65.1639 61.1723 67.3337 60.9023 68.592 60.7468C69.3159 60.6575 69.738 60.606 69.738 60.606L69.7925 60.6165L73.5943 61.3431V36.9092L63.4443 24.3595ZM69.5925 61.7208L51.857 64.3637L55.7316 65.6584L73.758 62.6738L69.5925 61.7208ZM55.4404 66.845L51.857 65.4426L51.7478 66.845L55.4404 68.0135V66.845ZM74.1764 63.8064L56.8412 66.845V68.0135L76.5594 64.4357L74.1764 63.8064Z" fill="#061E5E"/>
<path fill-rule="evenodd" clip-rule="evenodd" d="M28.6457 42.1947L38.8506 41.1338V42.4641L38.4139 42.5901V52.7484L38.8506 52.9462V54.4206L28.5186 53.1981L28.6457 51.9573H29.0095V43.6329L28.6457 43.2013V42.1947ZM34.1392 52.1372L34.2301 43.2013L37.286 42.8777V52.4968L34.1392 52.1372ZM32.9205 43.3451V51.9573L30.5375 51.8135V43.5609L32.9205 43.3451Z" fill="#061E5E"/>
<path fill-rule="evenodd" clip-rule="evenodd" d="M61.4252 37.6995V61.6509C61.8619 61.5945 62.2933 61.5389 62.7166 61.4847V37.6995L68.5921 38.3108V39.066C68.5921 39.066 66.9187 39.066 65.9363 39.3536C65.4663 39.4913 65.4661 40.4579 65.9363 40.5941C66.9913 40.8997 68.5921 41.3313 68.5921 41.3313V49.0625C68.5921 49.0625 65.7362 49.1343 64.6084 49.458C63.9391 49.6501 64.03 51.0276 64.6995 51.2199C65.6999 51.5077 68.5921 51.9032 68.5921 51.9032V57.4589C68.5921 57.4589 67.3916 57.6386 66.8459 57.8724C66.383 58.0707 66.3502 59.0564 66.8459 59.1489C67.5188 59.2748 68.5921 59.5446 68.5921 59.5446V60.746C69.316 60.6567 69.7381 60.6052 69.7381 60.6052L69.7926 60.6157V60.0479C69.7926 60.0479 70.2293 59.8035 70.2293 59.5446V57.1711C70.2293 56.9222 69.7381 56.7576 69.7381 56.7576L69.7926 52.2449C69.7926 52.2449 70.3019 52.0723 70.3019 51.8133V49.2244C70.3019 48.9095 69.7926 48.5951 69.7926 48.5951V41.9247C69.7926 41.9247 70.211 41.6137 70.211 41.3313V38.994C70.211 38.7607 69.7926 38.5624 69.7926 38.5624V37.8074C69.7926 37.3939 69.3898 37.1708 68.9742 37.1242C63.3716 36.4949 57.3506 35.8837 53.8217 35.8116C53.4342 35.8038 53.1667 36.1656 53.1667 36.5488V37.196C53.1667 37.196 52.5666 37.4747 52.5666 37.8074V40.6661C52.5666 40.9839 53.1667 41.2234 53.1667 41.2234V48.2714C53.1667 48.2714 52.4209 48.6402 52.4209 49.0625V52.2808C52.4209 52.6289 53.0213 52.946 53.0213 52.946V58.6275C53.0213 58.6275 52.4209 58.9319 52.4209 59.2748V61.72C52.4209 62.0332 53.0213 62.2595 53.0213 62.2595V62.7899C53.5194 62.7169 54.0499 62.6412 54.6038 62.5634V61.9897C54.6038 61.9897 55.4526 61.5848 56.0044 61.3424C57.3143 60.767 57.0414 59.3646 56.0044 59.059C55.506 58.9121 54.6038 58.7353 54.6038 58.7353L54.6767 52.065C54.6767 52.065 57.3459 51.5905 59.0423 51.2199C60.6065 50.8784 60.261 49.6018 59.0423 49.458C57.6852 49.2978 54.7676 49.0625 54.7676 49.0625V40.5941C54.7676 40.5941 56.8048 40.3424 57.9327 40.2165C58.4128 40.163 58.3898 39.148 57.9327 38.994C56.3318 38.4545 54.7676 38.0769 54.7676 38.0769V37.0522L61.4252 37.6995ZM53.5671 61.2345L53.6034 59.4547L54.04 59.4725C54.04 59.4725 54.1126 59.8682 54.3675 59.8682C54.7587 59.8682 54.8584 59.8682 55.3679 59.9222C55.5897 59.9456 55.8772 60.3716 55.2768 60.4795C54.8886 60.5493 54.2946 60.7131 54.2946 60.7131L54.0217 61.2345H53.5671ZM53.4579 51.8853V49.404L54.04 49.3323L54.1855 49.9616C54.1855 49.9616 56.9505 49.9974 58.4056 50.1593C58.6466 50.1861 58.6995 50.7324 58.4602 50.7705C57.3323 50.9504 54.1126 51.2739 54.1126 51.2739L54.04 51.8492L53.4579 51.8853ZM53.6762 40.2165V38.1489H54.2218L54.6221 38.6703C54.6221 38.6703 56.6593 39.0299 57.3506 39.3355C57.5126 39.4073 57.5269 39.7642 57.3506 39.7852C56.441 39.893 54.6221 39.6951 54.6221 39.6951L54.2218 40.2885L53.6762 40.2165ZM69.538 40.9537V39.2457H68.9196L68.7193 39.6951C68.7193 39.6951 67.0822 39.4974 66.5912 39.6951C66.3922 39.7754 66.3075 40.1938 66.5184 40.2345C67.3551 40.3964 68.7193 40.4862 68.7193 40.4862L68.9196 40.9178L69.538 40.9537ZM69.2651 51.4896V49.3323H68.8468L68.5921 49.9435C68.5921 49.9435 66.3912 49.9435 65.3179 50.1593C65.123 50.1983 65.1262 50.6101 65.3179 50.6626C66.1729 50.8965 68.7193 50.9324 68.7193 50.9324L68.8468 51.4896H69.2651ZM69.2834 59.0231V57.7826H68.865L68.5921 58.0343C68.5921 58.0343 67.828 58.0882 67.3551 58.2501C67.1588 58.3172 67.2215 58.7458 67.428 58.7715C67.8646 58.8254 68.5558 58.7715 68.5558 58.7715L68.865 59.113L69.2834 59.0231Z" fill="#061E5E"/>
<path d="M109.936 52.5242C108.259 52.5242 106.696 52.2581 105.247 51.7262C103.819 51.1738 102.577 50.3963 101.521 49.3938C100.466 48.3912 99.6377 47.2147 99.0373 45.8643C98.4577 44.5142 98.168 43.0307 98.168 41.4143C98.168 39.7981 98.4577 38.3147 99.0373 36.9643C99.6377 35.6139 100.466 34.4376 101.521 33.4351C102.598 32.4325 103.85 31.6653 105.278 31.1334C106.707 30.581 108.269 30.3047 109.967 30.3047C111.851 30.3047 113.548 30.632 115.059 31.2867C116.591 31.9209 117.874 32.8622 118.909 34.1103L115.68 37.0563C114.935 36.2176 114.107 35.5937 113.196 35.1843C112.285 34.7547 111.292 34.5399 110.215 34.5399C109.201 34.5399 108.269 34.7037 107.421 35.031C106.572 35.3583 105.837 35.8287 105.216 36.4427C104.595 37.0563 104.109 37.7828 103.757 38.6215C103.426 39.4605 103.26 40.3915 103.26 41.4143C103.26 42.4373 103.426 43.3683 103.757 44.2071C104.109 45.0461 104.595 45.7723 105.216 46.3862C105.837 46.9999 106.572 47.4705 107.421 47.7978C108.269 48.1252 109.201 48.289 110.215 48.289C111.292 48.289 112.285 48.0844 113.196 47.675C114.107 47.2454 114.935 46.601 115.68 45.7418L118.909 48.6878C117.874 49.9359 116.591 50.8872 115.059 51.5421C113.548 52.1968 111.84 52.5242 109.936 52.5242Z" fill="black"/>
<path d="M122.188 52.1556V30.6729H126.348L135.601 45.8336H133.396L142.494 30.6729H146.655L146.686 52.1556H141.966L141.935 37.8236H142.835L135.539 49.8845H133.303L125.851 37.8236H126.907V52.1556H122.188Z" fill="black"/>
<path d="M166.151 52.1556L159.382 41.8132L163.45 39.3888L171.864 52.1556H166.151ZM152.023 52.1556V30.6729H157.022V52.1556H152.023ZM155.563 43.5012V39.358H163.139V43.5012H155.563ZM163.915 41.9665L159.289 41.4141L166.337 30.6729H171.647L163.915 41.9665Z" fill="black"/>
<path d="M132.783 59.8159L130.963 57.3727L131.543 57.0185L133.6 59.8159H132.783ZM129.408 59.8159V54.8584H130.11V59.8159H129.408ZM129.895 57.6346V57.0114H131.522V57.6346H129.895ZM131.608 57.4151L130.949 57.3158L132.747 54.8584H133.514L131.608 57.4151Z" fill="black"/>
<path d="M136.577 59.8735C136.195 59.8735 135.839 59.8098 135.509 59.6823C135.185 59.5547 134.903 59.3777 134.664 59.1512C134.425 58.9198 134.239 58.6505 134.105 58.3437C133.971 58.0369 133.904 57.7017 133.904 57.338C133.904 56.9745 133.971 56.6394 134.105 56.3325C134.239 56.0254 134.425 55.7589 134.664 55.5321C134.903 55.3009 135.185 55.1215 135.509 54.9939C135.834 54.8664 136.19 54.8027 136.577 54.8027C136.959 54.8027 137.31 54.8664 137.63 54.9939C137.955 55.1166 138.237 55.2939 138.476 55.525C138.719 55.7518 138.906 56.0184 139.035 56.3254C139.168 56.6323 139.235 56.9699 139.235 57.338C139.235 57.7063 139.168 58.0439 139.035 58.3508C138.906 58.6576 138.719 58.9269 138.476 59.1583C138.237 59.3848 137.955 59.5618 137.63 59.6894C137.31 59.8122 136.959 59.8735 136.577 59.8735ZM136.577 59.2432C136.854 59.2432 137.11 59.1959 137.344 59.1016C137.582 59.0072 137.788 58.8749 137.96 58.705C138.137 58.5302 138.273 58.3273 138.368 58.0959C138.468 57.8645 138.519 57.6119 138.519 57.338C138.519 57.0643 138.468 56.8117 138.368 56.5803C138.273 56.3489 138.137 56.1482 137.96 55.9783C137.788 55.8036 137.582 55.6691 137.344 55.5746C137.11 55.4804 136.854 55.433 136.577 55.433C136.295 55.433 136.035 55.4804 135.796 55.5746C135.562 55.6691 135.356 55.8036 135.18 55.9783C135.003 56.1482 134.865 56.3489 134.764 56.5803C134.669 56.8117 134.621 57.0643 134.621 57.338C134.621 57.6119 134.669 57.8645 134.764 58.0959C134.865 58.3273 135.003 58.5302 135.18 58.705C135.356 58.8749 135.562 59.0072 135.796 59.1016C136.035 59.1959 136.295 59.2432 136.577 59.2432Z" fill="black"/>
<path d="M140.394 59.8159V54.8584H140.981L143.231 58.6049H142.916L145.137 54.8584H145.724L145.731 59.8159H145.044L145.036 55.9278H145.201L143.224 59.2139H142.894L140.902 55.9278H141.081V59.8159H140.394Z" fill="black"/>
<path d="M147.293 59.8159V54.8584H151.613V59.8159H150.911V55.2905L151.083 55.4745H147.823L148.002 55.2905V59.8159H147.293Z" fill="black"/>
<path d="M152.878 59.8725C152.807 59.8725 152.735 59.8679 152.663 59.8584C152.591 59.8488 152.513 59.8347 152.427 59.8159L152.477 59.1856C152.553 59.2044 152.63 59.2139 152.706 59.2139C152.916 59.2139 153.084 59.1312 153.208 58.9659C153.332 58.8007 153.423 58.5504 153.48 58.2153C153.542 57.8801 153.583 57.4576 153.602 56.9477L153.681 54.8584H157.213V59.8159H156.511V55.2905L156.683 55.4745H154.139L154.297 55.2834L154.239 56.9264C154.225 57.4173 154.192 57.8469 154.139 58.2153C154.087 58.5836 154.008 58.8905 153.903 59.1361C153.798 59.3814 153.662 59.5657 153.494 59.6885C153.332 59.8112 153.127 59.8725 152.878 59.8725Z" fill="black"/>
<path d="M159.427 56.9972H162.007V57.5992H159.427V56.9972ZM159.492 59.1998H162.415V59.8159H158.775V54.8584H162.315V55.4745H159.492V59.1998Z" fill="black"/>
<path d="M166.916 59.8159L165.096 57.3727L165.676 57.0185L167.733 59.8159H166.916ZM163.541 59.8159V54.8584H164.243V59.8159H163.541ZM164.028 57.6346V57.0114H165.655V57.6346H164.028ZM165.741 57.4151L165.081 57.3158L166.88 54.8584H167.647L165.741 57.4151Z" fill="black"/>
<path d="M169.442 59.8159V55.2905L169.621 55.4745H167.729V54.8584H171.864V55.4745H169.972L170.144 55.2905V59.8159H169.442Z" fill="black"/>
</svg>
