<svg width="140" height="74" viewBox="0 0 140 74" fill="none" xmlns="http://www.w3.org/2000/svg">
<path d="M5.5625 50.8542C8.66954 49.4363 16.044 46.4028 20.6855 45.6131C25.3271 44.8235 46.3663 45.0961 56.3055 45.3312C57.2883 45.4644 60.4121 46.1162 65.0442 47.6579C69.6761 49.1997 73.854 51.6926 75.3639 52.7462L70.1089 51.4419L73.6518 53.5454C72.7523 53.377 70.5822 53.0635 69.0983 53.1577C67.6145 53.2516 66.8156 53.4553 66.6016 53.5454C67.4378 53.945 69.2623 54.9838 69.8711 55.9426C70.4798 56.9016 70.9331 57.4234 71.0838 57.5644L56.5671 57.8699L44.5114 59.2919L40.6475 60.7373L10.1874 58.246L7.14376 58.5985C8.83995 57.7955 12.5272 55.9403 13.7066 54.9437C14.886 53.9473 16.1241 52.4917 16.5957 51.8884C15.1729 52.0295 12.1277 52.2691 11.3288 52.1C10.3301 51.8884 9.39081 51.818 8.83203 51.9589L8.48724 52.1L13.7066 49.3267C12.1332 49.5144 8.67509 49.9722 7.42911 50.3019C6.18311 50.6318 5.66555 50.8076 5.5625 50.8542Z" fill="#3E6B94"/>
<path d="M45.5586 61.5126C47.0646 60.9486 51.3747 59.8932 56.5679 60.1847C61.7612 60.4761 65.3104 61.1914 66.4359 61.5126C64.9735 61.348 60.9005 61.1975 56.3064 61.9122C51.7124 62.6266 49.6207 63.2205 49.1492 63.428L45.5586 61.5126Z" fill="#3E6B94"/>
<path d="M8.29785 62.8405C10.9967 62.637 18.4702 62.5492 26.7737 63.8278C35.0771 65.1064 43.6761 67.9251 46.9377 69.1746C45.3287 67.0201 39.6735 62.5139 29.9243 61.7242C17.7379 60.7372 17.5357 61.1131 14.4327 61.5127C11.9502 61.8323 9.30843 62.5312 8.29785 62.8405Z" fill="#3E6B94"/>
<path d="M42.5742 5.01172C47.6032 5.62279 59.3831 9.23283 66.2693 18.7844C71.405 25.9077 73.2678 31.7266 72.535 40.5245C72.2553 43.8825 71.2825 47.0113 70.6565 48.9503C69.2694 48.2099 65.8009 46.5271 63.0235 45.7186C60.2463 44.9101 59.0447 44.5826 58.7911 44.52V35.965C59.3221 36.0629 60.5007 36.3057 60.9668 36.4938C61.5494 36.7288 61.9297 37.0578 62.56 36.6935C63.19 36.3292 66.2336 33.5794 66.5428 33.2268C66.8519 32.8744 67.9338 32.1221 66.7686 30.6063C65.8365 29.3935 50.2507 13.0379 42.5742 5.01172Z" fill="#F3C733"/>
<path d="M7.35787 48.8445C9.59304 47.8848 14.6578 45.8244 17.0357 45.2604C19.4135 44.6962 20.761 44.4064 21.1374 44.332V36.67H16.1202C15.7873 36.67 15.1334 36.3997 14.3963 35.4126C13.6591 34.4256 11.6142 31.805 11.6142 31.4171C11.6142 31.0293 11.5191 30.7943 12.8507 29.4665C13.9159 28.404 28.917 12.7206 36.2842 5.01172C32.9791 5.25067 24.502 7.23275 17.0357 13.2495C7.70266 20.7703 5.15838 31.899 5.64583 40.3717C5.90269 44.3577 6.89422 47.681 7.35787 48.8445Z" fill="#F3C733"/>
<path d="M21.138 36.6703V44.3322L58.7912 44.5203V35.9652C59.3222 36.0632 60.5008 36.306 60.9669 36.4941C61.5495 36.7291 61.9298 37.058 62.5601 36.6938C63.1901 36.3295 66.2337 33.5797 66.5429 33.2271C66.852 32.8746 67.9339 32.1224 66.7687 30.6065C65.8366 29.3938 50.2508 13.0382 42.5743 5.01199C42.5743 5.01199 40.6742 4.81267 39.4525 4.81153C38.2128 4.81038 36.2847 5.01199 36.2847 5.01199C28.9176 12.7209 13.9165 28.4043 12.8512 29.4667C11.5196 30.7946 11.6148 31.0296 11.6148 31.4174C11.6148 31.8053 13.6597 34.4258 14.3968 35.4129C15.1339 36.3999 15.7879 36.6703 16.1208 36.6703H21.138Z" fill="#F3C733"/>
<path d="M39.9899 50.1848L39.748 52.8848L43.504 54.0801L60.3629 50.8457L58.0865 49.1582L54.7005 47.7099L54.1884 47.3021L54.473 46.5287C54.5108 46.1724 54.5867 45.4261 54.5867 45.2912C54.5867 45.1224 53.9893 43.5475 53.9893 43.3085C53.9893 43.1172 54.3117 41.2319 54.473 40.3132L54.1884 36.3054V32.593L54.5867 31.2432L54.1884 29.8932L49.024 29.0213L42.0244 28.5713L41.6543 29.612L41.3984 31.0322L41.8394 32.593L41.9674 36.3898L41.6543 38.4429L41.3984 39.9756L41.6543 40.9741V42.0568V46.3741V49.4255L39.9899 50.1848Z" fill="white"/>
<path d="M17.7954 30.6245L35.1096 29.0213L49.5927 16.956L47.5298 16.4639L28.4372 21.006L17.3828 29.4855L17.7954 30.6245Z" fill="white"/>
<path d="M35.8779 31.7362V51.4512L39.1929 51.2685L40.5444 49.6232H41.8248L41.4549 47.5701L41.8248 45.6718V41.6359C41.7016 41.2749 41.4549 40.5221 41.4549 40.3984V38.1626C41.6968 37.9703 42.1806 37.5495 42.1806 37.4033V33.2126L41.6114 30.6534L42.1806 29.0924L42.6784 28.4597L54.0459 29.5143L54.4442 30.3863V31.3846V33.0299L54.0459 35.2377L54.2593 38.4579L54.4442 40.2438L54.2593 41.9874V44.7296L54.4442 45.9389L54.0459 47.303L55.5112 47.9639L58.072 48.4983V28.4597L49.4791 18.0537L35.8779 29.6831V31.7362Z" fill="#F3687B"/>
<path d="M18.9902 30.5127L35.2232 29.1205L50.0192 17.9551L58.5697 29.1205L58.086 33.3953L48.8669 22.033L35.9061 33.1141L35.5078 52.0698L18.9902 46.8387V30.5127Z" fill="#ED0827"/>
<path d="M31.6953 28.0932H32.1933L38.1402 21.6387L31.6953 28.0932Z" fill="#061E5E"/>
<path d="M27.3272 28.4731L26.4023 28.5996L33.6297 22.4824L27.3272 28.4731Z" fill="#061E5E"/>
<path d="M21.4805 29.1207L22.277 29.0363L26.6022 25.2676L21.4805 29.1207Z" fill="#061E5E"/>
<path d="M28.1104 24.0854L32.0227 20.7949H31.4821L28.1104 24.0854Z" fill="#061E5E"/>
<path d="M34.7686 22.4823L37.3294 19.4871L37.9553 19.3184L34.7686 22.4823Z" fill="#061E5E"/>
<path d="M39.207 20.6412L41.6682 18.4896L42.4793 18.2646L39.207 20.6412Z" fill="#061E5E"/>
<path d="M32.3643 30.0207L32.478 50.3404H32.7484C32.8669 47.5936 33.0813 41.4083 32.9903 38.6407C32.8991 35.8733 32.6109 31.5721 32.478 29.7676L32.3643 30.0207Z" fill="#061E5E"/>
<path d="M29.7461 49.4537V41.9866V29.9072H30.0449V41.9866V49.749L29.7461 49.4537Z" fill="#061E5E"/>
<path d="M27.1992 48.8639V41.9874V30.33L27.3273 30.1895L27.5975 49.4545L27.1992 48.8639Z" fill="#061E5E"/>
<path d="M25.3358 48.2724L25.0086 30.3291L24.8379 30.4557L25.0086 48.2724H25.3358Z" fill="#061E5E"/>
<path d="M23.2443 47.5419L23.1019 30.583H22.8887V47.7107L23.2443 47.5419Z" fill="#061E5E"/>
<path d="M21.4797 47.2323L21.1525 30.7373H20.6973L20.9532 47.2323H21.4797Z" fill="#061E5E"/>
<path d="M38.9932 27.616V49.7498H39.292V36.8828C39.292 34.903 39.4438 29.4393 39.5195 26.9551L38.9932 27.616Z" fill="#061E5E"/>
<path d="M42.6211 24.5783V28.3329H43.0196L42.8202 24.2549L42.6211 24.5783Z" fill="#061E5E"/>
<path d="M44.5137 22.7216C44.5469 23.7246 44.6191 25.9193 44.6417 26.673C44.6645 27.4267 44.6512 28.2714 44.6417 28.5996H45.2251C45.1635 28.0556 45.0203 26.6279 44.9405 25.2667C44.861 23.9054 44.8411 22.9371 44.8411 22.623L44.5137 22.7216Z" fill="#061E5E"/>
<path d="M46.7188 20.7959V28.6005H47.1456L46.8752 20.7959H46.7188Z" fill="#061E5E"/>
<path d="M48.668 19.3185V28.8526H49.052V19.0654L48.668 19.3185Z" fill="#061E5E"/>
<path d="M50.6738 28.8529L50.873 20.0781L51.2715 20.3735L50.873 28.9936L50.6738 28.8529Z" fill="#061E5E"/>
<path d="M52.6514 28.9933L53.1066 22.4824L53.2631 22.8763C53.2109 23.8137 53.1066 25.8518 53.1066 26.5043C53.1066 27.1567 53.0023 28.5762 52.9502 29.2043L52.6514 28.9933Z" fill="#061E5E"/>
<path d="M55.4971 26.0547C55.5541 28.0796 55.6678 32.4388 55.6678 33.6763C55.6678 35.1619 55.7992 38.4634 55.8598 39.9933L55.867 40.1731C55.9126 41.3205 55.8859 45.7886 55.867 47.8792L56.1942 48.1323V39.2029C56.1942 36.8966 56.0804 29.664 56.0234 26.3359L55.4971 26.0547Z" fill="#061E5E"/>
<path d="M46.4912 48.1318V42.2256L46.7045 48.1318H46.4912Z" fill="#061E5E"/>
<path d="M44.9258 43.3652V48.3574L45.2246 48.1325L44.9258 43.3652Z" fill="#061E5E"/>
<path d="M46.5484 30.1045H46.7192L46.4062 35.2933L46.5484 30.1045Z" fill="#061E5E"/>
<path d="M46.875 40.1729V41.7197L46.9888 40.1729H46.875Z" fill="#061E5E"/>
<path d="M43.703 41.1289L43.6176 43.5757L43.5322 41.1289H43.703Z" fill="#061E5E"/>
<path d="M45.7655 42.4795V44.181L45.666 42.4795H45.7655Z" fill="#061E5E"/>
<path d="M44.6418 32.4531H44.8126L44.4854 36.5875L44.6418 32.4531Z" fill="#061E5E"/>
<path d="M45.7656 34.0137L45.4668 38.401L45.6661 38.3166L45.7656 34.0137Z" fill="#061E5E"/>
<path d="M52.4521 44.8835V41.6211L52.5659 44.8835H52.4521Z" fill="#061E5E"/>
<path d="M50.8869 42.7607L50.4316 47.5278H50.6308L50.8869 42.7607Z" fill="#061E5E"/>
<path d="M52.3665 32.2705H52.5372L52.1104 36.6859L52.3665 32.2705Z" fill="#061E5E"/>
<path d="M52.9355 36.4326V37.9796L53.0495 36.4326H52.9355Z" fill="#061E5E"/>
<path d="M49.6639 40.5244L49.5785 44.7712L49.4932 40.5244H49.6639Z" fill="#061E5E"/>
<path d="M51.7264 41.875L51.4844 45.1515L51.6267 41.875H51.7264Z" fill="#061E5E"/>
<path d="M50.2473 30.9902H50.418L50.0908 35.1246L50.2473 30.9902Z" fill="#061E5E"/>
<path d="M51.1435 34.7734L50.9443 38.0639L51.1435 37.9797V34.7734Z" fill="#061E5E"/>
<path d="M23.5004 33.6059C23.5572 33.6059 27.5741 33.2684 29.5752 33.0996L29.4044 41.5369L23.415 41.0025L23.5004 33.6059Z" fill="#F3C733"/>
<path d="M29.1767 33.9713L27.1564 34.14V40.032L27.9959 38.0632L29.1767 41.0163V41.7897L26.5304 41.2273L26.4023 33.69L28.3799 33.2822L29.3474 33.493L29.1767 33.9713Z" fill="#CEA210"/>
<path d="M25.837 34.4428L24.0839 34.5893V39.7021L24.7385 38.0353L25.837 40.5562V41.2275L23.5408 40.7393L23.4297 34.1986L25.1457 33.8449L26.1613 33.7324L25.837 34.4428Z" fill="#CEA210"/>
<path d="M28.8784 34.4355L27.8682 34.5482V35.0543L28.9495 35.7855L28.8784 34.4355Z" fill="white"/>
<path d="M25.5997 34.9736L24.9521 34.9975L24.9277 35.3194L25.5796 35.8352L25.5997 34.9736Z" fill="white"/>
<path fill-rule="evenodd" clip-rule="evenodd" d="M28.4798 20.6409L49.9057 15.2832C49.9057 15.2832 58.7691 26.3924 61.7993 30.1048C62.069 30.4349 61.8847 31.0746 61.401 31.1172C60.1206 31.2297 58.456 31.2999 58.456 31.2999V48.273C58.456 48.273 58.9255 48.5261 58.9255 48.8776V49.2293C58.9255 49.2293 60.206 49.4964 60.8036 49.6651C61.1399 49.7602 61.1165 50.1293 61.1165 50.4949V51.0291C61.1165 51.3345 60.938 51.6014 60.6328 51.6478C54.5436 52.5761 49.9625 53.4478 44.3001 54.4744C43.8504 54.5559 43.5674 54.5189 43.1336 54.3759C41.7678 53.9259 39.4915 53.1946 39.4915 53.1946C39.4915 53.1946 38.8797 52.9276 38.1683 53.0822C37.5883 53.2084 37.2721 53.2651 36.6745 53.3634C36.2051 53.4407 34.9449 52.8 34.327 52.5619C28.1242 50.1715 18.5493 47.2325 18.5493 47.2325V31.2577C18.5493 31.2577 17.9376 31.3141 17.5819 31.3141C17.3731 31.3141 17.25 31.2308 17.0982 31.089C16.8421 30.8499 16.7283 30.7234 16.4722 30.4141C16.2801 30.1821 16.3467 29.8388 16.586 29.6548C19.8012 27.1797 28.4798 20.6409 28.4798 20.6409ZM47.4159 17.1535L28.8924 21.5549L17.9945 30.0204L34.7539 28.4875L47.4159 17.1535ZM35.2945 29.7812L19.4883 31.089V46.2761L35.2945 50.9027V29.7812ZM49.6212 19.0519L36.3472 30.1328L36.4042 50.9027L38.7374 50.5651V50.2698C38.7374 49.862 38.9609 49.5107 39.3634 49.44C39.9004 49.3459 40.6255 49.2333 41.469 49.1098C41.8586 49.0527 42.2735 48.9935 42.7067 48.9326C44.3457 48.7025 46.2481 48.4507 48.0419 48.2189C48.3834 48.1748 48.7209 48.1313 49.0519 48.0889C50.9661 47.844 52.6632 47.6328 53.6473 47.5112C54.2135 47.4413 54.5436 47.401 54.5436 47.401L54.5863 47.4092L57.5597 47.9776V28.8672L49.6212 19.0519ZM54.4298 48.273L40.5585 50.34L43.5889 51.3527L57.6878 49.0183L54.4298 48.273ZM43.3612 52.2807L40.5585 51.1839L40.4731 52.2807L43.3612 53.1946V52.2807ZM58.015 49.9042L44.4567 52.2807V53.1946L59.8788 50.3964L58.015 49.9042Z" fill="#061E5E"/>
<path fill-rule="evenodd" clip-rule="evenodd" d="M22.4051 33.0016L30.3866 32.1719V33.2124L30.0451 33.3109V41.256L30.3866 41.4106V42.5638L22.3057 41.6076L22.4051 40.6372H22.6897V34.1265L22.4051 33.789V33.0016ZM26.7017 40.7779L26.7728 33.789L29.1629 33.5358V41.0591L26.7017 40.7779ZM25.7485 33.9014V40.6372L23.8847 40.5248V34.0702L25.7485 33.9014Z" fill="#061E5E"/>
<path fill-rule="evenodd" clip-rule="evenodd" d="M48.0415 29.4855V48.2184C48.383 48.1743 48.7205 48.1307 49.0515 48.0884V29.4855L53.6469 29.9635V30.5542C53.6469 30.5542 52.3381 30.5542 51.5697 30.7791C51.2021 30.8868 51.2019 31.6428 51.5697 31.7494C52.3949 31.9884 53.6469 32.3259 53.6469 32.3259V38.3727C53.6469 38.3727 51.4133 38.4288 50.5311 38.682C50.0077 38.8322 50.0787 39.9096 50.6024 40.06C51.3849 40.2851 53.6469 40.5944 53.6469 40.5944V44.9397C53.6469 44.9397 52.708 45.0802 52.2811 45.2631C51.9191 45.4182 51.8934 46.1891 52.2811 46.2615C52.8075 46.36 53.6469 46.5709 53.6469 46.5709V47.5106C54.2131 47.4408 54.5432 47.4005 54.5432 47.4005L54.5859 47.4087V46.9646C54.5859 46.9646 54.9274 46.7735 54.9274 46.5709V44.7146C54.9274 44.5199 54.5432 44.3912 54.5432 44.3912L54.5859 40.8617C54.5859 40.8617 54.9841 40.7267 54.9841 40.5242V38.4993C54.9841 38.253 54.5859 38.0071 54.5859 38.0071V32.7901C54.5859 32.7901 54.9131 32.5468 54.9131 32.3259V30.4979C54.9131 30.3154 54.5859 30.1603 54.5859 30.1603V29.5698C54.5859 29.2464 54.2708 29.0719 53.9457 29.0355C49.5638 28.5433 44.8546 28.0652 42.0946 28.0089C41.7915 28.0028 41.5824 28.2857 41.5824 28.5855V29.0916C41.5824 29.0916 41.113 29.3096 41.113 29.5698V31.8057C41.113 32.0543 41.5824 32.2415 41.5824 32.2415V37.7539C41.5824 37.7539 40.999 38.0424 40.999 38.3727V40.8898C40.999 41.162 41.4686 41.41 41.4686 41.41V45.8537C41.4686 45.8537 40.999 46.0917 40.999 46.36V48.2724C40.999 48.5173 41.4686 48.6943 41.4686 48.6943V49.1092C41.8582 49.0521 42.2731 48.9929 42.7063 48.932V48.4834C42.7063 48.4834 43.3702 48.1666 43.8017 47.977C44.8262 47.5271 44.6128 46.4302 43.8017 46.1912C43.4119 46.0763 42.7063 45.938 42.7063 45.938L42.7633 40.721C42.7633 40.721 44.851 40.3499 46.1777 40.06C47.4012 39.7929 47.131 38.7944 46.1777 38.682C45.1163 38.5568 42.8344 38.3727 42.8344 38.3727V31.7494C42.8344 31.7494 44.4277 31.5525 45.3099 31.454C45.6854 31.4122 45.6674 30.6184 45.3099 30.4979C44.0579 30.076 42.8344 29.7806 42.8344 29.7806V28.9791L48.0415 29.4855ZM41.8955 47.8927L41.9239 46.5007L42.2654 46.5146C42.2654 46.5146 42.3221 46.8241 42.5215 46.8241C42.8274 46.8241 42.9055 46.8241 43.304 46.8663C43.4774 46.8846 43.7022 47.2178 43.2327 47.3022C42.929 47.3568 42.4645 47.4849 42.4645 47.4849L42.2511 47.8927H41.8955ZM41.8101 40.5805V38.6398L42.2654 38.5837L42.3791 39.0759C42.3791 39.0759 44.5417 39.1039 45.6798 39.2305C45.8683 39.2515 45.9096 39.6788 45.7225 39.7086C44.8403 39.8493 42.3221 40.1022 42.3221 40.1022L42.2654 40.5522L41.8101 40.5805ZM41.9808 31.454V29.8369H42.4075L42.7206 30.2447C42.7206 30.2447 44.314 30.526 44.8546 30.765C44.9813 30.8211 44.9925 31.1002 44.8546 31.1167C44.1432 31.201 42.7206 31.0462 42.7206 31.0462L42.4075 31.5103L41.9808 31.454ZM54.3867 32.0306V30.6947H53.903L53.7464 31.0462C53.7464 31.0462 52.466 30.8916 52.082 31.0462C51.9263 31.109 51.86 31.4363 52.025 31.4681C52.6794 31.5947 53.7464 31.665 53.7464 31.665L53.903 32.0025L54.3867 32.0306ZM54.1733 40.271V38.5837H53.8461L53.6469 39.0617C53.6469 39.0617 51.9255 39.0617 51.0861 39.2305C50.9337 39.2611 50.9362 39.5831 51.0861 39.6242C51.7548 39.8071 53.7464 39.8351 53.7464 39.8351L53.8461 40.271H54.1733ZM54.1876 46.1631V45.1929H53.8604L53.6469 45.3897C53.6469 45.3897 53.0493 45.4319 52.6794 45.5585C52.5258 45.611 52.5749 45.9462 52.7364 45.9663C53.0779 46.0085 53.6185 45.9663 53.6185 45.9663L53.8604 46.2334L54.1876 46.1631Z" fill="#061E5E"/>
<path d="M85.9842 41.0805C84.6728 41.0805 83.4504 40.8724 82.3171 40.4564C81.2001 40.0243 80.2287 39.4163 79.403 38.6322C78.5774 37.8481 77.9297 36.9278 77.4602 35.8717C77.0068 34.8157 76.7803 33.6555 76.7803 32.3912C76.7803 31.1272 77.0068 29.9669 77.4602 28.9108C77.9297 27.8546 78.5774 26.9346 79.403 26.1505C80.2449 25.3664 81.2244 24.7663 82.3415 24.3503C83.4585 23.9183 84.6808 23.7021 86.0083 23.7021C87.4817 23.7021 88.8093 23.9582 89.991 24.4702C91.1892 24.9662 92.1928 25.7024 93.0023 26.6786L90.4768 28.9828C89.8939 28.3268 89.2464 27.8388 88.534 27.5186C87.8217 27.1826 87.0446 27.0146 86.2027 27.0146C85.4094 27.0146 84.6808 27.1427 84.0171 27.3987C83.3532 27.6547 82.7786 28.0226 82.293 28.5028C81.8072 28.9828 81.4267 29.5509 81.1514 30.2069C80.8924 30.8631 80.763 31.5913 80.763 32.3912C80.763 33.1914 80.8924 33.9195 81.1514 34.5755C81.4267 35.2317 81.8072 35.7997 82.293 36.2799C82.7786 36.7598 83.3532 37.1279 84.0171 37.3839C84.6808 37.64 85.4094 37.7681 86.2027 37.7681C87.0446 37.7681 87.8217 37.6081 88.534 37.2879C89.2464 36.9519 89.8939 36.4479 90.4768 35.7758L93.0023 38.08C92.1928 39.0562 91.1892 39.8002 89.991 40.3124C88.8093 40.8245 87.4736 41.0805 85.9842 41.0805Z" fill="black"/>
<path d="M95.5664 40.7924V23.9902H98.8205L106.057 35.8478H104.333L111.449 23.9902H114.703L114.727 40.7924H111.036L111.011 29.583H111.716L106.009 39.0161H104.26L98.4319 29.583H99.2576V40.7924H95.5664Z" fill="black"/>
<path d="M129.951 40.7924L124.657 32.7034L127.838 30.8072L134.419 40.7924H129.951ZM118.901 40.7924V23.9902H122.811V40.7924H118.901ZM121.67 34.0236V30.7831H127.595V34.0236H121.67ZM128.202 32.8233L124.584 32.3912L130.097 23.9902H134.249L128.202 32.8233Z" fill="black"/>
<path d="M103.852 46.7836L102.429 44.8727L102.883 44.5957L104.491 46.7836H103.852ZM101.213 46.7836V42.9062H101.762V46.7836H101.213ZM101.594 45.0776V44.5902H102.866V45.0776H101.594ZM102.933 44.9059L102.418 44.8282L103.824 42.9062H104.424L102.933 44.9059Z" fill="black"/>
<path d="M106.82 46.8283C106.521 46.8283 106.243 46.7784 105.985 46.6788C105.731 46.5789 105.51 46.4405 105.324 46.2633C105.137 46.0823 104.991 45.8718 104.887 45.6318C104.782 45.3918 104.729 45.1296 104.729 44.8452C104.729 44.5609 104.782 44.2988 104.887 44.0588C104.991 43.8186 105.137 43.6101 105.324 43.4328C105.51 43.252 105.731 43.1116 105.985 43.0118C106.239 42.9121 106.517 42.8623 106.82 42.8623C107.119 42.8623 107.393 42.9121 107.644 43.0118C107.898 43.1078 108.118 43.2464 108.305 43.4272C108.495 43.6046 108.641 43.8131 108.742 44.0533C108.847 44.2932 108.899 44.5573 108.899 44.8452C108.899 45.1333 108.847 45.3973 108.742 45.6373C108.641 45.8773 108.495 46.0879 108.305 46.2689C108.118 46.446 107.898 46.5845 107.644 46.6843C107.393 46.7803 107.119 46.8283 106.82 46.8283ZM106.82 46.3353C107.037 46.3353 107.236 46.2983 107.419 46.2246C107.606 46.1507 107.767 46.0472 107.901 45.9143C108.04 45.7776 108.146 45.619 108.221 45.438C108.299 45.257 108.338 45.0594 108.338 44.8452C108.338 44.6312 108.299 44.4336 108.221 44.2526C108.146 44.0716 108.04 43.9146 107.901 43.7818C107.767 43.6451 107.606 43.5399 107.419 43.466C107.236 43.3923 107.037 43.3553 106.82 43.3553C106.599 43.3553 106.396 43.3923 106.209 43.466C106.026 43.5399 105.865 43.6451 105.727 43.7818C105.589 43.9146 105.48 44.0716 105.402 44.2526C105.327 44.4336 105.29 44.6312 105.29 44.8452C105.29 45.0594 105.327 45.257 105.402 45.438C105.48 45.619 105.589 45.7776 105.727 45.9143C105.865 46.0472 106.026 46.1507 106.209 46.2246C106.396 46.2983 106.599 46.3353 106.82 46.3353Z" fill="black"/>
<path d="M109.805 46.7836V42.9062H110.264L112.024 45.8365H111.777L113.514 42.9062H113.974L113.98 46.7836H113.442L113.436 43.7427H113.565L112.018 46.3128H111.76L110.203 43.7427H110.343V46.7836H109.805Z" fill="black"/>
<path d="M115.201 46.7836V42.9062H118.58V46.7836H118.031V43.2442L118.166 43.3881H115.616L115.756 43.2442V46.7836H115.201Z" fill="black"/>
<path d="M119.57 46.8279C119.514 46.8279 119.458 46.8243 119.402 46.8168C119.346 46.8094 119.284 46.7983 119.217 46.7836L119.256 46.2907C119.316 46.3054 119.376 46.3128 119.435 46.3128C119.6 46.3128 119.731 46.2481 119.828 46.1188C119.925 45.9896 119.996 45.7939 120.041 45.5318C120.089 45.2696 120.121 44.9391 120.136 44.5403L120.197 42.9062H122.96V46.7836H122.411V43.2442L122.546 43.3881H120.556L120.679 43.2386L120.635 44.5237C120.623 44.9076 120.597 45.2437 120.556 45.5318C120.515 45.8199 120.453 46.0598 120.371 46.2519C120.289 46.4438 120.183 46.5879 120.052 46.684C119.925 46.78 119.764 46.8279 119.57 46.8279Z" fill="black"/>
<path d="M124.692 44.5791H126.709V45.0499H124.692V44.5791ZM124.742 46.3017H127.029V46.7836H124.182V42.9062H126.95V43.3881H124.742V46.3017Z" fill="black"/>
<path d="M130.548 46.7836L129.124 44.8727L129.578 44.5957L131.186 46.7836H130.548ZM127.908 46.7836V42.9062H128.457V46.7836H127.908ZM128.289 45.0776V44.5902H129.561V45.0776H128.289ZM129.629 44.9059L129.113 44.8282L130.52 42.9062H131.119L129.629 44.9059Z" fill="black"/>
<path d="M132.524 46.7836V43.2442L132.664 43.3881H131.185V42.9062H134.418V43.3881H132.939L133.073 43.2442V46.7836H132.524Z" fill="black"/>
</svg>
