<svg width="26" height="24" viewBox="0 0 26 24" fill="none" xmlns="http://www.w3.org/2000/svg">
<path d="M3.43555 18.433C3.43555 16.4308 4.8904 14.7254 6.86758 14.4098L7.04568 14.3814C8.62891 14.1287 10.2422 14.1287 11.8254 14.3814L12.0035 14.4098C13.9807 14.7254 15.4355 16.4308 15.4355 18.433C15.4355 19.2984 14.734 20 13.8686 20H5.00251C4.1371 20 3.43555 19.2984 3.43555 18.433Z" stroke="#17191C" stroke-width="1.5"/>
<path d="M12.9355 7.5C12.9355 9.433 11.3685 11 9.43555 11C7.50255 11 5.93555 9.433 5.93555 7.5C5.93555 5.567 7.50255 4 9.43555 4C11.3685 4 12.9355 5.567 12.9355 7.5Z" stroke="#17191C" stroke-width="1.5"/>
<path d="M15.4355 11C17.3685 11 18.9355 9.433 18.9355 7.5C18.9355 5.567 17.3685 4 15.4355 4M17.8254 20H19.8686C20.734 20 21.4355 19.2984 21.4355 18.433C21.4355 16.4308 19.9807 14.7254 18.0035 14.4098V14.4098C17.885 14.3909 17.7649 14.3814 17.6448 14.3814C17.3251 14.3814 17.2258 14.3814 16.6767 14.3814" stroke="#17191C" stroke-width="1.5" stroke-linecap="round"/>
</svg>
