<svg width="67" height="63" viewBox="0 0 67 63" fill="none" xmlns="http://www.w3.org/2000/svg">
<path d="M60.1262 19.8275L51.2325 13.4129V5.46576C51.2325 4.47149 50.4259 3.6676 49.4335 3.6676H46.2447C45.25 3.6676 44.4458 4.47384 44.4458 5.46576V8.5144L34.2868 1.18544C33.7342 0.785844 32.9864 0.785844 32.4315 1.18544L6.59206 19.8275C5.13407 20.8806 5.03534 23.0172 6.39221 24.1972C7.37047 25.0481 8.8073 25.1139 9.86082 24.3547L33.358 7.4026L56.8575 24.3547C57.9086 25.1139 59.3455 25.0481 60.3261 24.1972C61.683 23.0172 61.5866 20.8806 60.1262 19.8275Z" fill="#CCA626"/>
<path d="M53.4179 26.3103V38.7377C51.0075 39.652 48.8863 41.2809 47.346 43.4011H19.3549C17.8146 41.2833 15.6935 39.6544 13.3066 38.7377V26.3103L33.3517 11.8311L53.4179 26.3103Z" fill="#CCA626"/>
<path d="M55.66 51.9972C55.66 49.3505 57.8258 47.1857 60.4737 47.1857H66.7148C65.1981 43.9373 61.9152 41.6572 58.1103 41.6572C54.3054 41.6572 51.0203 43.9373 49.5035 47.1857H17.2137C15.6969 43.9373 12.4141 41.6572 8.60682 41.6572C4.79958 41.6572 1.51913 43.9373 0 47.1857H6.2411C8.889 47.1857 11.0549 49.3505 11.0549 51.9972C11.0549 54.6439 8.889 56.8088 6.2411 56.8088H0C1.51913 60.0572 4.79958 62.3372 8.60682 62.3349C12.4141 62.3349 15.6946 60.0572 17.2113 56.8064H49.5012C51.0179 60.0572 54.3007 62.3349 58.108 62.3349C61.9152 62.3349 65.1957 60.0549 66.7125 56.8064H60.4713C57.8234 56.8064 55.6576 54.6416 55.6576 51.9949L55.66 51.9972Z" fill="#F3C733"/>
</svg>
