<svg width="42" height="42" viewBox="0 0 42 42" fill="none" xmlns="http://www.w3.org/2000/svg">
<path d="M4.87109 11.3223V31.9675" stroke="#F3C733" stroke-width="2" stroke-linecap="round" stroke-linejoin="round"/>
<path d="M20.3559 15.1934H13.9043V20.3547H20.3559V15.1934Z" stroke="#F3C733" stroke-width="2" stroke-linecap="round" stroke-linejoin="round"/>
<path d="M33.259 6.16113H13.9043V10.0321H33.259V6.16113Z" stroke="#F3C733" stroke-width="2" stroke-linecap="round" stroke-linejoin="round"/>
<path d="M25.5156 15.1934H33.2575" stroke="#F3C733" stroke-width="2" stroke-linecap="round" stroke-linejoin="round"/>
<path d="M25.5156 20.3545H33.2575" stroke="#F3C733" stroke-width="2" stroke-linecap="round" stroke-linejoin="round"/>
<path d="M13.9043 25.5166H23.5817" stroke="#F3C733" stroke-width="2" stroke-linecap="round" stroke-linejoin="round"/>
<path d="M13.9043 30.6777H21.6462" stroke="#F3C733" stroke-width="2" stroke-linecap="round" stroke-linejoin="round"/>
<path d="M38.4191 22.9355V1H8.74189V31.8065C8.74189 33.9275 7.1048 35.7743 4.99191 35.8388C2.79838 35.9033 1 34.1453 1 31.9678V13.9033" stroke="#F3C733" stroke-width="2" stroke-linecap="round" stroke-linejoin="round"/>
<path d="M4.87109 35.8389H4.99206H21.6452" stroke="#F3C733" stroke-width="2" stroke-linecap="round" stroke-linejoin="round"/>
<path d="M41.0007 32.6127C41.0007 37.2417 37.2426 40.9998 32.6136 40.9998C27.9846 40.9998 24.2266 37.2417 24.2266 32.6127C24.2266 27.9837 27.9846 24.2256 32.6136 24.2256C37.2426 24.2256 41.0007 27.9837 41.0007 32.6127Z" stroke="#F3C733" stroke-width="2" stroke-linecap="round" stroke-linejoin="round"/>
</svg>
