<svg width="42" height="42" viewBox="0 0 42 42" fill="none" xmlns="http://www.w3.org/2000/svg">
<path d="M11.3225 40.9997C17.0235 40.9997 21.6451 36.3781 21.6451 30.6771C21.6451 24.9761 17.0235 20.3545 11.3225 20.3545C5.62156 20.3545 1 24.9761 1 30.6771C1 36.3781 5.62156 40.9997 11.3225 40.9997Z" fill="#F3C733"/>
<path d="M40.9993 5.51654V8.74235H3.58008V6.1617C3.58008 4.73428 4.7333 3.58105 6.16071 3.58105H11.322V4.87138C11.322 5.22622 11.4671 5.54879 11.701 5.78266C11.9349 6.01654 12.2575 6.1617 12.6123 6.1617C13.322 6.1617 13.9026 5.58106 13.9026 4.87138V3.58105H30.6767V4.87138C30.6767 5.22622 30.8219 5.54879 31.0558 5.78266C31.2896 6.01654 31.6122 6.1617 31.9671 6.1617C32.6767 6.1617 33.2574 5.58106 33.2574 4.87138V3.58105H38.4187C39.8461 3.58105 40.9993 4.08912 40.9993 5.51654Z" fill="#F3C733"/>
<path d="M40.9991 27.4512L33.9023 34.548V28.7415C33.9023 28.0294 34.4798 27.4512 35.1927 27.4512H40.9991Z" fill="#CCA626"/>
<path d="M13.9029 3.58065V4.87097C13.9029 5.58065 13.3223 6.1613 12.6126 6.1613C12.2577 6.1613 11.9352 6.01613 11.7013 5.78226C11.4674 5.54839 11.3223 5.22581 11.3223 4.87097V2.29032C11.3223 1.58065 11.9029 1 12.6126 1C12.9674 1 13.29 1.14516 13.5239 1.37903C13.7577 1.6129 13.9029 1.93549 13.9029 2.29032V3.58065Z" fill="#CCA626"/>
<path d="M33.2584 3.58065V4.87097C33.2584 5.58065 32.6777 6.1613 31.9681 6.1613C31.6132 6.1613 31.2906 6.01613 31.0568 5.78226C30.8229 5.54839 30.6777 5.22581 30.6777 4.87097V2.29032C30.6777 1.58065 31.2584 1 31.9681 1C32.3229 1 32.6455 1.14516 32.8793 1.37903C33.1132 1.6129 33.2584 1.93549 33.2584 2.29032V3.58065Z" fill="#CCA626"/>
<path d="M35.194 15.1936C35.5503 15.1936 35.8391 14.9048 35.8391 14.5485C35.8391 14.1922 35.5503 13.9033 35.194 13.9033C34.8377 13.9033 34.5488 14.1922 34.5488 14.5485C34.5488 14.9048 34.8377 15.1936 35.194 15.1936Z" fill="#F3C733"/>
<path d="M35.194 22.2903C35.5503 22.2903 35.8391 22.0015 35.8391 21.6452C35.8391 21.2888 35.5503 21 35.194 21C34.8377 21 34.5488 21.2888 34.5488 21.6452C34.5488 22.0015 34.8377 22.2903 35.194 22.2903Z" fill="#F3C733"/>
<path d="M28.7428 15.1936C29.0991 15.1936 29.388 14.9048 29.388 14.5485C29.388 14.1922 29.0991 13.9033 28.7428 13.9033C28.3865 13.9033 28.0977 14.1922 28.0977 14.5485C28.0977 14.9048 28.3865 15.1936 28.7428 15.1936Z" fill="#F3C733"/>
<path d="M28.7428 22.2903C29.0991 22.2903 29.388 22.0015 29.388 21.6452C29.388 21.2888 29.0991 21 28.7428 21C28.3865 21 28.0977 21.2888 28.0977 21.6452C28.0977 22.0015 28.3865 22.2903 28.7428 22.2903Z" fill="#F3C733"/>
<path d="M28.7428 29.387C29.0991 29.387 29.388 29.0982 29.388 28.7418C29.388 28.3855 29.0991 28.0967 28.7428 28.0967C28.3865 28.0967 28.0977 28.3855 28.0977 28.7418C28.0977 29.0982 28.3865 29.387 28.7428 29.387Z" fill="#F3C733"/>
<path d="M22.2897 15.1936C22.646 15.1936 22.9348 14.9048 22.9348 14.5485C22.9348 14.1922 22.646 13.9033 22.2897 13.9033C21.9334 13.9033 21.6445 14.1922 21.6445 14.5485C21.6445 14.9048 21.9334 15.1936 22.2897 15.1936Z" fill="#F3C733"/>
<path d="M22.2897 22.2903C22.646 22.2903 22.9348 22.0015 22.9348 21.6452C22.9348 21.2888 22.646 21 22.2897 21C21.9334 21 21.6445 21.2888 21.6445 21.6452C21.6445 22.0015 21.9334 22.2903 22.2897 22.2903Z" fill="#F3C733"/>
<path d="M15.8385 15.1936C16.1948 15.1936 16.4837 14.9048 16.4837 14.5485C16.4837 14.1922 16.1948 13.9033 15.8385 13.9033C15.4822 13.9033 15.1934 14.1922 15.1934 14.5485C15.1934 14.9048 15.4822 15.1936 15.8385 15.1936Z" fill="#F3C733"/>
<path d="M9.38735 15.1936C9.74366 15.1936 10.0325 14.9048 10.0325 14.5485C10.0325 14.1922 9.74366 13.9033 9.38735 13.9033C9.03103 13.9033 8.74219 14.1922 8.74219 14.5485C8.74219 14.9048 9.03103 15.1936 9.38735 15.1936Z" fill="#F3C733"/>
<path d="M11.3225 40.9997C17.0235 40.9997 21.6451 36.3781 21.6451 30.6771C21.6451 24.9761 17.0235 20.3545 11.3225 20.3545C5.62156 20.3545 1 24.9761 1 30.6771C1 36.3781 5.62156 40.9997 11.3225 40.9997Z" stroke="#CCA626" stroke-width="2" stroke-linecap="round" stroke-linejoin="round"/>
<path d="M40.9994 9.38672V27.4513L33.9026 34.548H23.5801" stroke="#CCA626" stroke-width="2" stroke-linecap="round" stroke-linejoin="round"/>
<path d="M3.58008 8.74219H21.6445H40.9993" stroke="#CCA626" stroke-width="2" stroke-linecap="round" stroke-linejoin="round"/>
<path d="M3.58008 20.3545V9.38672" stroke="#CCA626" stroke-width="2" stroke-linecap="round" stroke-linejoin="round"/>
<path d="M33.9023 34.548V28.7415C33.9023 28.0294 34.4798 27.4512 35.1927 27.4512H40.9991" stroke="#CCA626" stroke-width="2" stroke-linecap="round" stroke-linejoin="round"/>
<path d="M13.9029 3.58065V4.87097C13.9029 5.58065 13.3223 6.1613 12.6126 6.1613C12.2577 6.1613 11.9352 6.01613 11.7013 5.78226C11.4674 5.54839 11.3223 5.22581 11.3223 4.87097V2.29032C11.3223 1.58065 11.9029 1 12.6126 1C12.9674 1 13.29 1.14516 13.5239 1.37903C13.7577 1.6129 13.9029 1.93549 13.9029 2.29032V3.58065Z" stroke="#CCA626" stroke-width="2" stroke-linecap="round" stroke-linejoin="round"/>
<path d="M33.2584 3.58065V4.87097C33.2584 5.58065 32.6777 6.1613 31.9681 6.1613C31.6132 6.1613 31.2906 6.01613 31.0568 5.78226C30.8229 5.54839 30.6777 5.22581 30.6777 4.87097V2.29032C30.6777 1.58065 31.2584 1 31.9681 1C32.3229 1 32.6455 1.14516 32.8793 1.37903C33.1132 1.6129 33.2584 1.93549 33.2584 2.29032V3.58065Z" stroke="#CCA626" stroke-width="2" stroke-linecap="round" stroke-linejoin="round"/>
<path d="M33.2578 3.58105H38.4191C39.8465 3.58105 40.9997 4.08912 40.9997 5.51654V9.38751" stroke="#CCA626" stroke-width="2" stroke-linecap="round" stroke-linejoin="round"/>
<path d="M13.9023 3.58105H30.6765" stroke="#CCA626" stroke-width="2" stroke-linecap="round" stroke-linejoin="round"/>
<path d="M3.58008 9.38751V6.1617C3.58008 4.73428 4.7333 3.58105 6.16071 3.58105H11.322" stroke="#CCA626" stroke-width="2" stroke-linecap="round" stroke-linejoin="round"/>
<path d="M7.45117 31.3228L11.3221 34.5486L15.1931 26.8066" stroke="#CCA626" stroke-width="2" stroke-linecap="round" stroke-linejoin="round"/>
</svg>
