<svg width="106" height="56" viewBox="0 0 106 56" fill="none" xmlns="http://www.w3.org/2000/svg">
<path d="M4.20898 38.4838C6.56026 37.4108 12.1409 35.1152 15.6534 34.5176C19.166 33.92 35.0875 34.1264 42.6091 34.3042C43.3529 34.4051 45.7168 34.8983 49.2221 36.065C52.7273 37.2318 55.8891 39.1182 57.0317 39.9156L53.0549 38.9285L55.736 40.5204C55.0553 40.393 53.413 40.1557 52.2901 40.227C51.1672 40.2981 50.5627 40.4522 50.4007 40.5204C51.0335 40.8228 52.4142 41.6089 52.875 42.3345C53.3356 43.0602 53.6786 43.4551 53.7926 43.5618L42.807 43.793L33.6838 44.8691L30.7598 45.9629L7.7089 44.0776L5.40561 44.3443C6.68921 43.7367 9.47956 42.3328 10.3721 41.5786C11.2646 40.8245 12.2015 39.723 12.5584 39.2665C11.4817 39.3732 9.17725 39.5546 8.57263 39.4266C7.81688 39.2665 7.10608 39.2132 6.68322 39.3198L6.4223 39.4266L10.3721 37.3279C9.18144 37.4699 6.56445 37.8163 5.62155 38.0659C4.67864 38.3155 4.28697 38.4486 4.20898 38.4838Z" fill="#3E6B94"/>
<path d="M34.4766 46.5505C35.6163 46.1237 38.878 45.325 42.808 45.5456C46.738 45.7661 49.4239 46.3075 50.2756 46.5505C49.169 46.4259 46.0866 46.3121 42.61 46.8529C39.1335 47.3935 37.5506 47.843 37.1938 48L34.4766 46.5505Z" fill="#3E6B94"/>
<path d="M6.2793 47.555C8.32167 47.401 13.9773 47.3345 20.261 48.3021C26.5447 49.2697 33.052 51.4028 35.5203 52.3484C34.3026 50.718 30.023 47.3078 22.6452 46.7103C13.4231 45.9633 13.2701 46.2478 10.9219 46.5502C9.04323 46.792 7.04406 47.321 6.2793 47.555Z" fill="#3E6B94"/>
<path d="M32.2188 3.79297C36.0245 4.2554 44.939 6.98732 50.1502 14.2155C54.0366 19.6062 55.4463 24.0096 54.8917 30.6675C54.6801 33.2087 53.944 35.5764 53.4702 37.0438C52.4205 36.4835 49.7957 35.21 47.6939 34.5982C45.5922 33.9863 44.6829 33.7385 44.491 33.6911V27.217C44.8928 27.2912 45.7847 27.4749 46.1375 27.6172C46.5783 27.7951 46.8661 28.044 47.3431 27.7684C47.8199 27.4927 50.1231 25.4118 50.3572 25.1449C50.591 24.8782 51.4098 24.309 50.528 23.1618C49.8226 22.2441 38.0279 9.86686 32.2188 3.79297Z" fill="#F3C733"/>
<path d="M5.56918 36.9637C7.26066 36.2374 11.0935 34.6782 12.8929 34.2514C14.6924 33.8245 15.7121 33.6052 15.9969 33.5488V27.7506H12.2001C11.9482 27.7506 11.4534 27.546 10.8955 26.7991C10.3377 26.0521 8.79019 24.069 8.79019 23.7754C8.79019 23.482 8.7182 23.3041 9.7259 22.2993C10.532 21.4952 21.8842 9.62675 27.4594 3.79297C24.9582 3.9738 18.5431 5.47375 12.8929 10.0269C5.83009 15.7184 3.90469 24.1401 4.27357 30.5519C4.46795 33.5683 5.2183 36.0833 5.56918 36.9637Z" fill="#F3C733"/>
<path d="M15.9969 27.7509V33.5492L44.4913 33.6915V27.2174C44.8931 27.2915 45.785 27.4753 46.1377 27.6176C46.5786 27.7954 46.8664 28.0444 47.3434 27.7687C47.8202 27.493 50.1234 25.4121 50.3575 25.1453C50.5913 24.8786 51.41 24.3093 50.5283 23.1621C49.8229 22.2444 38.0282 9.8672 32.219 3.79331C32.219 3.79331 30.7811 3.64247 29.8566 3.64161C28.9185 3.64074 27.4594 3.79331 27.4594 3.79331C21.8842 9.62709 10.532 21.4956 9.7259 22.2996C8.7182 23.3045 8.79019 23.4823 8.79019 23.7757C8.79019 24.0693 10.3377 26.0524 10.8955 26.7994C11.4534 27.5464 11.9482 27.7509 12.2001 27.7509H15.9969Z" fill="#F3C733"/>
<path d="M30.2631 37.9773L30.0801 40.0205L32.9224 40.9251L45.6805 38.4774L43.9579 37.2004L41.3954 36.1044L41.0079 35.7958L41.2233 35.2105C41.2519 34.9409 41.3094 34.3761 41.3094 34.274C41.3094 34.1463 40.8572 32.9544 40.8572 32.7736C40.8572 32.6288 41.1012 31.2021 41.2233 30.5068L41.0079 27.4739V24.6645L41.3094 23.6431L41.0079 22.6215L37.0997 21.9616L31.8027 21.6211L31.5227 22.4086L31.329 23.4834L31.6627 24.6645L31.7596 27.5378L31.5227 29.0915L31.329 30.2514L31.5227 31.007V31.8264V35.0935V37.4027L30.2631 37.9773Z" fill="white"/>
<path d="M13.4665 23.1751L26.5692 21.9619L37.5293 12.8314L35.9682 12.459L21.5198 15.8963L13.1543 22.3132L13.4665 23.1751Z" fill="white"/>
<path d="M27.1523 24.0165V38.9359L29.661 38.7977L30.6837 37.5525H31.6527L31.3728 35.9988L31.6527 34.5623V31.5081C31.5595 31.2349 31.3728 30.6652 31.3728 30.5716V28.8796C31.5558 28.7341 31.922 28.4157 31.922 28.305V25.1337L31.4912 23.197L31.922 22.0157L32.2986 21.5369L40.9011 22.335L41.2025 22.9949V23.7503V24.9954L40.9011 26.6662L41.0626 29.1031L41.2025 30.4546L41.0626 31.7741V33.8493L41.2025 34.7644L40.9011 35.7967L42.0099 36.2969L43.9479 36.7013V21.5369L37.4451 13.6621L27.1523 22.4627V24.0165Z" fill="#F3687B"/>
<path d="M14.3711 23.0909L26.6555 22.0374L37.8525 13.5879L44.3231 22.0374L43.9571 25.2724L36.9804 16.6739L27.1723 25.0596L26.8708 39.4045L14.3711 35.4457V23.0909Z" fill="#ED0827"/>
<path d="M23.9863 21.2595H24.3632L28.8635 16.375L23.9863 21.2595Z" fill="#061E5E"/>
<path d="M20.6803 21.5471L19.9805 21.6429L25.4498 17.0137L20.6803 21.5471Z" fill="#061E5E"/>
<path d="M16.2559 22.037L16.8587 21.9731L20.1318 19.1211L16.2559 22.037Z" fill="#061E5E"/>
<path d="M21.2715 18.2264L24.2322 15.7363H23.8231L21.2715 18.2264Z" fill="#061E5E"/>
<path d="M26.3125 17.0134L28.2505 14.7469L28.7241 14.6191L26.3125 17.0134Z" fill="#061E5E"/>
<path d="M29.6699 15.6208L31.5325 13.9925L32.1462 13.8223L29.6699 15.6208Z" fill="#061E5E"/>
<path d="M24.4902 22.7179L24.5763 38.095H24.781C24.8706 36.0164 25.0328 31.3355 24.964 29.2412C24.895 27.1469 24.6769 23.892 24.5763 22.5264L24.4902 22.7179Z" fill="#061E5E"/>
<path d="M22.5098 37.4247V31.774V22.6328H22.7359V31.774V37.6482L22.5098 37.4247Z" fill="#061E5E"/>
<path d="M20.584 36.9778V31.7739V22.952L20.6809 22.8457L20.8854 37.4246L20.584 36.9778Z" fill="#061E5E"/>
<path d="M19.1737 36.5308L18.9261 22.9521L18.7969 23.0479L18.9261 36.5308H19.1737Z" fill="#061E5E"/>
<path d="M17.5894 35.9773L17.4817 23.1436H17.3203V36.105L17.5894 35.9773Z" fill="#061E5E"/>
<path d="M16.2543 35.7434L16.0066 23.2607H15.6621L15.8558 35.7434H16.2543Z" fill="#061E5E"/>
<path d="M29.5078 20.8986V37.6485H29.7339V27.9113C29.7339 26.4131 29.8488 22.2784 29.9061 20.3984L29.5078 20.8986Z" fill="#061E5E"/>
<path d="M32.2539 18.6002V21.4415H32.5555L32.4046 18.3555L32.2539 18.6002Z" fill="#061E5E"/>
<path d="M33.6855 17.1947C33.7107 17.9538 33.7654 19.6145 33.7825 20.1849C33.7997 20.7553 33.7896 21.3945 33.7825 21.6429H34.2239C34.1773 21.2313 34.069 20.1508 34.0086 19.1207C33.9484 18.0906 33.9333 17.3578 33.9333 17.1201L33.6855 17.1947Z" fill="#061E5E"/>
<path d="M35.3555 15.7373V21.6435H35.6785L35.4739 15.7373H35.3555Z" fill="#061E5E"/>
<path d="M36.8301 14.6193V21.8343H37.1207V14.4277L36.8301 14.6193Z" fill="#061E5E"/>
<path d="M38.3477 21.8347L38.4984 15.1943L38.7999 15.4178L38.4984 21.9412L38.3477 21.8347Z" fill="#061E5E"/>
<path d="M39.8457 21.9408L40.1902 17.0137L40.3086 17.3117C40.2692 18.0211 40.1902 19.5634 40.1902 20.0573C40.1902 20.5509 40.1113 21.6251 40.0718 22.1005L39.8457 21.9408Z" fill="#061E5E"/>
<path d="M41.9961 19.7168C42.0392 21.2491 42.1253 24.548 42.1253 25.4845C42.1253 26.6087 42.2247 29.1072 42.2706 30.2649L42.276 30.401C42.3105 31.2693 42.2903 34.6506 42.276 36.2326L42.5236 36.4242V29.6668C42.5236 27.9215 42.4375 22.4482 42.3944 19.9296L41.9961 19.7168Z" fill="#061E5E"/>
<path d="M35.1836 36.4237V31.9541L35.345 36.4237H35.1836Z" fill="#061E5E"/>
<path d="M33.998 32.8174V36.5952L34.2242 36.425L33.998 32.8174Z" fill="#061E5E"/>
<path d="M35.2267 22.7822H35.3559L35.1191 26.7089L35.2267 22.7822Z" fill="#061E5E"/>
<path d="M35.4727 30.4014V31.5725L35.5588 30.4014H35.4727Z" fill="#061E5E"/>
<path d="M33.0726 31.125L33.008 32.9776L32.9434 31.125H33.0726Z" fill="#061E5E"/>
<path d="M34.6339 32.1465V33.4347L34.5586 32.1465H34.6339Z" fill="#061E5E"/>
<path d="M33.7825 24.5596H33.9117L33.6641 27.6883L33.7825 24.5596Z" fill="#061E5E"/>
<path d="M34.6343 25.7402L34.4082 29.0604L34.5591 28.9965L34.6343 25.7402Z" fill="#061E5E"/>
<path d="M39.6934 33.9659V31.4971L39.7795 33.9659H39.6934Z" fill="#061E5E"/>
<path d="M38.5086 32.3594L38.1641 35.9669H38.3148L38.5086 32.3594Z" fill="#061E5E"/>
<path d="M39.6274 24.4209H39.7566L39.4336 27.7623L39.6274 24.4209Z" fill="#061E5E"/>
<path d="M40.0586 27.5703V28.7416L40.1449 27.5703H40.0586Z" fill="#061E5E"/>
<path d="M37.5823 30.667L37.5177 33.8808L37.4531 30.667H37.5823Z" fill="#061E5E"/>
<path d="M39.1441 31.6895L38.9609 34.169L39.0687 31.6895H39.1441Z" fill="#061E5E"/>
<path d="M38.0247 23.4521H38.1539L37.9062 26.5808L38.0247 23.4521Z" fill="#061E5E"/>
<path d="M38.7034 26.3154L38.5527 28.8055L38.7034 28.7418V26.3154Z" fill="#061E5E"/>
<path d="M17.7834 25.432C17.8263 25.432 20.8661 25.1765 22.3805 25.0488L22.2513 31.4338L17.7188 31.0294L17.7834 25.432Z" fill="#F3C733"/>
<path d="M22.0799 25.7079L20.5511 25.8357V30.2944L21.1864 28.8046L22.0799 31.0394V31.6246L20.0774 31.199L19.9805 25.4951L21.477 25.1865L22.2092 25.346L22.0799 25.7079Z" fill="#CEA210"/>
<path d="M19.5522 26.0649L18.2256 26.1758V30.0449L18.7209 28.7836L19.5522 30.6913V31.1993L17.8145 30.8299L17.7305 25.8802L19.0291 25.6124L19.7976 25.5273L19.5522 26.0649Z" fill="#CEA210"/>
<path d="M21.8528 26.0596L21.0879 26.1449V26.5281L21.9066 27.0817L21.8528 26.0596Z" fill="white"/>
<path d="M19.3721 26.4668L18.8817 26.4849L18.8633 26.7286L19.3569 27.1192L19.3721 26.4668Z" fill="white"/>
<path fill-rule="evenodd" clip-rule="evenodd" d="M21.5523 15.6199L37.7665 11.5654C37.7665 11.5654 44.4739 19.9724 46.7671 22.7818C46.9712 23.0316 46.8317 23.5157 46.4657 23.5479C45.4967 23.633 44.237 23.6862 44.237 23.6862V36.5307C44.237 36.5307 44.5923 36.7222 44.5923 36.9882V37.2543C44.5923 37.2543 45.5613 37.4565 46.0136 37.5842C46.2681 37.6561 46.2504 37.9354 46.2504 38.2121V38.6164C46.2504 38.8475 46.1153 39.0495 45.8844 39.0846C41.2763 39.7871 37.8095 40.4468 33.5244 41.2236C33.1842 41.2853 32.97 41.2573 32.6417 41.1491C31.6081 40.8085 29.8855 40.2552 29.8855 40.2552C29.8855 40.2552 29.4225 40.053 28.8842 40.1701C28.4452 40.2656 28.206 40.3085 27.7537 40.3829C27.3985 40.4414 26.4449 39.9565 25.9773 39.7764C21.2832 37.9674 14.0374 35.7432 14.0374 35.7432V23.6543C14.0374 23.6543 13.5744 23.6969 13.3053 23.6969C13.1473 23.6969 13.0541 23.6339 12.9392 23.5265C12.7454 23.3457 12.6593 23.2499 12.4655 23.0158C12.3201 22.8403 12.3705 22.5805 12.5516 22.4412C14.9848 20.5682 21.5523 15.6199 21.5523 15.6199ZM35.8824 12.9808L21.8645 16.3116L13.6175 22.7179L26.3003 21.5579L35.8824 12.9808ZM26.7094 22.5369L14.748 23.5265V35.0195L26.7094 38.5207V22.5369ZM37.5512 14.4174L27.5061 22.803L27.5492 38.5207L29.3148 38.2653V38.0418C29.3148 37.7332 29.4839 37.4673 29.7886 37.4139C30.1949 37.3426 30.7437 37.2574 31.382 37.1639C31.6768 37.1207 31.9908 37.0759 32.3187 37.0298C33.5589 36.8557 34.9986 36.6652 36.3561 36.4898C36.6145 36.4564 36.8699 36.4234 37.1204 36.3914C38.569 36.206 39.8533 36.0462 40.598 35.9542C41.0265 35.9013 41.2763 35.8708 41.2763 35.8708L41.3086 35.877L43.5588 36.3071V21.8452L37.5512 14.4174ZM41.1902 36.5307L30.6929 38.0949L32.9862 38.8612L43.6557 37.0947L41.1902 36.5307ZM32.8139 39.5636L30.6929 38.7335L30.6283 39.5636L32.8139 40.2552V39.5636ZM43.9033 37.7651L33.643 39.5636V40.2552L45.3137 38.1375L43.9033 37.7651Z" fill="#061E5E"/>
<path fill-rule="evenodd" clip-rule="evenodd" d="M16.9542 24.9746L22.9942 24.3467V25.1341L22.7358 25.2086V31.2211L22.9942 31.3382V32.2108L16.8789 31.4873L16.9542 30.7529H17.1695V25.8259L16.9542 25.5704V24.9746ZM20.2056 30.8594L20.2594 25.5704L22.0682 25.3788V31.0722L20.2056 30.8594ZM19.4843 25.6555V30.7529L18.0739 30.6678V25.7832L19.4843 25.6555Z" fill="#061E5E"/>
<path fill-rule="evenodd" clip-rule="evenodd" d="M36.3568 22.3138V36.49C36.6152 36.4567 36.8706 36.4237 37.1211 36.3916V22.3138L40.5987 22.6755V23.1226C40.5987 23.1226 39.6083 23.1226 39.0268 23.2928C38.7486 23.3742 38.7485 23.9464 39.0268 24.027C39.6512 24.2079 40.5987 24.4633 40.5987 24.4633V29.0393C40.5987 29.0393 38.9084 29.0817 38.2408 29.2733C37.8447 29.387 37.8985 30.2023 38.2948 30.3162C38.8869 30.4865 40.5987 30.7206 40.5987 30.7206V34.0089C40.5987 34.0089 39.8882 34.1152 39.5651 34.2536C39.2912 34.371 39.2718 34.9544 39.5651 35.0091C39.9635 35.0837 40.5987 35.2433 40.5987 35.2433V35.9544C41.0272 35.9016 41.277 35.8711 41.277 35.8711L41.3093 35.8773V35.5412C41.3093 35.5412 41.5677 35.3966 41.5677 35.2433V33.8386C41.5677 33.6912 41.277 33.5938 41.277 33.5938L41.3093 30.9228C41.3093 30.9228 41.6107 30.8207 41.6107 30.6674V29.135C41.6107 28.9487 41.3093 28.7626 41.3093 28.7626V24.8145C41.3093 24.8145 41.5569 24.6305 41.5569 24.4633V23.0799C41.5569 22.9418 41.3093 22.8245 41.3093 22.8245V22.3776C41.3093 22.1329 41.0709 22.0008 40.8249 21.9732C37.5088 21.6008 33.9451 21.239 31.8564 21.1964C31.6271 21.1917 31.4688 21.4059 31.4688 21.6327V22.0157C31.4688 22.0157 31.1136 22.1807 31.1136 22.3776V24.0696C31.1136 24.2577 31.4688 24.3995 31.4688 24.3995V28.571C31.4688 28.571 31.0273 28.7893 31.0273 29.0393V30.9441C31.0273 31.1501 31.3827 31.3378 31.3827 31.3378V34.7005C31.3827 34.7005 31.0273 34.8807 31.0273 35.0837V36.5309C31.0273 36.7163 31.3827 36.8502 31.3827 36.8502V37.1642C31.6775 37.121 31.9915 37.0762 32.3194 37.0301V36.6906C32.3194 36.6906 32.8218 36.4509 33.1483 36.3074C33.9236 35.9669 33.7621 35.1368 33.1483 34.9559C32.8533 34.869 32.3194 34.7644 32.3194 34.7644L32.3625 30.8163C32.3625 30.8163 33.9423 30.5355 34.9464 30.3162C35.8722 30.114 35.6677 29.3584 34.9464 29.2733C34.1432 29.1785 32.4163 29.0393 32.4163 29.0393V24.027C32.4163 24.027 33.6221 23.878 34.2896 23.8035C34.5738 23.7718 34.5602 23.1711 34.2896 23.0799C33.3421 22.7606 32.4163 22.5371 32.4163 22.5371V21.9306L36.3568 22.3138ZM31.7057 36.2435L31.7272 35.1901L31.9856 35.2007C31.9856 35.2007 32.0286 35.4349 32.1795 35.4349C32.411 35.4349 32.4701 35.4349 32.7716 35.4668C32.9029 35.4807 33.073 35.7328 32.7177 35.7967C32.4879 35.838 32.1364 35.9349 32.1364 35.9349L31.9748 36.2435H31.7057ZM31.6411 30.71V29.2414L31.9856 29.1989L32.0717 29.5714C32.0717 29.5714 33.7083 29.5926 34.5695 29.6884C34.7122 29.7043 34.7435 30.0276 34.6018 30.0502C33.9343 30.1566 32.0286 30.3481 32.0286 30.3481L31.9856 30.6886L31.6411 30.71ZM31.7703 23.8035V22.5797H32.0932L32.3302 22.8884C32.3302 22.8884 33.536 23.1012 33.9451 23.2821C34.041 23.3245 34.0495 23.5358 33.9451 23.5482C33.4067 23.612 32.3302 23.4949 32.3302 23.4949L32.0932 23.8461L31.7703 23.8035ZM41.1586 24.2398V23.2289H40.7926L40.674 23.4949C40.674 23.4949 39.705 23.3778 39.4144 23.4949C39.2966 23.5424 39.2465 23.79 39.3713 23.8142C39.8665 23.91 40.674 23.9631 40.674 23.9631L40.7926 24.2186L41.1586 24.2398ZM40.997 30.4758V29.1989H40.7494L40.5987 29.5607C40.5987 29.5607 39.296 29.5607 38.6608 29.6884C38.5454 29.7115 38.5473 29.9552 38.6608 29.9863C39.1668 30.1247 40.674 30.146 40.674 30.146L40.7494 30.4758H40.997ZM41.0079 34.9347V34.2005H40.7602L40.5987 34.3494C40.5987 34.3494 40.1465 34.3814 39.8666 34.4771C39.7503 34.5169 39.7875 34.7706 39.9097 34.7858C40.1681 34.8177 40.5772 34.7858 40.5772 34.7858L40.7602 34.9879L41.0079 34.9347Z" fill="#061E5E"/>
<path d="M65.0706 31.0877C64.0782 31.0877 63.1531 30.9302 62.2955 30.6154C61.4502 30.2885 60.7151 29.8283 60.0902 29.2349C59.4655 28.6415 58.9753 27.9452 58.62 27.1459C58.2769 26.3468 58.1055 25.4688 58.1055 24.512C58.1055 23.5554 58.2769 22.6775 58.62 21.8782C58.9753 21.0789 59.4655 20.3827 60.0902 19.7893C60.7274 19.1959 61.4686 18.7418 62.3139 18.427C63.1592 18.1001 64.0842 17.9365 65.0889 17.9365C66.2039 17.9365 67.2085 18.1303 68.1028 18.5178C69.0095 18.8931 69.769 19.4502 70.3816 20.1889L68.4704 21.9327C68.0293 21.4362 67.5393 21.0669 67.0002 20.8247C66.4611 20.5704 65.8731 20.4432 65.2359 20.4432C64.6356 20.4432 64.0842 20.5402 63.582 20.7339C63.0796 20.9277 62.6447 21.2061 62.2772 21.5694C61.9096 21.9327 61.6216 22.3626 61.4134 22.8591C61.2173 23.3556 61.1194 23.9067 61.1194 24.512C61.1194 25.1176 61.2173 25.6686 61.4134 26.165C61.6216 26.6616 61.9096 27.0914 62.2772 27.4548C62.6447 27.818 63.0796 28.0966 63.582 28.2903C64.0842 28.4841 64.6356 28.581 65.2359 28.581C65.8731 28.581 66.4611 28.4599 67.0002 28.2176C67.5393 27.9634 68.0293 27.5819 68.4704 27.0734L70.3816 28.8171C69.769 29.5558 69.0095 30.1188 68.1028 30.5065C67.2085 30.894 66.1977 31.0877 65.0706 31.0877Z" fill="black"/>
<path d="M72.3203 30.8694V18.1543H74.7829L80.2594 27.1276H78.9547L84.3392 18.1543H86.8018L86.8202 30.8694H84.0268L84.0084 22.3867H84.5414L80.2227 29.5252H78.8994L74.4888 22.3867H75.1137V30.8694H72.3203Z" fill="black"/>
<path d="M98.3421 30.8694L94.3358 24.748L96.7433 23.3131L101.724 30.8694H98.3421ZM89.9805 30.8694V18.1543H92.9392V30.8694H89.9805ZM92.0754 25.7471V23.2949H96.5596V25.7471H92.0754ZM97.019 24.8388L94.2807 24.5118L98.4525 18.1543H101.595L97.019 24.8388Z" fill="black"/>
<path d="M78.591 35.4039L77.5139 33.9579L77.8574 33.7482L79.0746 35.4039H78.591ZM76.5938 35.4039V32.4697H77.0093V35.4039H76.5938ZM76.882 34.1129V33.744H77.8447V34.1129H76.882ZM77.8956 33.983L77.5054 33.9242L78.5699 32.4697H79.0237L77.8956 33.983Z" fill="black"/>
<path d="M80.8377 35.4378C80.6116 35.4378 80.401 35.4001 80.2058 35.3247C80.0136 35.2491 79.8468 35.1443 79.7055 35.0103C79.5641 34.8733 79.4538 34.7139 79.3747 34.5323C79.2955 34.3507 79.2559 34.1524 79.2559 33.9371C79.2559 33.7219 79.2955 33.5236 79.3747 33.342C79.4538 33.1602 79.5641 33.0024 79.7055 32.8682C79.8468 32.7314 80.0136 32.6252 80.2058 32.5496C80.3981 32.4742 80.6087 32.4365 80.8377 32.4365C81.0639 32.4365 81.2717 32.4742 81.4612 32.5496C81.6534 32.6223 81.8202 32.7272 81.9615 32.864C82.1058 32.9983 82.216 33.156 82.2923 33.3378C82.3715 33.5194 82.4111 33.7192 82.4111 33.9371C82.4111 34.1551 82.3715 34.3549 82.2923 34.5365C82.216 34.7181 82.1058 34.8775 81.9615 35.0145C81.8202 35.1485 81.6534 35.2533 81.4612 35.3288C81.2717 35.4015 81.0639 35.4378 80.8377 35.4378ZM80.8377 35.0647C81.0017 35.0647 81.153 35.0367 81.2915 34.9809C81.4328 34.925 81.5544 34.8467 81.6562 34.7462C81.7608 34.6427 81.8414 34.5227 81.8979 34.3857C81.9573 34.2487 81.987 34.0992 81.987 33.9371C81.987 33.7751 81.9573 33.6256 81.8979 33.4886C81.8414 33.3517 81.7608 33.2329 81.6562 33.1323C81.5544 33.0289 81.4328 32.9493 81.2915 32.8934C81.153 32.8376 81.0017 32.8096 80.8377 32.8096C80.671 32.8096 80.5169 32.8376 80.3755 32.8934C80.237 32.9493 80.1154 33.0289 80.0107 33.1323C79.9062 33.2329 79.8242 33.3517 79.7648 33.4886C79.7083 33.6256 79.6801 33.7751 79.6801 33.9371C79.6801 34.0992 79.7083 34.2487 79.7648 34.3857C79.8242 34.5227 79.9062 34.6427 80.0107 34.7462C80.1154 34.8467 80.237 34.925 80.3755 34.9809C80.5169 35.0367 80.671 35.0647 80.8377 35.0647Z" fill="black"/>
<path d="M83.0957 35.4039V32.4697H83.4434L84.7751 34.6872H84.5884L85.9031 32.4697H86.2508L86.2551 35.4039H85.848L85.8437 33.1027H85.9412L84.7708 35.0477H84.5757L83.3968 33.1027H83.5028V35.4039H83.0957Z" fill="black"/>
<path d="M87.1797 35.4039V32.4697H89.7368V35.4039H89.3213V32.7255L89.423 32.8344H87.4934L87.5995 32.7255V35.4039H87.1797Z" fill="black"/>
<path d="M90.486 35.4375C90.4436 35.4375 90.4012 35.4347 90.3586 35.4291C90.3162 35.4234 90.2696 35.4151 90.2188 35.4039L90.2484 35.0309C90.2937 35.042 90.3389 35.0477 90.3842 35.0477C90.5086 35.0477 90.6076 34.9987 90.6809 34.9009C90.7545 34.8031 90.8083 34.655 90.8422 34.4566C90.8789 34.2582 90.903 34.0081 90.9142 33.7063L90.9609 32.4697H93.0516V35.4039H92.636V32.7255L92.7379 32.8344H91.2323L91.3256 32.7213L91.2917 33.6938C91.2832 33.9843 91.2634 34.2386 91.2323 34.4566C91.2012 34.6746 91.1545 34.8562 91.0924 35.0016C91.0302 35.1468 90.9496 35.2559 90.8507 35.3285C90.7545 35.4012 90.633 35.4375 90.486 35.4375Z" fill="black"/>
<path d="M94.3605 33.7356H95.8873V34.0919H94.3605V33.7356ZM94.3988 35.0393H96.1291V35.4039H93.9746V32.4697H96.0696V32.8344H94.3988V35.0393Z" fill="black"/>
<path d="M98.7924 35.4039L97.7151 33.9579L98.0586 33.7482L99.2758 35.4039H98.7924ZM96.7949 35.4039V32.4697H97.2105V35.4039H96.7949ZM97.0833 34.1129V33.744H98.0459V34.1129H97.0833ZM98.0969 33.983L97.7066 33.9242L98.7712 32.4697H99.2249L98.0969 33.983Z" fill="black"/>
<path d="M100.287 35.4039V32.7255L100.393 32.8344H99.2734V32.4697H101.721V32.8344H100.601L100.703 32.7255V35.4039H100.287Z" fill="black"/>
</svg>
