<svg width="93" height="49" viewBox="0 0 93 49" fill="none" xmlns="http://www.w3.org/2000/svg">
<mask id="mask0_471_4037" style="mask-type:alpha" maskUnits="userSpaceOnUse" x="0" y="0" width="93" height="49">
<path d="M3.69531 33.6737C5.75928 32.7348 10.658 30.7261 13.7413 30.2033C16.8246 29.6804 30.8007 29.8609 37.4032 30.0165C38.056 30.1048 40.1311 30.5364 43.2081 31.5572C46.285 32.5782 49.0604 34.2288 50.0634 34.9265L46.5726 34.0628L48.9261 35.4557C48.3285 35.3442 46.8869 35.1366 45.9013 35.199C44.9156 35.2612 44.3849 35.3961 44.2427 35.4557C44.7982 35.7203 46.0102 36.4082 46.4146 37.043C46.8189 37.678 47.1201 38.0235 47.2202 38.117L37.5769 38.3192L29.5685 39.2608L27.0018 40.2179L6.76756 38.5683L4.74572 38.8017C5.87247 38.2699 8.32186 37.0415 9.10531 36.3816C9.88878 35.7218 10.7112 34.758 11.0245 34.3585C10.0794 34.452 8.05648 34.6106 7.52575 34.4986C6.86234 34.3585 6.2384 34.3119 5.86721 34.4052L5.63818 34.4986L9.10531 32.6622C8.06017 32.7865 5.76296 33.0897 4.93527 33.308C4.10758 33.5264 3.76377 33.6429 3.69531 33.6737Z" fill="#3E6B94"/>
<path d="M30.2637 40.7307C31.2641 40.3572 34.1273 39.6584 37.577 39.8514C41.0268 40.0444 43.3845 40.518 44.1322 40.7307C43.1607 40.6217 40.455 40.5221 37.4033 40.9953C34.3515 41.4683 32.9621 41.8616 32.6488 41.999L30.2637 40.7307Z" fill="#3E6B94"/>
<path d="M5.51172 41.6108C7.30452 41.476 12.2691 41.4179 17.7849 42.2645C23.3008 43.1111 29.0129 44.9776 31.1796 45.805C30.1108 44.3783 26.3541 41.3945 19.8778 40.8716C11.7826 40.218 11.6483 40.4669 9.58699 40.7315C7.93792 40.9431 6.18303 41.406 5.51172 41.6108Z" fill="#3E6B94"/>
<path d="M28.2812 3.31836C31.622 3.72299 39.4472 6.11342 44.0216 12.4381C47.4331 17.1549 48.6706 21.0079 48.1837 26.8336C47.9979 29.0571 47.3518 31.1289 46.9359 32.4128C46.0145 31.9226 43.7104 30.8083 41.8654 30.2729C40.0206 29.7375 39.2224 29.5207 39.0539 29.4792V23.8144C39.4066 23.8793 40.1896 24.0401 40.4992 24.1646C40.8862 24.3202 41.1388 24.538 41.5575 24.2968C41.976 24.0556 43.9978 22.2348 44.2033 22.0013C44.4086 21.7679 45.1272 21.2699 44.3533 20.2661C43.734 19.4631 33.3806 8.63301 28.2812 3.31836Z" fill="#F3C733"/>
<path d="M4.88802 32.3428C6.37281 31.7073 9.73728 30.3429 11.3168 29.9695C12.8964 29.5959 13.7915 29.404 14.0416 29.3547V24.2813H10.7087C10.4876 24.2813 10.0532 24.1023 9.56352 23.4487C9.07386 22.7951 7.71544 21.0599 7.71544 20.803C7.71544 20.5462 7.65225 20.3906 8.53682 19.5114C9.24445 18.8078 19.2094 8.42292 24.1034 3.31836C21.9078 3.47659 16.2766 4.78904 11.3168 8.77309C5.11705 13.7531 3.42692 21.1221 3.75073 26.7324C3.92136 29.3718 4.58002 31.5724 4.88802 32.3428Z" fill="#F3C733"/>
<path d="M14.042 24.2812V29.3547L39.0544 29.4792V23.8143C39.4072 23.8792 40.1901 24.04 40.4997 24.1645C40.8867 24.3202 41.1394 24.538 41.5581 24.2968C41.9766 24.0556 43.9984 22.2347 44.2038 22.0012C44.4091 21.7679 45.1278 21.2698 44.3538 20.266C43.7346 19.463 33.3812 8.63294 28.2818 3.31829C28.2818 3.31829 27.0196 3.18631 26.208 3.18555C25.3845 3.18479 24.1037 3.31829 24.1037 3.31829C19.2098 8.42285 9.24484 18.8078 8.5372 19.5113C7.65264 20.3905 7.71583 20.5462 7.71583 20.8029C7.71583 21.0598 9.07425 22.795 9.56391 23.4486C10.0536 24.1022 10.488 24.2812 10.7091 24.2812H14.042Z" fill="#F3C733"/>
<path d="M26.5649 33.2306L26.4043 35.0184L28.8993 35.8099L40.0984 33.6682L38.5863 32.5508L36.337 31.5918L35.9968 31.3218L36.1858 30.8097C36.211 30.5738 36.2614 30.0796 36.2614 29.9902C36.2614 29.8785 35.8646 28.8356 35.8646 28.6774C35.8646 28.5507 36.0787 27.3023 36.1858 26.694L35.9968 24.0402V21.582L36.2614 20.6882L35.9968 19.7943L32.5662 19.2169L27.9164 18.9189L27.6706 19.6081L27.5006 20.5485L27.7935 21.582L27.8786 24.0961L27.6706 25.4556L27.5006 26.4705L27.6706 27.1316V27.8485V30.7073V32.7278L26.5649 33.2306Z" fill="white"/>
<path d="M11.8209 20.279L23.3225 19.2174L32.9434 11.2282L31.5731 10.9023L18.8902 13.91L11.5469 19.5248L11.8209 20.279Z" fill="white"/>
<path d="M23.833 21.0142V34.0687L26.0351 33.9477L26.9329 32.8582H27.7835L27.5377 31.4987L27.7835 30.2417V27.5694C27.7016 27.3303 27.5377 26.8318 27.5377 26.7499V25.2694C27.6984 25.1421 28.0198 24.8635 28.0198 24.7667V21.9918L27.6417 20.2971L28.0198 19.2635L28.3505 18.8446L35.9017 19.5429L36.1663 20.1202V20.7813V21.8708L35.9017 23.3327L36.0435 25.465L36.1663 26.6475L36.0435 27.8021V29.6179L36.1663 30.4186L35.9017 31.3219L36.8751 31.7595L38.5762 32.1134V18.8446L32.868 11.9541L23.833 19.6546V21.0142Z" fill="#F3687B"/>
<path d="M12.6152 20.2038L23.3986 19.282L33.2274 11.8887L38.9073 19.282L38.586 22.1126L32.4619 14.5889L23.8522 21.9264L23.5876 34.4782L12.6152 31.0143V20.2038Z" fill="#ED0827"/>
<path d="M21.0547 18.6021H21.3855L25.3359 14.3281L21.0547 18.6021Z" fill="#061E5E"/>
<path d="M18.1534 18.8535L17.5391 18.9373L22.3401 14.8867L18.1534 18.8535Z" fill="#061E5E"/>
<path d="M14.2695 19.2819L14.7987 19.226L17.6718 16.7305L14.2695 19.2819Z" fill="#061E5E"/>
<path d="M18.6729 15.9484L21.2718 13.7695H20.9127L18.6729 15.9484Z" fill="#061E5E"/>
<path d="M23.0967 14.887L24.7978 12.9037L25.2136 12.792L23.0967 14.887Z" fill="#061E5E"/>
<path d="M26.0449 13.6674L27.6799 12.2427L28.2186 12.0938L26.0449 13.6674Z" fill="#061E5E"/>
<path d="M21.499 19.8786L21.5746 33.3335H21.7542C21.8329 31.5147 21.9753 27.419 21.9149 25.5864C21.8543 23.7539 21.6629 20.9058 21.5746 19.7109L21.499 19.8786Z" fill="#061E5E"/>
<path d="M19.7598 32.7466V27.8022V19.8037H19.9583V27.8022V32.9422L19.7598 32.7466Z" fill="#061E5E"/>
<path d="M18.0684 32.3558V27.8024V20.0833L18.1534 19.9902L18.3329 32.7468L18.0684 32.3558Z" fill="#061E5E"/>
<path d="M16.8298 31.9644L16.6125 20.083L16.499 20.1668L16.6125 31.9644H16.8298Z" fill="#061E5E"/>
<path d="M15.4413 31.4795L15.3467 20.25H15.2051V31.5913L15.4413 31.4795Z" fill="#061E5E"/>
<path d="M14.2688 31.2759L14.0515 20.3535H13.749L13.919 31.2759H14.2688Z" fill="#061E5E"/>
<path d="M25.9023 18.2863V32.9424H26.1008V24.4224C26.1008 23.1115 26.2017 19.4936 26.252 17.8486L25.9023 18.2863Z" fill="#061E5E"/>
<path d="M28.3125 16.2747V18.7609H28.5772L28.4448 16.0605L28.3125 16.2747Z" fill="#061E5E"/>
<path d="M29.5693 15.0457C29.5914 15.7099 29.6394 17.1631 29.6544 17.6622C29.6695 18.1613 29.6607 18.7206 29.6544 18.9379H30.0419C30.001 18.5777 29.9059 17.6324 29.8529 16.731C29.8 15.8296 29.7868 15.1884 29.7868 14.9805L29.5693 15.0457Z" fill="#061E5E"/>
<path d="M31.0342 13.7695V18.9374H31.3177L31.1381 13.7695H31.0342Z" fill="#061E5E"/>
<path d="M32.3291 12.7926V19.1057H32.5842V12.625L32.3291 12.7926Z" fill="#061E5E"/>
<path d="M33.6621 19.1053L33.7944 13.2949L34.0591 13.4905L33.7944 19.1984L33.6621 19.1053Z" fill="#061E5E"/>
<path d="M34.9756 19.199L35.278 14.8877L35.3819 15.1485C35.3473 15.7692 35.278 17.1187 35.278 17.5508C35.278 17.9828 35.2087 18.9227 35.1741 19.3387L34.9756 19.199Z" fill="#061E5E"/>
<path d="M36.8662 17.252C36.9041 18.5928 36.9796 21.4793 36.9796 22.2987C36.9796 23.2824 37.0669 25.4686 37.1072 26.4816L37.1119 26.6006C37.1422 27.3604 37.1245 30.319 37.1119 31.7033L37.3293 31.8709V25.9582C37.3293 24.431 37.2537 19.6419 37.2159 17.4382L36.8662 17.252Z" fill="#061E5E"/>
<path d="M30.8838 31.8718V27.9609L31.0254 31.8718H30.8838Z" fill="#061E5E"/>
<path d="M29.8438 28.7148V32.0205L30.0423 31.8715L29.8438 28.7148Z" fill="#061E5E"/>
<path d="M30.9216 19.9336H31.035L30.8271 23.3694L30.9216 19.9336Z" fill="#061E5E"/>
<path d="M31.1387 26.6016V27.6258L31.2142 26.6016H31.1387Z" fill="#061E5E"/>
<path d="M29.0314 27.2344L28.9747 28.8546L28.918 27.2344H29.0314Z" fill="#061E5E"/>
<path d="M30.401 28.1279V29.2546L30.335 28.1279H30.401Z" fill="#061E5E"/>
<path d="M29.6547 21.4893H29.7681L29.5508 24.2269L29.6547 21.4893Z" fill="#061E5E"/>
<path d="M30.4016 22.5225L30.2031 25.4276L30.3355 25.3717L30.4016 22.5225Z" fill="#061E5E"/>
<path d="M34.8438 29.7198V27.5596L34.9193 29.7198H34.8438Z" fill="#061E5E"/>
<path d="M33.8034 28.3145L33.501 31.471H33.6333L33.8034 28.3145Z" fill="#061E5E"/>
<path d="M34.7864 21.3682H34.8998L34.6162 24.2919L34.7864 21.3682Z" fill="#061E5E"/>
<path d="M35.165 24.124V25.1484L35.2407 24.124H35.165Z" fill="#061E5E"/>
<path d="M32.9904 26.834L32.9337 29.646L32.877 26.834H32.9904Z" fill="#061E5E"/>
<path d="M34.361 27.7275L34.2002 29.8971L34.2948 27.7275H34.361Z" fill="#061E5E"/>
<path d="M33.3783 20.5205H33.4918L33.2744 23.2581L33.3783 20.5205Z" fill="#061E5E"/>
<path d="M33.9741 23.0254L33.8418 25.2042L33.9741 25.1485V23.0254Z" fill="#061E5E"/>
<path d="M15.6104 22.2532C15.6481 22.2532 18.3165 22.0297 19.6458 21.918L19.5324 27.5048L15.5537 27.151L15.6104 22.2532Z" fill="#F3C733"/>
<path d="M19.382 22.4953L18.04 22.6071V26.5085L18.5976 25.2048L19.382 27.1603V27.6724L17.6241 27.3L17.5391 22.3091L18.8527 22.0391L19.4954 22.1786L19.382 22.4953Z" fill="#CEA210"/>
<path d="M17.1636 22.8063L15.999 22.9033V26.2888L16.4339 25.1852L17.1636 26.8544V27.2989L15.6382 26.9756L15.5645 22.6447L16.7044 22.4104L17.379 22.3359L17.1636 22.8063Z" fill="#CEA210"/>
<path d="M19.1838 22.8018L18.5127 22.8763V23.2115L19.231 23.6957L19.1838 22.8018Z" fill="white"/>
<path d="M17.005 23.1582L16.5748 23.174L16.5586 23.3871L16.9916 23.7287L17.005 23.1582Z" fill="white"/>
<path fill-rule="evenodd" clip-rule="evenodd" d="M18.9189 13.6678L33.1519 10.1201C33.1519 10.1201 39.0397 17.4762 41.0526 19.9344C41.2317 20.153 41.1093 20.5766 40.788 20.6048C39.9375 20.6793 38.8317 20.7258 38.8317 20.7258V31.9647C38.8317 31.9647 39.1436 32.1323 39.1436 32.3651V32.5979C39.1436 32.5979 39.9942 32.7748 40.3912 32.8865C40.6146 32.9495 40.599 33.1939 40.599 33.436V33.7897C40.599 33.9919 40.4805 34.1687 40.2777 34.1994C36.2327 34.814 33.1896 35.3913 29.4281 36.071C29.1294 36.125 28.9414 36.1005 28.6533 36.0058C27.746 35.7078 26.2338 35.2236 26.2338 35.2236C26.2338 35.2236 25.8275 35.0468 25.3549 35.1492C24.9696 35.2327 24.7595 35.2703 24.3625 35.3354C24.0507 35.3866 23.2136 34.9623 22.8032 34.8047C18.6827 33.2218 12.3223 31.2757 12.3223 31.2757V20.6978C12.3223 20.6978 11.9159 20.7351 11.6796 20.7351C11.5409 20.7351 11.4591 20.68 11.3583 20.5861C11.1882 20.4278 11.1126 20.344 10.9425 20.1392C10.8149 19.9856 10.8591 19.7583 11.0181 19.6364C13.1539 17.9975 18.9189 13.6678 18.9189 13.6678ZM31.4979 11.3585L19.193 14.273L11.9537 19.8785L23.0867 18.8635L31.4979 11.3585ZM23.4459 19.7201L12.946 20.5861V30.6425L23.4459 33.706V19.7201ZM32.9629 12.6156L24.1452 19.953L24.183 33.706L25.7329 33.4825V33.2869C25.7329 33.0169 25.8814 32.7843 26.1488 32.7375C26.5055 32.6752 26.9871 32.6006 27.5475 32.5188C27.8063 32.481 28.0819 32.4418 28.3697 32.4015C29.4584 32.2491 30.7222 32.0824 31.9138 31.9289C32.1406 31.8997 32.3648 31.8709 32.5847 31.8428C33.8563 31.6806 34.9836 31.5408 35.6374 31.4603C36.0134 31.414 36.2327 31.3873 36.2327 31.3873L36.2611 31.3928L38.2363 31.7691V19.115L32.9629 12.6156ZM36.1572 31.9647L26.9426 33.3334L28.9557 34.004L38.3214 32.4582L36.1572 31.9647ZM28.8044 34.6185L26.9426 33.8922L26.8859 34.6185L28.8044 35.2236V34.6185ZM38.5387 33.0448L29.5322 34.6185V35.2236L39.7768 33.3707L38.5387 33.0448Z" fill="#061E5E"/>
<path fill-rule="evenodd" clip-rule="evenodd" d="M14.8835 21.8522L20.1854 21.3027V21.9917L19.9586 22.057V27.3179L20.1854 27.4203V28.1838L14.8174 27.5507L14.8835 26.9082H15.0725V22.597L14.8835 22.3735V21.8522ZM17.7376 27.0013L17.7848 22.3735L19.3726 22.2059V27.1875L17.7376 27.0013ZM17.1044 22.448V26.9082L15.8663 26.8337V22.5597L17.1044 22.448Z" fill="#061E5E"/>
<path fill-rule="evenodd" clip-rule="evenodd" d="M31.9136 19.5247V31.9289C32.1404 31.8997 32.3646 31.8709 32.5845 31.8428V19.5247L35.6372 19.8412V20.2324C35.6372 20.2324 34.7677 20.2324 34.2573 20.3813C34.0131 20.4526 34.013 20.9532 34.2573 21.0237C34.8055 21.182 35.6372 21.4055 35.6372 21.4055V25.4095C35.6372 25.4095 34.1534 25.4466 33.5674 25.6143C33.2197 25.7138 33.2669 26.4271 33.6147 26.5268C34.1345 26.6758 35.6372 26.8806 35.6372 26.8806V29.7579C35.6372 29.7579 35.0134 29.8509 34.7299 29.9721C34.4894 30.0747 34.4724 30.5852 34.7299 30.6331C35.0795 30.6983 35.6372 30.838 35.6372 30.838V31.4603C36.0133 31.414 36.2325 31.3873 36.2325 31.3873L36.2609 31.3928V31.0987C36.2609 31.0987 36.4877 30.9722 36.4877 30.838V29.6089C36.4877 29.4799 36.2325 29.3947 36.2325 29.3947L36.2609 27.0576C36.2609 27.0576 36.5255 26.9682 36.5255 26.8341V25.4933C36.5255 25.3302 36.2609 25.1674 36.2609 25.1674V21.7129C36.2609 21.7129 36.4783 21.5518 36.4783 21.4055V20.1951C36.4783 20.0742 36.2609 19.9716 36.2609 19.9716V19.5805C36.2609 19.3664 36.0516 19.2508 35.8357 19.2267C32.9248 18.9008 29.7966 18.5842 27.9631 18.5469C27.7618 18.5429 27.6229 18.7302 27.6229 18.9287V19.2639C27.6229 19.2639 27.3111 19.4082 27.3111 19.5805V21.061C27.3111 21.2256 27.6229 21.3496 27.6229 21.3496V24.9997C27.6229 24.9997 27.2354 25.1908 27.2354 25.4095V27.0762C27.2354 27.2564 27.5473 27.4207 27.5473 27.4207V30.3631C27.5473 30.3631 27.2354 30.5207 27.2354 30.6983V31.9647C27.2354 32.1269 27.5473 32.2441 27.5473 32.2441V32.5188C27.8061 32.481 28.0817 32.4418 28.3695 32.4014V32.1044C28.3695 32.1044 28.8105 31.8946 29.0971 31.7691C29.7777 31.4711 29.6359 30.7449 29.0971 30.5866C28.8382 30.5105 28.3695 30.4189 28.3695 30.4189L28.4073 26.9644C28.4073 26.9644 29.7941 26.7187 30.6755 26.5268C31.4882 26.3499 31.3087 25.6887 30.6755 25.6143C29.9704 25.5313 28.4546 25.4095 28.4546 25.4095V21.0237C28.4546 21.0237 29.513 20.8934 30.099 20.8282C30.3484 20.8005 30.3365 20.2748 30.099 20.1951C29.2673 19.9157 28.4546 19.7201 28.4546 19.7201V19.1894L31.9136 19.5247ZM27.8308 31.7132L27.8497 30.7915L28.0766 30.8007C28.0766 30.8007 28.1143 31.0057 28.2467 31.0057C28.4499 31.0057 28.5018 31.0057 28.7665 31.0336C28.8817 31.0457 29.0311 31.2663 28.7191 31.3222C28.5174 31.3584 28.2088 31.4432 28.2088 31.4432L28.0671 31.7132H27.8308ZM27.7741 26.8714V25.5863L28.0766 25.5492L28.1521 25.8751C28.1521 25.8751 29.5887 25.8937 30.3447 25.9775C30.4699 25.9914 30.4974 26.2743 30.3731 26.294C29.7871 26.3872 28.1143 26.5547 28.1143 26.5547L28.0766 26.8527L27.7741 26.8714ZM27.8876 20.8282V19.7574H28.171L28.379 20.0274C28.379 20.0274 29.4374 20.2136 29.7966 20.3719C29.8807 20.4091 29.8882 20.5939 29.7966 20.6048C29.324 20.6607 28.379 20.5581 28.379 20.5581L28.171 20.8655L27.8876 20.8282ZM36.1286 21.21V20.3254H35.8073L35.7033 20.5581C35.7033 20.5581 34.8527 20.4557 34.5976 20.5581C34.4942 20.5997 34.4502 20.8164 34.5597 20.8375C34.9945 20.9213 35.7033 20.9679 35.7033 20.9679L35.8073 21.1914L36.1286 21.21ZM35.9868 26.6665V25.5492H35.7695L35.6372 25.8657C35.6372 25.8657 34.4937 25.8657 33.936 25.9775C33.8348 25.9977 33.8365 26.211 33.936 26.2381C34.3802 26.3593 35.7033 26.3778 35.7033 26.3778L35.7695 26.6665H35.9868ZM35.9963 30.568V29.9255H35.779L35.6372 30.0559C35.6372 30.0559 35.2402 30.0838 34.9945 30.1676C34.8925 30.2024 34.925 30.4244 35.0323 30.4377C35.2592 30.4656 35.6183 30.4377 35.6183 30.4377L35.779 30.6145L35.9963 30.568Z" fill="#061E5E"/>
<path d="M57.1179 27.2026C56.2468 27.2026 55.4347 27.0648 54.6819 26.7893C53.9399 26.5033 53.2946 26.1006 52.7461 25.5814C52.1977 25.0622 51.7675 24.4529 51.4556 23.7535C51.1544 23.0543 51.0039 22.286 51.0039 21.4489C51.0039 20.6119 51.1544 19.8436 51.4556 19.1443C51.7675 18.4449 52.1977 17.8357 52.7461 17.3165C53.3054 16.7973 53.9561 16.4 54.6981 16.1245C55.4401 15.8384 56.2521 15.6953 57.134 15.6953C58.1127 15.6953 58.9946 15.8648 59.7796 16.2039C60.5755 16.5323 61.2422 17.0198 61.78 17.6662L60.1023 19.1919C59.7151 18.7576 59.285 18.4344 58.8118 18.2224C58.3386 17.9999 57.8224 17.8887 57.2631 17.8887C56.7361 17.8887 56.2521 17.9735 55.8112 18.143C55.3702 18.3126 54.9885 18.5562 54.6659 18.8741C54.3432 19.1919 54.0904 19.5682 53.9076 20.0025C53.7355 20.437 53.6496 20.9192 53.6496 21.4489C53.6496 21.9787 53.7355 22.4609 53.9076 22.8953C54.0904 23.3298 54.3432 23.7059 54.6659 24.0238C54.9885 24.3416 55.3702 24.5853 55.8112 24.7549C56.2521 24.9244 56.7361 25.0092 57.2631 25.0092C57.8224 25.0092 58.3386 24.9033 58.8118 24.6913C59.285 24.4688 59.7151 24.135 60.1023 23.69L61.78 25.2158C61.2422 25.8622 60.5755 26.3548 59.7796 26.694C58.9946 27.0331 58.1073 27.2026 57.1179 27.2026Z" fill="black"/>
<path d="M63.4834 27.0115V15.8857H65.6451L70.4524 23.7374H69.3071L74.0337 15.8857H76.1953L76.2115 27.0115H73.7595L73.7433 19.5891H74.2111L70.4202 25.8353H69.2586L65.3869 19.5891H65.9354V27.0115H63.4834Z" fill="black"/>
<path d="M86.3243 27.0115L82.8075 21.6553L84.9208 20.3997L89.2926 27.0115H86.3243ZM78.9844 27.0115V15.8857H81.5815V27.0115H78.9844ZM80.8233 22.5294V20.3837H84.7595V22.5294H80.8233ZM85.1628 21.7346L82.7592 21.4486L86.4212 15.8857H89.1797L85.1628 21.7346Z" fill="black"/>
<path d="M68.9876 30.9786L68.0421 29.7132L68.3436 29.5298L69.4121 30.9786H68.9876ZM67.2344 30.9786V28.4111H67.5992V30.9786H67.2344ZM67.4874 29.8489V29.5261H68.3325V29.8489H67.4874ZM68.3771 29.7352L68.0346 29.6838L68.969 28.4111H69.3674L68.3771 29.7352Z" fill="black"/>
<path d="M70.9589 31.0079C70.7604 31.0079 70.5755 30.9749 70.4042 30.909C70.2355 30.8428 70.0891 30.7512 69.965 30.6339C69.8409 30.514 69.7441 30.3746 69.6746 30.2157C69.6051 30.0568 69.5703 29.8832 69.5703 29.6948C69.5703 29.5066 69.6051 29.333 69.6746 29.1741C69.7441 29.0151 69.8409 28.877 69.965 28.7596C70.0891 28.6399 70.2355 28.5469 70.4042 28.4808C70.5729 28.4148 70.7578 28.3818 70.9589 28.3818C71.1574 28.3818 71.3399 28.4148 71.5061 28.4808C71.6749 28.5444 71.8213 28.6362 71.9454 28.7559C72.072 28.8734 72.1687 29.0114 72.2357 29.1704C72.3053 29.3293 72.34 29.5042 72.34 29.6948C72.34 29.8856 72.3053 30.0604 72.2357 30.2193C72.1687 30.3782 72.072 30.5177 71.9454 30.6375C71.8213 30.7548 71.6749 30.8465 71.5061 30.9126C71.3399 30.9762 71.1574 31.0079 70.9589 31.0079ZM70.9589 30.6815C71.1029 30.6815 71.2357 30.657 71.3572 30.6082C71.4813 30.5593 71.588 30.4908 71.6773 30.4028C71.7692 30.3123 71.8399 30.2072 71.8895 30.0874C71.9416 29.9675 71.9677 29.8367 71.9677 29.6948C71.9677 29.5531 71.9416 29.4223 71.8895 29.3024C71.8399 29.1826 71.7692 29.0787 71.6773 28.9907C71.588 28.9002 71.4813 28.8305 71.3572 28.7816C71.2357 28.7328 71.1029 28.7083 70.9589 28.7083C70.8125 28.7083 70.6773 28.7328 70.5532 28.7816C70.4315 28.8305 70.3248 28.9002 70.2329 28.9907C70.1412 29.0787 70.0692 29.1826 70.0171 29.3024C69.9674 29.4223 69.9427 29.5531 69.9427 29.6948C69.9427 29.8367 69.9674 29.9675 70.0171 30.0874C70.0692 30.2072 70.1412 30.3123 70.2329 30.4028C70.3248 30.4908 70.4315 30.5593 70.5532 30.6082C70.6773 30.657 70.8125 30.6815 70.9589 30.6815Z" fill="black"/>
<path d="M72.9424 30.9786V28.4111H73.2476L74.4166 30.3514H74.2527L75.4067 28.4111H75.712L75.7157 30.9786H75.3584L75.3546 28.965H75.4402L74.4128 30.6668H74.2415L73.2067 28.965H73.2997V30.9786H72.9424Z" fill="black"/>
<path d="M76.5264 30.9786V28.4111H78.771V30.9786H78.4063V28.6349L78.4956 28.7302H76.8017L76.8949 28.6349V30.9786H76.5264Z" fill="black"/>
<path d="M79.4279 31.0079C79.3907 31.0079 79.3535 31.0055 79.3162 31.0006C79.2789 30.9956 79.238 30.9883 79.1934 30.9786L79.2194 30.6522C79.2592 30.6619 79.2988 30.6668 79.3386 30.6668C79.4478 30.6668 79.5347 30.624 79.5991 30.5384C79.6636 30.4528 79.7108 30.3232 79.7406 30.1496C79.7728 29.9761 79.794 29.7572 79.8039 29.4932L79.8448 28.4111H81.68V30.9786H81.3152V28.6349L81.4047 28.7302H80.0831L80.1649 28.6312L80.1352 29.4822C80.1277 29.7364 80.1104 29.9589 80.0831 30.1496C80.0557 30.3404 80.0148 30.4993 79.9603 30.6265C79.9056 30.7536 79.8349 30.849 79.748 30.9126C79.6636 30.9762 79.557 31.0079 79.4279 31.0079Z" fill="black"/>
<path d="M82.8309 29.5188H84.1711V29.8306H82.8309V29.5188ZM82.8645 30.6595H84.3834V30.9786H82.4922V28.4111H84.3311V28.7302H82.8645V30.6595Z" fill="black"/>
<path d="M86.7212 30.9786L85.7755 29.7132L86.077 29.5298L87.1455 30.9786H86.7212ZM84.9678 30.9786V28.4111H85.3326V30.9786H84.9678ZM85.2209 29.8489V29.5261H86.0659V29.8489H85.2209ZM86.1106 29.7352L85.7681 29.6838L86.7025 28.4111H87.1008L86.1106 29.7352Z" fill="black"/>
<path d="M88.0342 30.9786V28.6349L88.1274 28.7302H87.1445V28.4111H89.2926V28.7302H88.3097L88.3992 28.6349V30.9786H88.0342Z" fill="black"/>
</mask>
<g mask="url(#mask0_471_4037)">
<g style="mix-blend-mode:hue">
<rect x="-7" y="-12" width="96" height="67" fill="#D9D9D9"/>
</g>
</g>
</svg>
