<svg width="26" height="26" viewBox="0 0 26 26" fill="none" xmlns="http://www.w3.org/2000/svg">
<path d="M25.8621 18.7017C25.8306 18.6333 25.8013 18.5766 25.774 18.5311C25.3229 17.7124 24.4609 16.7074 23.1884 15.5158L23.1615 15.4886L23.1481 15.4752L23.1345 15.4615H23.1208C22.5433 14.9066 22.1776 14.5336 22.0245 14.3426C21.7442 13.9788 21.6815 13.6105 21.8346 13.2373C21.9428 12.9554 22.3492 12.36 23.053 11.4503C23.4231 10.9682 23.7163 10.5819 23.9328 10.2908C25.4942 8.19875 26.1711 6.86193 25.9634 6.27977L25.8828 6.14373C25.8286 6.06183 25.6887 5.9869 25.4634 5.91857C25.2375 5.85038 24.9488 5.8391 24.5967 5.88455L20.6981 5.91169C20.635 5.88913 20.5448 5.89124 20.4273 5.91857C20.31 5.9459 20.2513 5.95962 20.2513 5.95962L20.1834 5.99378L20.1295 6.03483C20.0844 6.06197 20.0348 6.10971 19.9806 6.17794C19.9267 6.24594 19.8816 6.32574 19.8455 6.41667C19.4211 7.5172 18.9385 8.54041 18.3969 9.48626C18.063 10.0503 17.7563 10.539 17.4762 10.9529C17.1965 11.3666 16.9619 11.6714 16.7725 11.8668C16.5828 12.0624 16.4117 12.2191 16.2579 12.3375C16.1045 12.4559 15.9873 12.5059 15.9062 12.4876C15.8249 12.4693 15.7483 12.4511 15.6758 12.433C15.5495 12.3511 15.448 12.2397 15.3714 12.0987C15.2945 11.9578 15.2427 11.7803 15.2156 11.5666C15.1887 11.3527 15.1728 11.1687 15.1682 11.0141C15.164 10.8596 15.1659 10.6411 15.1751 10.3591C15.1845 10.0771 15.1887 9.88621 15.1887 9.78615C15.1887 9.44048 15.1954 9.06532 15.2088 8.66059C15.2225 8.25585 15.2335 7.93517 15.2428 7.69892C15.252 7.46244 15.2562 7.21224 15.2562 6.94847C15.2562 6.6847 15.2403 6.47784 15.2088 6.3277C15.1777 6.17775 15.13 6.0322 15.067 5.89109C15.0037 5.75013 14.9111 5.64108 14.7895 5.56367C14.6677 5.48636 14.5163 5.425 14.3361 5.37942C13.8577 5.27032 13.2486 5.21131 12.5084 5.20214C10.8299 5.18398 9.75134 5.29321 9.27303 5.5297C9.08351 5.62962 8.91202 5.76614 8.75868 5.93883C8.59619 6.139 8.57353 6.24823 8.69083 6.2662C9.23239 6.34796 9.61578 6.54354 9.84143 6.85276L9.92274 7.01661C9.98599 7.13483 10.0491 7.34412 10.1124 7.64421C10.1755 7.9443 10.2162 8.27626 10.2341 8.6399C10.2792 9.30396 10.2792 9.8724 10.2341 10.3453C10.1889 10.8183 10.1463 11.1866 10.1055 11.4504C10.0648 11.7142 10.0039 11.9279 9.92274 12.0916C9.84143 12.2553 9.78733 12.3553 9.76021 12.3916C9.73314 12.428 9.71057 12.4509 9.69264 12.4598C9.57534 12.5051 9.45334 12.5282 9.32708 12.5282C9.20063 12.5282 9.04729 12.4645 8.86683 12.3371C8.68642 12.2097 8.49918 12.0347 8.30511 11.8118C8.11105 11.5889 7.89218 11.2774 7.64843 10.8773C7.40486 10.4771 7.15214 10.0042 6.89042 9.45849L6.67388 9.06274C6.53851 8.80815 6.35359 8.43743 6.11894 7.95094C5.88415 7.46425 5.67661 6.99348 5.4962 6.53872C5.42409 6.34772 5.31575 6.20231 5.17137 6.10225L5.10361 6.06121C5.05857 6.02489 4.98626 5.98633 4.88707 5.94523C4.78774 5.90419 4.68409 5.87475 4.57571 5.85664L0.866541 5.88378C0.487513 5.88378 0.230338 5.97032 0.0949232 6.14316L0.0407288 6.22492C0.0136553 6.27045 0 6.34318 0 6.44329C0 6.54335 0.0270735 6.66616 0.0812679 6.81157C0.622738 8.0941 1.21157 9.331 1.84778 10.5225C2.48398 11.7139 3.03683 12.6737 3.50599 13.4009C3.97525 14.1286 4.45357 14.8154 4.94094 15.4609C5.42831 16.1067 5.75091 16.5206 5.90875 16.7024C6.06679 16.8846 6.19092 17.0208 6.28115 17.1117L6.61964 17.4391C6.83622 17.6574 7.15428 17.9189 7.57394 18.2235C7.9937 18.5283 8.4584 18.8284 8.9683 19.1242C9.47828 19.4196 10.0716 19.6606 10.7485 19.847C11.4253 20.0336 12.0841 20.1085 12.7249 20.0724H14.2817C14.5975 20.0449 14.8367 19.9448 14.9992 19.7722L15.0531 19.7038C15.0893 19.6495 15.1232 19.5652 15.1545 19.4517C15.1862 19.338 15.2019 19.2127 15.2019 19.0765C15.1927 18.6855 15.2222 18.3331 15.2897 18.0193C15.3572 17.7057 15.4341 17.4692 15.5201 17.3099C15.6061 17.1508 15.7031 17.0165 15.8111 16.9077C15.9193 16.7986 15.9964 16.7325 16.0416 16.7097C16.0865 16.6869 16.1224 16.6713 16.1495 16.662C16.3661 16.5893 16.621 16.6597 16.9146 16.8736C17.2079 17.0874 17.4831 17.3513 17.7404 17.665C17.9977 17.9789 18.3067 18.3311 18.6676 18.7221C19.0288 19.1133 19.3446 19.4041 19.6152 19.5954L19.8858 19.7591C20.0666 19.8683 20.3012 19.9684 20.5901 20.0593C20.8784 20.1502 21.131 20.1729 21.3479 20.1275L24.8133 20.073C25.1561 20.073 25.4228 20.0158 25.612 19.9023C25.8015 19.7886 25.9141 19.6634 25.9504 19.5272C25.9867 19.3908 25.9886 19.2361 25.9573 19.0631C25.9252 18.8905 25.8936 18.7699 25.8621 18.7017Z" fill="black"/>
</svg>
