<svg width="26" height="26" viewBox="0 0 26 26" fill="none" xmlns="http://www.w3.org/2000/svg">
<path d="M25.4248 5.94335L25.4573 6.16067C25.1431 5.0197 24.2949 4.13929 23.2169 3.81884L23.1942 3.8133C21.1673 3.25002 13.011 3.25002 13.011 3.25002C13.011 3.25002 4.87526 3.23893 2.82778 3.8133C1.7293 4.13929 0.879975 5.0197 0.571228 6.13739L0.565812 6.16067C-0.191429 10.209 -0.196846 15.0734 0.599395 19.4078L0.565812 19.1882C0.879975 20.3292 1.72821 21.2096 2.80612 21.5301L2.82887 21.5356C4.85359 22.1 13.0121 22.1 13.0121 22.1C13.0121 22.1 21.1467 22.1 23.1953 21.5356C24.2949 21.2096 25.1442 20.3292 25.4529 19.2115L25.4583 19.1882C25.8028 17.3055 26 15.1388 26 12.9256C26 12.8447 26 12.7626 25.9989 12.6806C26 12.6052 26 12.5153 26 12.4255C26 10.2112 25.8028 8.04456 25.4248 5.94335ZM10.4089 16.7233V8.63668L17.1969 12.6861L10.4089 16.7233Z" fill="black"/>
</svg>
