<svg width="26" height="26" viewBox="0 0 26 26" fill="none" xmlns="http://www.w3.org/2000/svg">
<path d="M5.43959 13.9546C4.7755 15.26 5.5295 15.884 7.24983 16.95C8.71232 17.8535 10.7327 18.1839 12.0306 18.3161C11.4986 18.8274 13.9361 16.4831 6.91616 23.2355C5.42767 24.6622 7.82399 26.9513 9.3114 25.5549L13.3381 21.6711C14.8797 23.1542 16.3574 24.5755 17.3649 25.5603C18.8534 26.9621 21.2486 24.6925 19.7764 23.2409C19.6659 23.1358 14.3196 18.0073 14.6457 18.3215C15.9598 18.1893 17.9499 17.8394 19.395 16.9554L19.3939 16.9543C21.1143 15.8829 21.8683 15.26 21.2139 13.9546C20.8185 13.2136 19.7525 12.5939 18.3334 13.6653C18.3334 13.6653 16.417 15.1333 13.3262 15.1333C10.2344 15.1333 8.31907 13.6653 8.31907 13.6653C6.901 12.5885 5.83067 13.2136 5.43959 13.9546Z" fill="black"/>
<path d="M13.3241 13.1538C17.0919 13.1538 20.1685 10.2093 20.1685 6.58447C20.1685 2.94449 17.0919 0 13.3241 0C9.55517 0 6.47852 2.94449 6.47852 6.58447C6.47852 10.2093 9.55517 13.1538 13.3241 13.1538ZM13.3241 3.33557C15.1755 3.33557 16.6856 4.78831 16.6856 6.58447C16.6856 8.36547 15.1755 9.81821 13.3241 9.81821C11.4727 9.81821 9.9625 8.36547 9.9625 6.58447C9.96142 4.78723 11.4716 3.33557 13.3241 3.33557Z" fill="black"/>
</svg>
