<svg width="20" height="20" viewBox="0 0 20 20" fill="none" xmlns="http://www.w3.org/2000/svg">
<path d="M19.915 9.54968C19.8216 6.99542 18.7453 4.57599 16.9106 2.79653C15.0758 1.01706 12.6246 0.0151494 10.0688 2.73642e-06H10.0205C8.29932 -0.00127593 6.60752 0.445584 5.11144 1.29661C3.61538 2.14764 2.36667 3.3735 1.48817 4.85358C0.609675 6.33368 0.131663 8.01701 0.101166 9.73788C0.07067 11.4588 0.488742 13.1579 1.31425 14.6683L0.437689 19.9135C0.436262 19.9243 0.437142 19.9352 0.440275 19.9456C0.443402 19.956 0.448715 19.9656 0.455849 19.9738C0.462982 19.982 0.471775 19.9885 0.481642 19.9931C0.491509 19.9976 0.502229 19.9999 0.513082 20H0.528162L5.71613 18.846C7.05659 19.4895 8.52452 19.8235 10.0114 19.8231C10.106 19.8231 10.2004 19.8231 10.2949 19.8231C11.6029 19.7857 12.8906 19.4897 14.0835 18.9521C15.2765 18.4145 16.3512 17.646 17.2456 16.6909C18.14 15.7357 18.8364 14.6129 19.2945 13.3872C19.7526 12.1615 19.9635 10.8573 19.915 9.54968ZM10.2456 18.0991C10.1672 18.0991 10.0889 18.0991 10.0114 18.0991C8.69732 18.1007 7.40199 17.7863 6.23483 17.1823L5.96945 17.0436L2.45116 17.8749L3.10053 14.3154L2.94975 14.0601C2.22959 12.8323 1.84168 11.438 1.82425 10.0146C1.80681 8.59128 2.16045 7.18788 2.85032 5.94278C3.5402 4.69766 4.54251 3.65372 5.75855 2.91378C6.97459 2.17384 8.36238 1.76342 9.78532 1.72296C9.86438 1.72296 9.94378 1.72296 10.0235 1.72296C12.1718 1.72933 14.2316 2.57938 15.7592 4.08998C17.2867 5.60057 18.1597 7.65082 18.19 9.79888C18.2203 11.947 17.4056 14.021 15.9213 15.5741C14.437 17.1273 12.402 18.0351 10.2547 18.1021L10.2456 18.0991Z" fill="#30C687"/>
<path d="M6.21014 5.20578C6.32202 5.15588 6.44278 5.12894 6.56525 5.12655L6.58638 5.12354C6.75225 5.12856 6.91812 5.13359 7.06285 5.14364L7.06394 5.14372C7.23961 5.15677 7.4402 5.17166 7.60871 5.598C7.81678 6.0976 8.26011 7.34306 8.31938 7.46973C8.35665 7.53619 8.37678 7.61079 8.37798 7.68699C8.37925 7.76313 8.36151 7.83839 8.32645 7.90599C8.25865 8.05166 8.17065 8.18699 8.06505 8.30806C7.93638 8.44986 7.80271 8.61366 7.67805 8.73232C7.55338 8.85092 7.41671 8.98159 7.55338 9.23492C7.90711 9.88752 8.35565 10.4841 8.88431 11.0051C9.45011 11.5591 10.1146 12.0024 10.8435 12.3119C10.9278 12.3561 11.0208 12.3811 11.1159 12.3853C11.1675 12.3844 11.2184 12.3727 11.2651 12.3509C11.3118 12.329 11.3535 12.2976 11.3873 12.2587C11.5422 12.1018 12.0036 11.558 12.2046 11.3077C12.2359 11.2563 12.2793 11.2133 12.331 11.1825C12.3826 11.1517 12.441 11.1339 12.5011 11.1308C12.5934 11.1376 12.6836 11.1611 12.7675 11.2001C12.9937 11.2906 14.197 11.9339 14.4422 12.0626C14.6875 12.1913 14.8504 12.2637 14.9096 12.3642C14.969 12.4647 14.9539 12.9673 14.7287 13.5423C14.5036 14.1173 13.4712 14.6461 13.0138 14.6742C12.8781 14.6823 12.7484 14.7003 12.5765 14.7003C12.1594 14.7003 11.516 14.5918 10.0484 13.9595C7.55138 12.8869 6.03552 10.2421 5.9159 10.0723L5.91493 10.0709C5.79177 9.89601 4.94093 8.68783 4.97902 7.46673C5.01722 6.24235 5.67766 5.65932 5.91389 5.41706C5.99751 5.32753 6.09825 5.25568 6.21014 5.20578Z" fill="#30C687"/>
</svg>
